<?xml version="1.0" encoding="UTF-8"?>
<svg id="Layer_2" data-name="Layer 2" xmlns="http://www.w3.org/2000/svg" viewBox="0 0 170.47 144.9">
  <defs>
    <style>
      .cls-1 {
        fill: #f4b71a;
      }

      .cls-2 {
        fill: #f89f1c;
        fill-rule: evenodd;
      }

      .cls-3 {
        fill: #00a76e;
        isolation: isolate;
      }
    </style>
  </defs>
  <g id="Layer_1-2" data-name="Layer 1">
    <g id="SVGRepo_iconCarrier" data-name="SVGRepo iconCarrier">
      <path class="cls-3" d="M25.05,4.99c-4.99,4.99-4.99,13.03-4.99,29.1v59.67h130.36v-59.67c0-16.07,0-24.11-4.99-29.1-4.99-4.99-13.03-4.99-29.1-4.99h-62.17c-16.07,0-24.11,0-29.1,4.99Z"/>
      <path class="cls-2" d="M165.28,113.67c.38.39.57.59.75.78,2.74,3.01,4.31,6.89,4.43,10.95,0,.26,0,.54,0,1.08,0,1.27,0,1.91-.03,2.44-.54,8.57-7.37,15.4-15.94,15.94-.54.03-1.17.03-2.44.03H18.42c-1.27,0-1.91,0-2.44-.03-8.57-.54-15.4-7.37-15.94-15.94-.03-.54-.03-1.17-.03-2.44,0-.55,0-.82,0-1.08.13-4.06,1.7-7.95,4.43-10.95.18-.19.37-.39.75-.78l11.03-11.39h138.03l11.03,11.39ZM57.53,127.85c0-3.53,2.86-6.39,6.39-6.39h42.62c3.53,0,6.39,2.86,6.39,6.39s-2.86,6.39-6.39,6.39h-42.62c-3.53,0-6.39-2.86-6.39-6.39Z"/>
      <path class="cls-1" d="M91.63,23.44c0,3.53-2.86,6.39-6.39,6.39s-6.39-2.86-6.39-6.39,2.86-6.39,6.39-6.39,6.39,2.86,6.39,6.39Z"/>
    </g>
  </g>
</svg>