<?xml version="1.0" encoding="UTF-8"?>
<svg id="Layer_2" data-name="Layer 2" xmlns="http://www.w3.org/2000/svg" viewBox="0 0 146.63 146.63">
  <defs>
    <style>
      .cls-1 {
        fill: #048e6d;
        isolation: isolate;
      }

      .cls-2 {
        fill: #f4b71a;
        fill-rule: evenodd;
      }
    </style>
  </defs>
  <g id="Layer_1-2" data-name="Layer 1">
    <g id="SVGRepo_iconCarrier" data-name="SVGRepo iconCarrier">
      <path class="cls-1" d="M0,74.18C0,40.02,0,22.95,10.61,12.34,21.22,1.73,38.3,1.73,72.45,1.73s51.23,0,61.84,10.61c10.61,10.61,10.61,27.69,10.61,61.84s0,51.23-10.61,61.84c-10.61,10.61-27.69,10.61-61.84,10.61s-51.23,0-61.84-10.61C0,125.41,0,108.33,0,74.18Z"/>
      <path class="cls-2" d="M146.63,46.19c-1.03,9.04-5.01,17.8-11.94,24.73-10.81,10.81-26.09,14.45-39.9,10.9-2.23-.57-4.63-.07-6.26,1.56l-11.08,11.08-.02-.02-10.56-10.44c-2.13-2.11-5.57-2.09-7.68.04-2.11,2.13-2.09,5.57.04,7.68l10.54,10.42-3.65,3.65c-1.92,1.92-4.61,2.86-7.31,2.56l-12.61-1.4c-1.34-.15-2.6-.75-3.55-1.71l-1.26-1.26c-.96-.96-1.56-2.21-1.71-3.55l-1.4-12.61c-.3-2.7.64-5.39,2.56-7.31l22.41-22.41c1.63-1.63,2.13-4.04,1.56-6.26-3.55-13.81.09-29.08,10.9-39.9,6.93-6.93,15.69-10.91,24.73-11.94,6.57.24,12.18.7,17.01,1.56,6.3,1.93,12.24,5.39,17.23,10.38,4.99,4.99,8.45,10.92,10.38,17.23.86,4.84,1.32,10.45,1.56,17.02ZM96.1,33.45c4.72-4.72,12.36-4.72,17.08,0,4.72,4.72,4.72,12.36,0,17.08-4.72,4.72-12.36,4.72-17.08,0-4.72-4.72-4.72-12.36,0-17.08Z"/>
    </g>
  </g>
</svg>