<?xml version="1.0" encoding="UTF-8"?>
<svg id="Layer_2" data-name="Layer 2" xmlns="http://www.w3.org/2000/svg" viewBox="0 0 666.67 666.67">
  <defs>
    <style>
      .cls-1 {
        fill: #16b16e;
        fill-rule: evenodd;
        stroke-width: 0px;
      }
    </style>
  </defs>
  <g id="Layer_1-2" data-name="Layer 1">
    <g id="SVGRepo_iconCarrier" data-name="SVGRepo iconCarrier">
      <path class="cls-1" d="m0,333.33C0,149.24,149.24,0,333.33,0s333.33,149.24,333.33,333.33-149.24,333.33-333.33,333.33S0,517.43,0,333.33Zm456.9-90.24c13.02,13.02,13.02,34.12,0,47.14l-122.76,122.76c-18.86,18.86-49.43,18.86-68.29,0l-56.09-56.09c-13.02-13.02-13.02-34.12,0-47.14,13.02-13.02,34.12-13.02,47.14,0l43.1,43.1,109.76-109.76c13.02-13.02,34.12-13.02,47.14,0Z"/>
    </g>
  </g>
</svg>