<?xml version="1.0" encoding="UTF-8"?>
<svg id="Layer_2" data-name="Layer 2" xmlns="http://www.w3.org/2000/svg" viewBox="0 0 130.41 144.9">
  <defs>
    <style>
      .cls-1 {
        fill: #f4b71a;
      }

      .cls-2 {
        fill: #048e6d;
        isolation: isolate;
      }
    </style>
  </defs>
  <g id="Layer_1-2" data-name="Layer 1">
    <g id="SVGRepo_iconCarrier" data-name="SVGRepo iconCarrier">
      <path class="cls-2" d="M30.76,0h68.9c8.4,0,12.59,0,15.98,1.18,6.42,2.23,11.46,7.42,13.63,14.03,1.14,3.49,1.14,7.81,1.14,16.45v101.46c0,6.22-7.14,9.52-11.65,5.39-2.65-2.43-6.65-2.43-9.3,0l-3.5,3.2c-4.65,4.25-11.65,4.25-16.3,0s-11.65-4.25-16.3,0-11.65,4.25-16.3,0-11.65-4.25-16.3,0-11.65,4.25-16.3,0l-3.5-3.2c-2.65-2.43-6.65-2.43-9.3,0-4.51,4.13-11.65.83-11.65-5.39V31.66c0-8.64,0-12.97,1.14-16.45C3.31,8.6,8.36,3.41,14.78,1.18c3.39-1.18,7.58-1.18,15.98-1.18Z"/>
      <path class="cls-1" d="M28.98,34.41c-3,0-5.43,2.43-5.43,5.43s2.43,5.43,5.43,5.43h3.62c3,0,5.43-2.43,5.43-5.43s-2.43-5.43-5.43-5.43h-3.62Z"/>
      <path class="cls-1" d="M54.34,34.41c-3,0-5.43,2.43-5.43,5.43s2.43,5.43,5.43,5.43h47.09c3,0,5.43-2.43,5.43-5.43s-2.43-5.43-5.43-5.43h-47.09Z"/>
      <path class="cls-1" d="M28.98,59.77c-3,0-5.43,2.43-5.43,5.43s2.43,5.43,5.43,5.43h3.62c3,0,5.43-2.43,5.43-5.43s-2.43-5.43-5.43-5.43h-3.62Z"/>
      <path class="cls-1" d="M54.34,59.77c-3,0-5.43,2.43-5.43,5.43s2.43,5.43,5.43,5.43h47.09c3,0,5.43-2.43,5.43-5.43s-2.43-5.43-5.43-5.43h-47.09Z"/>
      <path class="cls-1" d="M28.98,85.13c-3,0-5.43,2.43-5.43,5.43s2.43,5.43,5.43,5.43h3.62c3,0,5.43-2.43,5.43-5.43s-2.43-5.43-5.43-5.43h-3.62Z"/>
      <path class="cls-1" d="M54.34,85.13c-3,0-5.43,2.43-5.43,5.43s2.43,5.43,5.43,5.43h47.09c3,0,5.43-2.43,5.43-5.43s-2.43-5.43-5.43-5.43h-47.09Z"/>
    </g>
  </g>
</svg>