<?xml version="1.0" encoding="UTF-8"?>
<svg id="Layer_2" data-name="Layer 2" xmlns="http://www.w3.org/2000/svg" viewBox="0 0 662.64 662.06">
  <defs>
    <style>
      .cls-1 {
        fill: #fff;
        isolation: isolate;
        opacity: .1;
        stroke-miterlimit: 10;
      }

      .cls-1, .cls-2 {
        stroke: #231f20;
      }

      .cls-2 {
        fill: none;
        stroke-linecap: round;
        stroke-linejoin: round;
        stroke-width: 66.67px;
      }
    </style>
  </defs>
  <g id="Layer_1-2" data-name="Layer 1">
    <g id="SVGRepo_iconCarrier" data-name="SVGRepo iconCarrier">
      <path class="cls-1" d="M628.89,439.27c1.73-3.94-2.2-7.93-6.25-6.47-112.09,40.48-240.98,16.59-325.56-67.95-84.18-84.15-108.13-212.23-68.36-323.94,1.64-4.61-2.91-9.09-7.38-7.09-.3.14-.6.27-.9.41-61.85,27.93-116.89,75.05-149.21,134.41-34.55,63.46-45.95,136.95-32.24,207.88,13.71,70.93,51.69,134.89,107.41,180.9s125.72,71.22,197.99,71.3c62.15,0,122.88-18.59,174.37-53.38,47.54-32.12,85.2-80.77,108.94-133.42.4-.88.79-1.77,1.19-2.66Z"/>
      <path class="cls-2" d="M628.89,439.27c1.73-3.94-2.2-7.93-6.25-6.47h0c-112.09,40.48-240.98,16.59-325.56-67.95-84.18-84.15-108.13-212.23-68.36-323.94h0c1.64-4.61-2.91-9.09-7.38-7.09-.3.14-.6.27-.9.41-61.85,27.93-116.89,75.05-149.21,134.41-34.55,63.46-45.95,136.95-32.24,207.88,13.71,70.93,51.69,134.89,107.41,180.9s125.72,71.22,197.99,71.3c62.15,0,122.88-18.59,174.37-53.38,47.54-32.12,85.2-80.77,108.94-133.42.4-.88.79-1.77,1.19-2.66Z"/>
    </g>
  </g>
</svg>