<?xml version="1.0" encoding="UTF-8"?>
<svg id="Layer_2" data-name="Layer 2" xmlns="http://www.w3.org/2000/svg" viewBox="0 0 583.33 716.67">
  <defs>
    <style>
      .cls-1 {
        fill: #1c274c;
        fill-rule: evenodd;
        stroke-width: 0px;
      }
    </style>
  </defs>
  <g id="Layer_1-2" data-name="Layer 1">
    <path class="cls-1" d="m361.64,38.04c50.72-50.72,132.94-50.72,183.66,0,50.72,50.72,50.72,132.94,0,183.66l-253.13,253.13c-14.27,14.27-22.98,22.98-32.69,30.56-11.44,8.92-23.82,16.57-36.92,22.82-11.12,5.3-22.81,9.19-41.95,15.57l-89.09,29.7-21.39,7.13c-19.14,6.38-40.25,1.4-54.52-12.87-14.27-14.27-19.25-35.38-12.87-54.52l36.83-110.48c6.38-19.14,10.28-30.83,15.57-41.95,6.24-13.1,13.89-25.48,22.82-36.92,7.57-9.71,16.29-18.42,30.56-32.69L361.64,38.04ZM90.36,521.15l-28.18-28.18,24.28-72.84c7.07-21.21,9.99-29.83,13.81-37.84,4.68-9.82,10.42-19.1,17.11-27.68,5.46-6.99,11.86-13.46,27.67-29.27l196.37-196.36c8.1,20.33,21.82,44.87,44.95,68,23.12,23.13,47.67,36.84,68,44.95l-196.36,196.37c-15.81,15.81-22.28,22.21-29.27,27.67-8.58,6.69-17.86,12.43-27.68,17.11-8.01,3.82-16.63,6.74-37.84,13.8l-72.84,24.28ZM494.2,202.08c-4.13-.91-9.29-2.27-15.16-4.31-16.13-5.6-37.36-16.18-57.33-36.15-19.97-19.97-30.56-41.19-36.15-57.33-2.04-5.87-3.4-11.03-4.31-15.16l15.74-15.74c31.19-31.19,81.76-31.19,112.95,0,31.19,31.19,31.19,81.76,0,112.95l-15.74,15.74ZM0,691.67c0-13.81,11.19-25,25-25h533.33v50H25C11.19,716.67,0,705.47,0,691.67Z"/>
  </g>
</svg>