<?xml version="1.0" encoding="UTF-8"?>
<svg id="Layer_2" data-name="Layer 2" xmlns="http://www.w3.org/2000/svg" viewBox="0 0 578.82 578.84">
  <defs>
    <style>
      .cls-1 {
        fill: #90bc53;
        stroke-width: 0px;
      }
    </style>
  </defs>
  <g id="Layer_1-2" data-name="Layer 1">
    <path class="cls-1" d="m40.51,20.25v239.58c0,84.69,68.66,153.34,153.36,153.34h313.42s-85.8-85.78-85.8-85.78c-7.91-7.91-7.91-20.73,0-28.64,7.91-7.91,20.73-7.91,28.64,0l122.76,122.76c7.91,7.91,7.91,20.73,0,28.64l-122.75,122.75c-7.91,7.91-20.73,7.91-28.64,0-7.91-7.91-7.91-20.73,0-28.64l90.62-90.6-318.25.02C86.8,453.68,0,366.89,0,259.83V20.25C0,9.07,9.07,0,20.25,0c11.19,0,20.25,9.07,20.25,20.25Z"/>
  </g>
</svg>