<?xml version="1.0" encoding="UTF-8"?>
<svg id="Layer_2" data-name="Layer 2" xmlns="http://www.w3.org/2000/svg" viewBox="0 0 800.95 801">
  <defs>
    <style>
      .cls-1 {
        fill: none;
        stroke: #f5b700;
        stroke-linecap: round;
        stroke-linejoin: round;
        stroke-width: 44px;
      }

      .cls-2, .cls-3 {
        fill: #c25608;
      }

      .cls-3 {
        stroke: #000c44;
        stroke-miterlimit: 10;
      }
    </style>
  </defs>
  <g id="Capa_1" data-name="Capa 1">
    <g>
      <g id="SVGRepo_iconCarrier" data-name="SVGRepo iconCarrier">
        <path class="cls-3" d="M400.47.5C179.94.5.5,179.94.5,400.5s179.44,400,399.97,400,399.97-179.47,399.97-400S620.98.5,400.47.5ZM453.22,677.42h-105.49v-118.68h105.49v118.68ZM453.22,515.88h-105.49V136.77h105.49v379.11Z"/>
      </g>
      <circle class="cls-2" cx="400.47" cy="406.21" r="337.82"/>
    </g>
    <path class="cls-1" d="M349.13,569.5v-3.01c0-22.39-13.97-41.91-31.46-55.88-60.81-48.5-70.79-137.11-22.3-197.92,48.5-60.81,137.11-70.79,197.92-22.3,60.81,48.5,70.79,137.11,22.3,197.92-6.57,8.24-14.05,15.72-22.3,22.3-17.52,14-31.49,33.49-31.49,55.88v3.01M349.13,569.5v56.33c0,15.56,12.61,28.17,28.17,28.17h56.33c15.56,0,28.17-12.61,28.17-28.17v-56.33M349.13,569.5h112.67M630.8,400.5h28.17M180.13,400.5h-28.17M405.46,175.17v-28.17M564.8,241.16l19.91-19.91M246.15,241.16l-19.94-19.91M405.46,485v-56.33"/>
  </g>
</svg>