<svg xmlns="http://www.w3.org/2000/svg" viewBox="0 0 17 16"><defs><style>.cls-1{fill:#fff;}</style></defs><g id="Layer_2" data-name="Layer 2"><g id="Layer_1-2" data-name="Layer 1"><path class="cls-1" d="M17,4.5A4.5,4.5,0,1,1,12.5,0,4.5,4.5,0,0,1,17,4.5ZM12.5,2a.5.5,0,0,0-.5.5v2a.5.5,0,0,0,1,0v-2A.5.5,0,0,0,12.5,2Zm0,5.1a.6.6,0,0,0,.6-.6.6.6,0,0,0-1.2,0A.6.6,0,0,0,12.5,7.1ZM15,13.5V9.4l1-.7v4.8A2.5,2.5,0,0,1,13.5,16H2.5A2.5,2.5,0,0,1,0,13.5v-8A2.5,2.5,0,0,1,2.5,3H7.2c-.1.3-.1.7-.2,1H2.5A1.5,1.5,0,0,0,1,5.5v.3L8,9.9l1.4-.8,1.1.5L8.3,10.9H7.7L1,7v6.5A1.5,1.5,0,0,0,2.5,15h11A1.5,1.5,0,0,0,15,13.5Z"/></g></g></svg>