<?xml version="1.0" encoding="UTF-8"?>
<svg id="Layer_2" data-name="Layer 2" xmlns="http://www.w3.org/2000/svg" viewBox="0 0 180.47 144.37">
  <defs>
    <style>
      .cls-1 {
        fill: #f4b71a;
      }

      .cls-2 {
        fill: #04a76e;
        isolation: isolate;
      }
    </style>
  </defs>
  <g id="Layer_1-2" data-name="Layer 1">
    <g id="SVGRepo_iconCarrier" data-name="SVGRepo iconCarrier">
      <path class="cls-2" d="M108.31,0h-36.16C38.06,0,21.02,0,10.42,10.57,2.5,18.48.5,30.01,0,49.58c-.06,2.51,1.99,4.51,4.43,5.15,7.76,2.03,13.48,9.08,13.48,17.46s-5.73,15.43-13.48,17.46C2,90.28-.06,92.29,0,94.8c.5,19.57,2.49,31.09,10.42,39.01,10.59,10.57,27.64,10.57,61.73,10.57h36.16c34.09,0,51.14,0,61.73-10.57,7.93-7.91,9.92-19.44,10.42-39.01.06-2.51-1.99-4.51-4.43-5.15-7.76-2.03-13.48-9.08-13.48-17.46s5.73-15.43,13.48-17.46c2.43-.64,4.49-2.64,4.43-5.15-.5-19.57-2.49-31.09-10.42-39.01C159.45,0,142.4,0,108.31,0Z"/>
      <path class="cls-1" d="M98.84,55.93l-.89-1.59c-3.44-6.15-5.15-9.23-7.72-9.23s-4.29,3.08-7.72,9.23h0l-.89,1.59c-.98,1.75-1.46,2.62-2.23,3.2-.76.58-1.71.79-3.6,1.22l-1.73.39c-6.67,1.51-10.01,2.26-10.8,4.81s1.48,5.2,6.03,10.51l1.18,1.37c1.29,1.51,1.94,2.26,2.23,3.2.29.93.19,1.94,0,3.95l-.18,1.83c-.69,7.08-1.03,10.62,1.05,12.2,2.08,1.57,5.2.14,11.45-2.73l1.62-.74c1.77-.82,2.66-1.22,3.6-1.22s1.83.41,3.6,1.22l1.62.74h0c6.25,2.87,9.37,4.31,11.45,2.73,2.08-1.57,1.73-5.12,1.05-12.2h0l-.18-1.83h0c-.2-2.01-.29-3.02,0-3.95s.94-1.69,2.23-3.2l1.18-1.37c4.55-5.31,6.82-7.96,6.03-10.51-.79-2.55-4.13-3.3-10.8-4.81l-1.73-.39c-1.9-.43-2.84-.64-3.6-1.22-.76-.58-1.25-1.45-2.23-3.2Z"/>
    </g>
  </g>
</svg>