<?xml version="1.0" encoding="UTF-8"?>
<svg id="Layer_2" data-name="Layer 2" xmlns="http://www.w3.org/2000/svg" viewBox="0 0 118.29 144.37">
  <defs>
    <style>
      .cls-1 {
        fill: #f89f1c;
        fill-rule: evenodd;
      }

      .cls-2 {
        fill: #00a76e;
        isolation: isolate;
      }
    </style>
  </defs>
  <g id="Layer_1-2" data-name="Layer 1">
    <g>
      <path class="cls-2" d="M66.54,0h-14.79c-13.94,0-20.91,0-25.24,4.33-4.33,4.33-4.33,11.3-4.33,25.24v14.79h73.93v-14.79c0-13.94,0-20.91-4.33-25.24-4.33-4.33-11.3-4.33-25.24-4.33Z"/>
      <path class="cls-1" d="M44.36,29.57h29.57c20.91,0,31.37,0,37.86,6.5,6.5,6.5,6.5,16.95,6.5,37.86v7.8c0,17.79,0,26.68-4.42,33.82-4.42,7.15-12.37,11.12-28.28,19.08-12.98,6.49-19.47,9.74-26.45,9.74s-13.47-3.24-26.45-9.74c-15.91-7.95-23.86-11.93-28.28-19.08C0,108.41,0,99.52,0,81.74v-7.8c0-20.91,0-31.37,6.5-37.86,6.5-6.5,16.95-6.5,37.86-6.5ZM59.15,59.15c-2.1,0-3.51,2.52-6.31,7.56l-.73,1.3c-.8,1.43-1.2,2.15-1.82,2.62s-1.4.65-2.95,1l-1.41.32c-5.46,1.23-8.18,1.85-8.83,3.94s1.21,4.26,4.93,8.61l.96,1.13c1.06,1.24,1.59,1.85,1.82,2.62.24.76.16,1.59,0,3.24l-.15,1.5c-.56,5.8-.84,8.7.86,9.99,1.7,1.29,4.25.11,9.36-2.24l1.32-.61c1.45-.67,2.18-1,2.95-1s1.49.33,2.95,1l1.32.61c5.11,2.35,7.66,3.53,9.36,2.24,1.7-1.29,1.42-4.19.86-9.99l-.15-1.5c-.16-1.65-.24-2.47,0-3.24.24-.76.77-1.38,1.82-2.62l.96-1.13c3.72-4.35,5.58-6.52,4.93-8.61-.65-2.09-3.38-2.7-8.83-3.94l-1.41-.32c-1.55-.35-2.33-.53-2.95-1s-1.02-1.19-1.82-2.62l-.73-1.3c-2.81-5.04-4.21-7.56-6.31-7.56Z"/>
    </g>
  </g>
</svg>