<?xml version="1.0" encoding="UTF-8"?>
<svg id="Layer_2" data-name="Layer 2" xmlns="http://www.w3.org/2000/svg" viewBox="0 0 633.33 700">
  <defs>
    <style>
      .cls-1 {
        fill: #048e6d;
      }

      .cls-2 {
        fill: #eb4600;
        fill-rule: evenodd;
      }
    </style>
  </defs>
  <g id="Layer_1-2" data-name="Layer 1">
    <path class="cls-1" d="M365.74,681.63l16.28-27.48c12.62-21.31,18.94-31.97,29.07-37.86,10.14-5.89,22.9-6.11,48.43-6.55,37.69-.65,61.33-2.96,81.15-11.16,36.78-15.23,66-44.43,81.24-81.19,11.43-27.57,11.43-62.51,11.43-132.41v-30c0-98.21,0-147.31-22.12-183.39-12.38-20.18-29.36-37.16-49.56-49.52-28.89-17.69-56.52-21.22-116.78-21.93-10.42-.12-15.63-.18-19.74,2.35-4.11,2.53-6.47,7.37-11.19,17.04-22.13,45.32-81.27,157.99-147.27,213.8-58.41,49.38-162.12,87.99-209.06,103.84-12.07,4.07-18.11,6.11-21.26,10.89-3.16,4.78-2.69,10.67-1.77,22.46,1.5,19.2,4.35,33.86,9.74,46.87,15.24,36.76,44.46,65.96,81.24,81.19,19.82,8.2,43.46,10.51,81.15,11.16,25.53.44,38.29.66,48.43,6.55,10.14,5.89,16.45,16.55,29.07,37.86l16.28,27.48c14.5,24.49,50.74,24.49,65.25,0Z"/>
    <path class="cls-2" d="M280.31,7.04l78.57,72.25c4.98,4.58,7.79,10.83,7.79,17.35,0,6.52-2.8,12.77-7.79,17.35l-78.57,72.25c-10.29,9.46-26.87,9.37-37.04-.21-10.16-9.58-10.06-25.02.23-34.48l32.97-30.32c-28.07.27-54.53.91-78.26,2.4-20.54,1.29-38.39,3.2-53.02,5.91-14.99,2.78-24.78,6.08-30.41,9.26-17.63,9.93-32.42,23.55-43.18,39.7-8.58,12.88-13.74,29.18-16.45,55.36-2.75,26.55-2.78,60.66-2.78,108.44,0,13.47-11.72,24.38-26.19,24.38S0,355.75,0,342.28v-1.28c0-46.21,0-82.66,3.02-111.83,3.08-29.81,9.5-54.53,24.08-76.4,15.15-22.73,35.91-41.81,60.57-55.71,13.27-7.48,29.97-12.15,47.31-15.36,17.7-3.28,38.01-5.37,59.7-6.73,25.22-1.59,53.17-2.25,82.23-2.52l-33.4-30.71c-10.29-9.46-10.39-24.9-.23-34.48,10.17-9.58,26.75-9.68,37.04-.21Z"/>
  </g>
</svg>