<!DOCTYPE svg PUBLIC "-//W3C//DTD SVG 1.1//EN" "http://www.w3.org/Graphics/SVG/1.1/DTD/svg11.dtd">
<!-- Uploaded to: SVG Repo, www.svgrepo.com, Transformed by: SVG Repo Mixer Tools -->
<svg fill="#000000" width="800px" height="800px" viewBox="0 0 24 24" id="door-hanger-3" data-name="Flat Color" xmlns="http://www.w3.org/2000/svg" class="icon flat-color">
<g id="SVGRepo_bgCarrier" stroke-width="0"/>
<g id="SVGRepo_tracerCarrier" stroke-linecap="round" stroke-linejoin="round"/>
<g id="SVGRepo_iconCarrier">
<path id="primary" d="M12,2h0A8,8,0,0,0,5.73,5a2,2,0,0,0,.62,3L8.1,9a2,2,0,0,0,2.44-.35A2,2,0,0,1,12.43,8,2.09,2.09,0,0,1,14,10.13V11H6a2,2,0,0,0-2,2v7a2,2,0,0,0,2,2H18a2,2,0,0,0,2-2V10.28A8.16,8.16,0,0,0,12,2Z" style="fill: #000000;"/>
<circle id="secondary" cx="12" cy="16.5" r="1.5" style="fill: #00A76E;"/>
</g>
</svg>