<?xml version="1.0" encoding="UTF-8"?>
<svg id="Layer_2" data-name="Layer 2" xmlns="http://www.w3.org/2000/svg" xmlns:xlink="http://www.w3.org/1999/xlink" viewBox="0 0 164.35 114.36">
  <defs>
    <style>
      .cls-1 {
        fill: #000c44;
      }

      .cls-2 {
        fill: #ffb74f;
      }

      .cls-3 {
        fill: url(#linear-gradient-8);
      }

      .cls-4 {
        fill: url(#linear-gradient-5);
      }

      .cls-5 {
        fill: url(#linear-gradient-6);
      }

      .cls-6 {
        fill: url(#linear-gradient-9);
      }

      .cls-7 {
        fill: url(#linear-gradient-4);
      }

      .cls-8 {
        fill: url(#linear-gradient);
      }

      .cls-9, .cls-10, .cls-11, .cls-12, .cls-13 {
        isolation: isolate;
      }

      .cls-14 {
        fill: #dc6050;
      }

      .cls-15 {
        fill: #004c6b;
      }

      .cls-16 {
        fill: #06a56e;
      }

      .cls-17 {
        fill: #0d2371;
      }

      .cls-18 {
        fill: #83bab6;
      }

      .cls-19 {
        fill: #81b8b4;
      }

      .cls-20 {
        fill: #04696c;
      }

      .cls-21 {
        fill: #f48977;
      }

      .cls-22 {
        fill: #3656b2;
      }

      .cls-10 {
        fill: url(#linear-gradient-14);
      }

      .cls-10, .cls-11, .cls-12, .cls-13 {
        mix-blend-mode: soft-light;
      }

      .cls-23 {
        fill: url(#linear-gradient-10);
      }

      .cls-24 {
        fill: url(#linear-gradient-11);
      }

      .cls-25 {
        fill: url(#linear-gradient-12);
      }

      .cls-26 {
        fill: url(#linear-gradient-13);
      }

      .cls-27 {
        fill: #048c6d;
      }

      .cls-28 {
        fill: #ffae98;
      }

      .cls-29 {
        fill: #e97d6a;
      }

      .cls-30 {
        fill: #003c6a;
      }

      .cls-31 {
        fill: #c52500;
      }

      .cls-32 {
        fill: #f89f09;
      }

      .cls-33 {
        fill: #92372b;
      }

      .cls-34 {
        fill: #c55347;
      }

      .cls-35 {
        fill: #bbc9d6;
      }

      .cls-36 {
        fill: #d1d1d1;
      }

      .cls-37 {
        fill: #1a1a1a;
      }

      .cls-11 {
        fill: url(#linear-gradient-7);
      }

      .cls-12 {
        fill: url(#linear-gradient-3);
      }

      .cls-13 {
        fill: url(#linear-gradient-2);
      }

      .cls-38 {
        fill: #faf9db;
      }
    </style>
    <linearGradient id="linear-gradient" x1="33.9" y1="30.91" x2="33.9" y2="82.96" gradientTransform="translate(0 138.42) scale(1 -1)" gradientUnits="userSpaceOnUse">
      <stop offset="0" stop-color="#364bb2"/>
      <stop offset="1" stop-color="#3380cb"/>
    </linearGradient>
    <linearGradient id="linear-gradient-2" x1="33.9" y1="63.31" x2="33.9" y2="30.91" gradientTransform="translate(0 138.42) scale(1 -1)" gradientUnits="userSpaceOnUse">
      <stop offset="0" stop-color="gray"/>
      <stop offset="1" stop-color="#000"/>
    </linearGradient>
    <linearGradient id="linear-gradient-3" x1="82.18" y1="67.53" x2="82.18" y2="33.12" xlink:href="#linear-gradient-2"/>
    <linearGradient id="linear-gradient-4" x1="-9237.24" y1="85.04" x2="-9237.24" y2="96.05" gradientTransform="translate(9297.49 138.42) scale(1 -1)" gradientUnits="userSpaceOnUse">
      <stop offset="0" stop-color="#ffae98"/>
      <stop offset=".58" stop-color="#ec6f5f"/>
    </linearGradient>
    <linearGradient id="linear-gradient-5" x1="7047.88" y1="96.67" x2="7058.41" y2="96.67" gradientTransform="translate(7113.5 138.42) rotate(-180)" gradientUnits="userSpaceOnUse">
      <stop offset="0" stop-color="#ffae98"/>
      <stop offset="1" stop-color="#ec6f5f"/>
    </linearGradient>
    <linearGradient id="linear-gradient-6" x1="-8374.65" y1="-1564.78" x2="-8385.88" y2="-1568.47" gradientTransform="translate(8590.95 281.53) rotate(11.95) scale(1 -1)" xlink:href="#linear-gradient-5"/>
    <linearGradient id="linear-gradient-7" x1="2302.11" y1="65.22" x2="2330.63" y2="65.22" gradientTransform="translate(2356.04 138.42) rotate(-180)" xlink:href="#linear-gradient-2"/>
    <linearGradient id="linear-gradient-8" x1="-2598.17" y1="9730.8" x2="-2598.17" y2="9712.36" gradientTransform="translate(9750.05 -2527.83) rotate(-90) scale(1 -1)" xlink:href="#linear-gradient-5"/>
    <linearGradient id="linear-gradient-9" x1="128.37" y1="101.59" x2="128.37" y2="32.9" gradientTransform="translate(0 138.42) scale(1 -1)" gradientUnits="userSpaceOnUse">
      <stop offset=".19" stop-color="#ff6a47"/>
      <stop offset="1" stop-color="#ff5532"/>
    </linearGradient>
    <linearGradient id="linear-gradient-10" x1="134.69" y1="98.83" x2="133.58" y2="71.18" gradientTransform="translate(0 138.42) scale(1 -1)" xlink:href="#linear-gradient-5"/>
    <linearGradient id="linear-gradient-11" x1="103.08" y1="86.64" x2="103.08" y2="91.51" gradientTransform="translate(.78 139.39) scale(1 -1)" xlink:href="#linear-gradient-5"/>
    <linearGradient id="linear-gradient-12" x1="627.92" y1="15.76" x2="620.2" y2="10.93" gradientTransform="translate(-516.08 -26.09) rotate(7.66) scale(1 -1)" xlink:href="#linear-gradient-5"/>
    <linearGradient id="linear-gradient-13" x1="-5804.21" y1="5009.66" x2="-5834.6" y2="5003.24" gradientTransform="translate(7776.07 -13.54) rotate(-41.38) scale(1 -1)" xlink:href="#linear-gradient-5"/>
    <linearGradient id="linear-gradient-14" x1="86.99" y1="66.92" x2="86.99" y2="35.91" xlink:href="#linear-gradient-2"/>
  </defs>
  <g id="Layer_1-2" data-name="Layer 1">
    <g class="cls-9">
      <g id="Layer_2-2" data-name="Layer 2">
        <g id="_Layer_" data-name=" Layer ">
          <path class="cls-1" d="M143.1,45.09c-3.11-16.17-14.86-31.09-30.54-36.67-7.73-2.75-16.33-3.08-24.25-.93-8.47,2.29-15.07,8.13-23,11.61-5.22,2.29-10.79,3.63-16.42,4.46-8.84,1.31-18.35,2.69-24.03,10.41-6.02,8.2-8,19.39-6.28,29.32,1.98,11.4,8.37,21.68,17.54,28.72,8.69,6.68,19.38,10.46,30.24,11.95,10.86,1.49,21.92.79,32.76-.82,6.89-1.03,13.77-2.44,20.16-5.21,20.46-8.91,27.83-32.05,23.84-52.84h0Z"/>
          <path class="cls-19" d="M160.59,33c0,11.55-9.37,20.92-20.92,20.92s-20.92-9.37-20.92-20.92,9.37-20.92,20.92-20.92v20.92h20.92Z"/>
          <path class="cls-32" d="M143.43,8.33v20.92h20.92c0-11.55-9.37-20.92-20.92-20.92Z"/>
          <path class="cls-16" d="M139.68,33V12.08c-11.55,0-20.92,9.37-20.92,20.92h20.92Z"/>
          <path class="cls-37" d="M68.27,32.09c-.04-.15-.14-.29-.27-.38-.25-.16-.58-.16-.87-.11s-.58.17-.88.2c.33-.46.67-.94.73-1.5.03-.31-.1-.7-.4-.74-.26-.03-.46.2-.6.41-.32.5-.56,1.07-.68,1.66-1.01-.71-2.24-1.08-3.47-1.04.08,0-.08-.83-.1-.91-.31-1.03-1.22-1.83-2.26-2.08-1.19-.28-2.49.21-3.37,1.01-.31.28-.52.82-.97.78-1.38-.12-2.83.81-3.29,2.14-.46,1.33.09,2.94,1.27,3.71.16.11.34.2.47.34.12.13.21.29.29.46,1.12,2.26,2.24,4.52,3.37,6.79h5.43c.34,0,.89.12,1.12-.13.25-.27.43-.68.6-.99.37-.68.69-1.38.96-2.11.75-2.06,1.03-4.3.81-6.48.6,0,1.2-.13,1.75-.39.12-.06.25-.13.33-.24.08-.12.1-.26.06-.4h0Z"/>
          <path class="cls-8" d="M45.77,55.46s-11.3,9.73-13.65,16.81h-7.54s-8.76,13.18-6.8,23.76c1.96,10.58,21.25,18.22,32.54,2.6l-4.54-43.16h0Z"/>
          <path class="cls-17" d="M32.77,96.31c-.11-.02-.16-.1-.14-.18,2.54-11.25-.61-23.7-.64-23.82-.02-.08.03-.16.11-.18.08-.02.16.03.18.11.03.13,3.2,12.64.65,23.96-.02.07-.08.11-.14.11h0Z"/>
          <path class="cls-2" d="M17.78,96.03c1.14,6.17,8.18,11.34,16.08,11.48.47-1.42.66-2.95.5-4.53-.61-5.98-5.95-10.33-11.93-9.72-1.78.18-3.41.79-4.81,1.7.04.36.1.71.16,1.07h0Z"/>
          <path class="cls-13" d="M20.12,91.21c-1-5.39.79-11.45,2.78-16.1-2.44,4.45-6.52,13.35-5.12,20.92,1.96,10.58,21.25,18.22,32.54,2.6l-.19-1.81c-11.42,11.51-28.18,4.22-30-5.6h0Z"/>
          <path class="cls-20" d="M45.77,55.46s-11.3,9.73-13.65,16.81h-7.54s-8.76,13.18-6.8,23.76c1.96,10.58,21.25,18.22,32.54,2.6l-4.54-43.16h0Z"/>
          <path class="cls-20" d="M85.64,63.41c-2.11-3.08-4.6-5.83-7.71-7.95-7.08-4.83-17.68-6.36-25.79-3.54-1.47.51-2.88,1.19-4.2,2.01-2.59,1.62-4.83,3.8-6.47,6.38-2.99,4.72-3.92,10.44-4.46,16.01-1.08,11.2-.86,22.48-.29,33.72h46.65c.07-2.49.19-4.98.19-4.98,2.99.55,6.26.17,9.08-.92,3.03-1.17,4.95-3.08,5.98-6.18.65-1.98,1.09-4.05,1.09-6.14,0-4.66-2.11-8.95-4-13.09-2.42-5.31-6.81-10.53-10.09-15.3h0Z"/>
          <path class="cls-15" d="M90.45,86.98s-.09-.02-.12-.06c-.03-.04-3.17-4.45-8.98-7.23-6.17-2.96-12.93-2.48-13-2.48-.08,0-.15-.05-.16-.13,0-.08.05-.15.13-.16.07,0,6.91-.49,13.15,2.51,5.88,2.82,9.06,7.28,9.09,7.33.05.07.03.16-.04.2-.03.02-.05.03-.08.03h0Z"/>
          <path class="cls-15" d="M72.09,77.29c-.08,0-.15-.07-.15-.15v-11.6c0-.08.07-.15.15-.15s.15.07.15.15v11.6c0,.08-.07.15-.15.15Z"/>
          <path class="cls-2" d="M99.72,92.09c-.28-.02-.55-.04-.84-.04-6.01,0-10.88,4.87-10.88,10.88,0,.78.09,1.54.25,2.27,1.52-.17,3.02-.53,4.41-1.07,3.03-1.17,4.95-3.08,5.98-6.18.62-1.89,1.05-3.86,1.09-5.86h0Z"/>
          <path class="cls-12" d="M92.65,104.13c3.03-1.17,4.95-3.08,5.98-6.18.65-1.98,1.09-4.05,1.09-6.14,0-4.66-2.11-8.95-4-13.09-1.2-2.64-2.9-5.26-4.7-7.82,2.83,6.99,7.39,19.6,2.83,25.53-5.49,7.15-18.77,10.44-29.2-15.32,0,0-.93,21.4,18.91,23.94,2.99.55,6.26.17,9.08-.92h0Z"/>
          <path class="cls-37" d="M56.04,47.54s.85-1.28,3.55-1.48,5.03.74,5.03.74l-6.28,3.7-2.3-2.96h0Z"/>
          <path class="cls-7" d="M63.71,42.84s0,8.79,0,8.79h-6.95v-9.26l5.56-.78s.03,1.15,1.38,1.25h0Z"/>
          <path class="cls-28" d="M65.24,37.46c-.74-.93-2.31-.92-3.52.03-.02.01-.03.03-.05.05-.48-.33-1.33-1.26-1.32-3.67,0,0-6.67-3.06-6.75,1.05-.03,1.64-.01,3.79-.01,6.01,0,1.73.38,4.24,1.59,5.18.97.74,4.03,1.12,5.32.07,1.83-1.5,1.84-4.52,1.84-4.52v-.07c.66.02,1.4-.21,2.04-.71,1.21-.95,1.59-2.48.86-3.41h0Z"/>
          <path class="cls-29" d="M57.73,39.76c.21.36.84.55,1.4.41.56-.14.84-.55.62-.91s-.84-.55-1.4-.41c-.56.14-.84.55-.62.91Z"/>
          <path class="cls-33" d="M54.62,37.01c-.13,0-.24.11-.24.24v.59c0,.13.11.24.24.24s.24-.11.24-.24v-.59c0-.13-.11-.24-.24-.24Z"/>
          <path class="cls-33" d="M58.1,37.01c-.13,0-.24.11-.24.24v.59c0,.13.11.24.24.24s.24-.11.24-.24v-.59c0-.13-.11-.24-.24-.24Z"/>
          <path class="cls-19" d="M56.04,47.54l2.21,2.5,6.37-3.24,1.9,4.26-4.9,4.19c-.34.28-.84.24-1.13-.09l-2.22-2.56-1.92,2.25c-.31.37-.91.21-1-.26l-.67-3.46,1.35-3.59h0Z"/>
          <path class="cls-4" d="M59.25,45.59c1.83-1.5,1.94-3.35,1.92-4.6-.01-.91-.15-3.01-.25-4.32.25.46.53.72.75.87.02-.01.03-.03.05-.05,1.21-.95,2.78-.96,3.52-.03s.35,2.46-.86,3.41c-.64.5-1.38.74-2.05.71v.07s0,3.02-1.83,4.52c-1.29,1.06-4.35.68-5.32-.06-.02-.01-.03-.02-.04-.04-.02-.02-.04-.03-.05-.04,1.32.34,3.22.33,4.16-.44h0Z"/>
          <path class="cls-14" d="M63.9,40.34c.95-.48,1.43-1.43,1.08-2.12-.35-.69-1.4-.86-2.35-.38-.95.48-1.43,1.43-1.08,2.12.35.69,1.4.86,2.35.38h0Z"/>
          <path class="cls-20" d="M52.6,110.24c-.08,0-.14-.06-.15-.14,0-.28-.26-27.62,1.04-37.29,1.28-9.46,4.47-19.68,4.64-20.23l-.02-2.54c0-.08.06-.15.14-.15.08,0,.15.06.15.14l.02,2.56s0,.03,0,.04c-.03.1-3.34,10.55-4.64,20.2-1.3,9.65-1.04,36.97-1.04,37.25,0,.08-.06.15-.14.15h0Z"/>
          <path class="cls-34" d="M55.58,40.87s-.04,0-.05-.01c-.61-.24-2.02-.85-2.02-1.31,0-.1,0-.31,1.78-1.56.05-.04.08-.09.08-.16.01-.61.02-.95.04-1.06,0-.08.07-.14.16-.13.08,0,.14.08.13.16,0,.07-.02.3-.03,1.03,0,.16-.08.3-.2.39-1.08.76-1.61,1.23-1.66,1.35.02.15.88.64,1.84,1.02.07.03.11.11.08.19-.02.06-.08.09-.13.09h0Z"/>
          <path class="cls-2" d="M51.5,58.63c-.1.6.18,1.15.64,1.23.45.08.9-.35,1.01-.95.1-.6-.18-1.15-.64-1.23-.45-.08-.9.35-1.01.95Z"/>
          <path class="cls-2" d="M47.56,87.82c0,.61.37,1.1.83,1.1s.83-.49.83-1.1-.37-1.1-.83-1.1-.83.49-.83,1.1Z"/>
          <path class="cls-2" d="M47.56,97.52c0,.61.37,1.1.83,1.1s.83-.49.83-1.1-.37-1.1-.83-1.1-.83.49-.83,1.1Z"/>
          <path class="cls-15" d="M83.57,105.2c-10.34-1.32-14.96-7.81-17.03-13.02-2.23-5.63-2.03-11.02-2.03-11.08,0-.08.07-.14.15-.14.09,0,.15.07.15.15,0,.05-.2,5.39,2.01,10.97,2.04,5.13,6.6,11.52,16.77,12.83.08,0,.14.08.13.16,0,.07-.07.13-.14.13h0Z"/>
          <path class="cls-19" d="M61.73,59.73c-.26,1.02-.78,1.58-1.57,2.23-.8.66-1.26,1.72-1.19,2.75.07,1.06.71,2.07,1.63,2.59,2.28,1.3,4.76-.68,5.55-2.81.13-.35.25-.71.43-1.04.51-.89,1.72-1.37,2.52-1.93,1.03-.72,1.9-1.69,1.98-3,.07-1.21-.42-2.45-1.3-3.28-2.14-2.04-6.06-1.18-7.31,1.46-.47.98-.5,2.06-.75,3.03h0Z"/>
          <path class="cls-38" d="M69.14,64.9c-.47.82-1.27,1.24-1.79.94-.52-.3-.56-1.2-.08-2.02.47-.82,1.27-1.24,1.79-.94.52.3.56,1.2.08,2.02Z"/>
          <path class="cls-2" d="M54.99,70.33l1.82,14.22c0,.7,2.1,1.26,4.69,1.26s4.69-.56,4.69-1.26l1.82-14.22h-13Z"/>
          <ellipse class="cls-2" cx="61.49" cy="70.33" rx="6.5" ry="1.26"/>
          <path class="cls-37" d="M55.94,70.98c1.14.36,3.2.61,5.56.61s4.41-.24,5.56-.61c-.4-.63-2.73-1.11-5.56-1.11s-5.15.48-5.56,1.11Z"/>
          <path class="cls-5" d="M68.92,80.98c.5-.33.96-.75,1.05-1.22.12-.64-.21-1.11-.5-1.38.23-.29.4-.67.45-1.15.16-1.75-2.43-2.96-2.43-2.96l-.32,2.47s-2.42.01-2.67,1.32c-.18.94.48,1.47.48,1.47,0,0-1.05.35-1.1,1.07-.05.69.53,1.1.53,1.1,0,0-.39.46-.41,1.07-.02.64.46,1.02,1.26,1.15.88.14,2.81.06,3.62-1.37.42-.74.27-1.25.03-1.58h0Z"/>
          <path class="cls-34" d="M65.81,79.73c-.49,0-.82-.06-.85-.06-.07-.01-.12-.08-.11-.15.01-.07.08-.12.15-.11.02,0,2.43.42,4.38-1.13.06-.05.14-.04.18.02.04.06.04.14-.02.18-1.33,1.06-2.82,1.25-3.74,1.25h0Z"/>
          <path class="cls-34" d="M65.34,81.87c-.52,0-.89-.03-.93-.03-.07,0-.13-.07-.12-.14,0-.07.07-.13.14-.12.03,0,3.03.24,4.42-.7.06-.04.14-.03.18.04.04.06.02.14-.04.18-.97.66-2.63.78-3.66.78h0Z"/>
          <path class="cls-37" d="M58.34,31.07l-3.97.41-1.04,1.94s.4,1.79,2.45,1.52c.47-.06.93-.24,1.3-.53.19-.14.35-.31.49-.5.1-.14.22-.54.46-.47.09.03.15.1.21.17.69.74,1.84.98,2.58.14.06-.07.6-.88.47-.96l-2.95-1.7h0Z"/>
          <path class="cls-22" d="M53.49,32.46c-.13-.02-.2-.11-.19-.22,0-.03.11-.76.74-1.18.44-.29,1.01-.35,1.7-.18.1.03.16.13.14.23-.03.1-.13.17-.23.14-.58-.15-1.04-.11-1.39.12-.48.32-.57.91-.57.92-.01.1-.1.16-.19.16h0Z"/>
          <path class="cls-22" d="M60.53,31.17c-.12,0-.2-.1-.19-.21,0-.04.06-.86-.81-1.19-.89-.34-1.74.55-1.75.56-.07.08-.19.08-.27,0-.08-.07-.08-.19,0-.27.04-.05,1.04-1.09,2.17-.66.91.35,1.09,1.19,1.06,1.58,0,.1-.09.17-.19.17h0Z"/>
          <path class="cls-38" d="M56.21,41.64s.05,0,.07,0c.08-.02.16-.06.23-.11.16-.09.35-.16.54-.16.36,0,.66.36.61.71-.05.36-.4.65-.71.81-.59.3-1.23.15-1.67-.35-.16-.18-.25-.43-.17-.66.05-.16.19-.29.35-.35.28-.1.5.12.76.11h0Z"/>
          <path class="cls-2" d="M49.48,68.11c-.02.61.33,1.11.79,1.13.46.02.85-.46.87-1.07s-.33-1.11-.79-1.13c-.46-.02-.85.46-.87,1.07Z"/>
          <path class="cls-2" d="M48.24,77.7c-.02.61.33,1.11.79,1.13.46.02.85-.46.87-1.07.02-.61-.33-1.11-.79-1.13-.46-.02-.85.46-.87,1.07Z"/>
          <rect class="cls-36" x="25.41" y="62.78" width="28.51" height="20.84" rx=".39" ry=".39"/>
          <path class="cls-38" d="M37.4,73.2c0,1.25,1.02,2.27,2.27,2.27s2.27-1.02,2.27-2.27-1.02-2.27-2.27-2.27-2.27,1.02-2.27,2.27Z"/>
          <rect class="cls-11" x="25.41" y="62.78" width="28.51" height="20.84" rx=".39" ry=".39"/>
          <path class="cls-3" d="M22.07,69.52c-.25,4.51,2.16,5.64,3.34,6.31v-2.89s2.41-.71,2.22-2.05c-.12-.86-1.24-.96-1.24-.96,0,0,1.56-.47,1.49-1.71-.05-.94-1.49-1.18-1.49-1.18,0,0,1.35-.45,1.35-1.48,0-1.49-5.4-.78-5.66,3.96h0Z"/>
          <path class="cls-34" d="M22.86,67.87s-.09-.02-.11-.07c-.04-.06-.01-.14.05-.18,1.94-1.08,3.56-.73,3.63-.71.07.02.12.09.1.16-.02.07-.09.12-.16.1-.02,0-1.59-.34-3.44.69-.02.01-.04.02-.06.02h0Z"/>
          <path class="cls-34" d="M22.97,70.88s-.08-.02-.11-.05c-.04-.06-.03-.14.03-.18,1.36-1.03,3.42-.86,3.51-.85.07,0,.13.07.12.14,0,.07-.07.13-.14.12-.02,0-2.05-.17-3.32.8-.02.02-.05.03-.08.03h0Z"/>
          <path class="cls-37" d="M109.12,44.07c.24.01.09,2.23.08,2.43-.03.81-.34,1.57.77,1.65.53.04,1.07.02,1.6.09.86.1,1.59.49,2.21,1.09.97.94,1.43,2.36,1.38,3.69-.08,2.24-1.49,4.43-3.9,4.39-2.01-.04-3.86-1.04-5.82-1.36v-12.13s3.68.15,3.69.15h0Z"/>
          <path class="cls-37" d="M109.63,34.87s-.32-2.13-3.25-2.89c-.25-.07-.42-.17-.71-.19-.37-.04-.74-.06-1.1-.07-2.18-.07-4.43.25-6.42,1.17-1.33.62-2.79,1.62-3.21,3.11-.31,1.12-.3,2.35-.29,3.5.01,1.23.13,2.4.31,3.62.01.11.03.22,0,.32-.12.35-.56.08-.78.03-.38-.09-.77-.1-1.15-.04-.73.12-1.15.65-1.37,1.32-.15.44-.15,1.89-.68,1.96-.2.03-.4-.05-.58-.13-2.26-.86-5.29-.54-6.69,1.64-.56.87-.81,1.91-1.04,2.92-.11.48-.08.98-.64,1.17-.3.1-.62.07-.94.08-5.22.09-6.64,8.11-3.8,11.49,1.1,1.31,2.74,1.94,4.4,2.15,8.02,1,19.37-4.48,19.37-4.48l-.7-5.15c3.66-1.48,4.02-8.01,2.19-17.31,0,0,5.66-4.43,7.1-4.21h0Z"/>
          <path class="cls-6" d="M111.81,52.05s10.67,5.52,16.42,17.39l1.66-17.29,7.16.7s7.88,17.89,7.88,30.28-19.18,17.08-31.96,8.6l-1.17-39.07v-.61h0Z"/>
          <path class="cls-31" d="M129.02,86.49c-.06,0-.12-.04-.14-.1-2.07-6.4-.81-16.86-.8-16.96.01-.08.08-.14.16-.13.08,0,.14.08.13.16-.01.1-1.27,10.5.79,16.84.02.08-.02.16-.09.18-.01,0-.03,0-.05,0h0Z"/>
          <path class="cls-2" d="M128.09,94.39c-.12.55-.2,1.09-.24,1.64,7.36-.09,13.99-3.24,16.25-8.67-.91-.53-1.92-.93-3-1.18-5.86-1.32-11.69,2.36-13.01,8.22h0Z"/>
          <path class="cls-15" d="M137.05,52.85l-7.16-.7-1.66,17.29c-5.75-11.86-16.42-17.39-16.42-17.39v.61l1.17,39.07c12.78,8.48,31.96,3.79,31.96-8.6s-7.88-30.28-7.88-30.28h0Z"/>
          <polygon class="cls-37" points="136.49 42.45 138.74 42.32 137.37 44.1 127.44 49.43 126.56 47.79 136.49 42.45"/>
          <rect class="cls-2" x="126.94" y="47.44" width=".98" height="1.87" transform="translate(-7.71 66.15) rotate(-28.28)"/>
          <path class="cls-2" d="M136.49,42.45l2.25-.13-1.37,1.78-.88-1.64h0Z"/>
          <path class="cls-23" d="M137.37,44.1l-1.71.92c.41-1.77-1.77-1.13-1.77-1.13l2.33-1.29s-1.14-.22-1.64-.18c-.75.07-1.63.52-2.78,1.21-1.15.69-1.86,2.35-1.86,2.35l3.3-1.77c-1.51,1-2.32,3.37-2.32,3.37l-.99.53-.03,4.05c2.29,2.8,7.16.7,7.16.7l1.17-4.47c1.52-1.46-.07-2.5-.07-2.5.03-1.42-.79-1.78-.79-1.78h0Z"/>
          <path class="cls-34" d="M136.62,49.82c-.11-.02-.16-.1-.14-.17.21-1.02.1-1.77-.33-2.23-.6-.65-1.65-.53-1.66-.53-.07,0-.13-.03-.16-.1-.02-.06,0-.14.06-.17.01,0,1.11-.7,1.17-1.98.01-.26-.06-.45-.21-.56-.39-.3-1.25-.11-1.55-.02-.07.02-.15-.01-.18-.08s0-.15.07-.19l2.46-1.33c.07-.04.16-.01.2.06s.01.16-.06.2l-1.68.9c.32-.01.67.03.92.22.23.18.34.45.33.81-.05.95-.58,1.6-.95,1.94.41.03,1.02.15,1.46.63.5.54.63,1.38.4,2.49-.01.07-.07.12-.14.12h0Z"/>
          <path class="cls-34" d="M135.87,47.16c-.05,0-.11-.03-.13-.08-.04-.07,0-.16.07-.19l2.29-1.14c.07-.04.16,0,.19.07s0,.16-.07.19l-2.29,1.14s-.04.01-.07.01Z"/>
          <path class="cls-34" d="M137.24,49.05c-.19,0-.38-.05-.59-.16-.07-.04-.1-.13-.06-.2.04-.07.13-.1.2-.06.74.41,1.29-.31,1.32-.35.05-.06.14-.08.2-.03.06.05.08.14.03.2-.18.24-.59.58-1.1.58h0Z"/>
          <path class="cls-37" d="M148.29,43.58c-.09,0-.18,0-.27-.01-.63-.06-1.22-.33-1.67-.75-.03.02-.05.03-.08.05-.55.33-1.11.53-1.65.6-.62.08-1.3-.01-2.03-.27l-.06-.02c-.24-.08-.51-.18-.76-.3-.4.18-.88.25-1.34.19-.63-.08-1.2-.34-1.76-.58-.07-.03-.11-.12-.07-.19.03-.07.12-.11.19-.07.54.24,1.1.48,1.68.56.33.04.67.01.98-.09-.18-.13-.33-.28-.45-.47-.18-.32-.19-.73-.02-1.06.17-.32.52-.55.89-.58.29-.02.56.08.72.27.15.18.22.44.18.74-.05.42-.26.79-.6,1.06-.03.02-.06.04-.09.07.18.08.37.14.54.2l.06.02c.69.24,1.33.32,1.9.25.5-.06,1.02-.25,1.54-.56,0-.04-.03-.07-.05-.1-.24-.31-.38-.66-.38-.99,0-.4.21-.77.52-.95.36-.2.83-.13,1.07.18.28.35.18.87-.04,1.22-.15.24-.36.46-.65.66.4.35.91.57,1.45.62.75.08,1.43-.23,2.18-.62.07-.04.16,0,.2.06.04.07,0,.16-.06.2-.7.36-1.35.66-2.08.66h0ZM141.96,40.87s-.04,0-.06,0c-.27.02-.52.19-.65.43s-.12.54.01.78c.12.2.3.36.52.48.08-.04.15-.09.22-.14.28-.22.45-.51.49-.86.01-.12.02-.36-.11-.51-.09-.11-.25-.17-.42-.17h0ZM146.66,40.77c-.1,0-.2.02-.29.07-.23.13-.37.4-.37.69,0,.27.11.55.31.8.03.04.06.07.09.1.27-.19.47-.39.61-.61.17-.27.25-.64.06-.89-.09-.12-.25-.18-.41-.18h0Z"/>
          <path class="cls-34" d="M133.18,44.37c-.05,0-.1-.03-.13-.08-.04-.07-.01-.16.06-.2l.57-.3c.07-.04.16-.01.2.06s.01.16-.06.2l-.57.3s-.05.02-.07.02h0Z"/>
          <path class="cls-15" d="M123.41,110.09s-2.82-28.62-2.87-31.73c-.06-3.11,1.91-14.03-2.15-20.04-4.07-6.01-7.02-7.56-14.72-7.31-4.66.16-9.35,1.6-13.47,3.73-4.14,2.14-7.25,5.54-9.93,9.29-3.03,4.23-6.03,8.79-7.85,13.69-2.59,7.01-4.35,20.84,6.65,24.08,1.19.35,2.4.58,3.61.69l-1.65,7.59h42.38,0Z"/>
          <path class="cls-22" d="M107.36,47.87s-3.49-2.02-7.5-.21l6.21,3.57,1.29-3.36Z"/>
          <polygon class="cls-24" points="101.05 41.08 101.05 51.37 106.68 51.37 106.68 45.14 101.05 41.08"/>
          <path class="cls-28" d="M102.08,41.47s.57,4.43,4.07,5.45c1.37.4,2.58,0,3.3-.71,1.13-1.09,1.27-3.2,1.18-4.58-.15-2.39-.65-5.61-1-6.76l-3.79-2.79s-2.26,6.17-3.31,7l-.45,2.39h0Z"/>
          <path class="cls-25" d="M107,45.63c-3.33-.97-4.34-4.64-4.59-5.86l-.32,1.7s.57,4.43,4.07,5.45c1.37.4,2.58,0,3.3-.71.25-.24.45-.54.61-.87-.81.45-1.89.63-3.07.28h0Z"/>
          <path class="cls-29" d="M105.73,40.14c-.09.65-.69,1.11-1.34,1.03-.65-.09-1.11-.69-1.03-1.34.09-.65.69-1.11,1.34-1.03.65.09,1.11.69,1.03,1.34Z"/>
          <path class="cls-29" d="M109.94,39.33c-.07.5.18.97.6,1.2-.06-.63-.14-1.28-.22-1.92-.2.18-.34.43-.38.72Z"/>
          <path class="cls-33" d="M105.2,38.79c-.13,0-.24-.11-.24-.24v-.59c0-.13.11-.24.24-.24s.24.11.24.24v.59c0,.13-.11.24-.24.24Z"/>
          <path class="cls-33" d="M108.65,38.79c-.13,0-.24-.11-.24-.24v-.59c0-.13.11-.24.24-.24s.24.11.24.24v.59c0,.13-.11.24-.24.24Z"/>
          <path class="cls-38" d="M113.74,58.17c.23.56.08,1.16-.35,1.34-.43.18-.96-.14-1.19-.7-.23-.56-.08-1.16.35-1.34.43-.18.96.14,1.19.7Z"/>
          <path class="cls-38" d="M115.87,65.82c.15.59-.1,1.16-.54,1.27-.45.11-.93-.28-1.08-.87s.1-1.16.54-1.27c.45-.11.93.28,1.08.87Z"/>
          <path class="cls-38" d="M116.03,73.73c-.14.59-.61.99-1.06.88s-.7-.67-.56-1.26c.14-.59.61-.99,1.06-.88s.7.67.56,1.26Z"/>
          <path class="cls-38" d="M115.89,80.69c0,.61-.37,1.1-.83,1.1s-.83-.49-.83-1.1.37-1.1.83-1.1.83.49.83,1.1Z"/>
          <path class="cls-38" d="M107.36,47.87l1.68,5.46c.09.28-.19.53-.46.4l-2.33-1.16-.83,2.38c-.16.45-.68.64-1.09.41l-6.05-3.59,1.58-4.11,5.84,2.97,1.66-2.76h0Z"/>
          <path class="cls-20" d="M80.38,85.39s-.07-.01-.1-.04c-.06-.05-.06-.15,0-.21.04-.04,3.68-3.98,7.93-7.32,3.79-2.98,9.96-5.67,10.02-5.69.07-.03.16,0,.19.08.03.07,0,.16-.08.19-.06.03-6.2,2.7-9.96,5.65-4.23,3.32-7.86,7.25-7.9,7.29-.03.03-.07.05-.11.05h0Z"/>
          <path class="cls-34" d="M108.33,41.4s-.08-.02-.11-.05c-.05-.06-.05-.15.02-.21.68-.58,1.42-1.26,1.63-1.52-.13-.03-.42-.06-1.13-.06-.31,0-.57-.24-.59-.55l-.1-1.29c0-.08.05-.15.13-.16.09,0,.15.05.16.13l.1,1.29c.01.16.16.28.3.28,1.25,0,1.36.11,1.42.17.03.03.06.1.06.13,0,.07,0,.27-1.78,1.79-.03.02-.06.04-.09.04h0Z"/>
          <path class="cls-21" d="M99.54,38.21c-1.06-.15-2.06.26-2.48,1.12-.55,1.12.1,2.57,1.46,3.25.39.19.79.29,1.18.32-.17-1.65-.17-3.61-.16-4.68h0Z"/>
          <path class="cls-14" d="M99.64,42.2c-.08-1.11-.1-2.27-.1-3.18-.87-.06-1.62.26-1.84.88-.28.81.45,1.8,1.64,2.21.1.03.2.06.3.09Z"/>
          <path class="cls-20" d="M95.63,73.71c-.11-.02-.16-.1-.14-.18l2.65-10.78c.02-.08.1-.13.18-.11.08.02.13.1.11.18l-2.65,10.78c-.02.07-.08.11-.14.11Z"/>
          <path class="cls-26" d="M103.92,67.41c-1.25.53-5.81,4.83-5.81,4.83,0,0,1.97,4.21,5.38,4.45l3.63-3.4s2.4-1.11,2.04-2.23c-.16-.5-.56-.66-.95-.69.21-.28.41-.65.3-.98-.12-.36-.54-.53-.86-.6.9-.38,2.98-1.4,2.55-2.46-.54-1.34-5.05.54-6.29,1.08h0Z"/>
          <path class="cls-34" d="M106.54,69.28s-.08-.02-.11-.05c-.05-.06-.05-.15.01-.2.03-.02.29-.24,1.2-.37.09-.01.15.04.17.12s-.04.15-.12.16c-.82.12-1.05.3-1.05.3-.03.02-.06.03-.09.03h0Z"/>
          <path class="cls-34" d="M107.13,73.44c-.05,0-.11-.03-.13-.08-.12-.24-.12-.46-.02-.66.24-.45.98-.56,1.01-.57.08-.01.15.04.17.12.01.08-.04.15-.12.17-.17.03-.66.15-.8.42-.06.11-.05.24.02.39.04.07,0,.16-.07.19-.02,0-.04.01-.06.01h0Z"/>
          <path class="cls-34" d="M107.1,70.86c-.05,0-.1-.03-.13-.07-.04-.07-.02-.16.05-.2.74-.43,1.2-.36,1.22-.36.08.01.13.09.12.17-.01.08-.08.13-.17.12-.01,0-.4-.05-1.03.32-.02.01-.05.02-.07.02h0Z"/>
          <path class="cls-30" d="M84.53,102.39c.22-1.1.27-2.25.12-3.42-.75-5.96-6.2-10.18-12.16-9.43-.68.09-1.34.23-1.96.44.36,5.21,2.57,10.08,8.54,11.84,1.19.35,2.4.58,3.61.69v.07c.59-.04,1.22-.1,1.85-.19h0Z"/>
          <path class="cls-10" d="M103.5,76.69s-3.65,10.57-10.41,16.6c-6.76,6.03-14.54,4.92-18.36-.99-2.71-4.19-.73-14.9.65-20.8-1.15,2.01-2.17,4.08-2.96,6.23-2.59,7.01-4.35,20.84,6.65,24.08,1.19.35,2.4.58,3.61.69,18.04.38,20.82-25.81,20.82-25.81h0Z"/>
          <path class="cls-20" d="M83.05,102.65c-.13,0-.25,0-.38,0-.08,0-.14-.07-.14-.15s.08-.14.15-.14c.13,0,.25,0,.37,0,9,0,14.03-6.87,16.66-12.68,2.91-6.41,3.63-12.94,3.64-13.01,0-.08.07-.14.16-.13.08,0,.14.08.13.16,0,.07-.73,6.65-3.66,13.09-3.82,8.42-9.67,12.85-16.94,12.85h0Z"/>
          <path class="cls-37" d="M99.7,44.95l-5.76,6.04-4.86,2.5s1.21,4.53,4.86,4.86c1.1.1,2.25-.14,3.23-.73.52-.31.99-.71,1.41-1.14,1.68-1.7,4.43,1.38,5.76-1.13,1.18-2.23-1.7-6.3-1.7-6.3l-.1-9.98-3.02-1.36.18,7.23h0Z"/>
          <path class="cls-37" d="M109.63,34.87s-2.18-2.64-3.79-2.79-3.32,5.46-3.31,7c0,0,2.92-2.05,3.54-5.28,0,0,.85,2.09,1.46,1.7s-.86-2.09-.86-2.09c0,0,2.09,1.59,2.96,1.47h0Z"/>
          <path class="cls-37" d="M107.82,42.03s-.05,0-.07,0c-.08-.02-.16-.06-.23-.11-.17-.09-.35-.16-.54-.16-.36,0-.66.36-.61.71.05.36.4.65.71.81.59.3,1.23.15,1.67-.35.16-.18.25-.43.17-.66-.05-.16-.19-.29-.35-.35-.28-.1-.5.12-.76.11h0Z"/>
          <path class="cls-22" d="M101.05,36.59c-.07,0-.14-.04-.17-.11-.05-.1,0-.21.09-.26,1.75-.82,2.51-3.03,2.52-3.05.03-.1.14-.15.24-.12.1.03.15.14.12.24-.03.1-.82,2.39-2.72,3.28-.03.01-.05.02-.08.02h0Z"/>
          <path class="cls-22" d="M79.51,61.63c-.08,0-.15-.05-.18-.13-.04-.11-.93-2.74.87-4.67.83-.89,1.81-1.01,2.84-1.13.17-.02.35-.04.53-.07,1.09-.15,1.58-.91,1.64-2.54.06-1.6.15-4.01,2.36-4.42.65-.12,1.31.02,1.88.16l.17.04c.52.13,1.04.26,1.57.24.77-.03,1.37-.47,1.57-1.13.05-.17.08-.35.11-.55.07-.48.16-1.03.67-1.38.64-.43,1.17-.28,1.59-.17.37.1.59.15.83-.02.62-.45.71-1.61.71-1.62,0-.1.1-.19.2-.18.11,0,.19.1.18.2,0,.05-.1,1.36-.87,1.91-.4.28-.78.18-1.15.08-.4-.11-.79-.21-1.28.12-.37.25-.43.65-.5,1.12-.03.2-.06.4-.12.6-.24.81-1,1.37-1.92,1.4-.57.02-1.14-.12-1.68-.25l-.17-.04c-.56-.14-1.15-.26-1.72-.16-1.76.33-1.97,2.1-2.04,4.05-.04,1.14-.29,2.68-1.97,2.91-.18.02-.36.05-.54.07-1,.11-1.87.21-2.6,1.01-1.64,1.76-.79,4.26-.79,4.28.03.1-.02.21-.12.24-.02,0-.04.01-.06.01h0Z"/>
          <path class="cls-22" d="M97.64,36.86c-.12,0-.2-.1-.19-.21.14-1.6,1.01-2.6,1.04-2.64.07-.08.19-.09.27-.02.08.07.09.19.02.27,0,0-.82.96-.95,2.42,0,.1-.09.17-.19.17h0Z"/>
          <path class="cls-22" d="M97.08,54.42c-.37,0-.76-.05-1.14-.15-.1-.03-.16-.13-.13-.23.03-.1.13-.16.23-.13,1.01.27,2.03.14,2.8-.35,1.08-.69,1.47-1.94,1.61-2.63.19-.94.17-1.93.15-2.89v-.37c-.01-.11.07-.19.18-.19.11,0,.19.08.19.19v.37c.03.98.06,2-.15,2.98-.26,1.28-.9,2.3-1.78,2.87-.56.36-1.25.55-1.97.55h0Z"/>
          <path class="cls-29" d="M106.84,42.04c-.12-.02-.24-.01-.36,0-.08.12-.13.27-.11.43.05.36.4.65.71.81.26.13.52.17.77.14.09-.69-.37-1.29-1.02-1.38h0Z"/>
          <path class="cls-2" d="M160.87,65.63c0-.13-.05-.19-.17-.23-.36-.12-.72-.25-1.08-.4-.08-.03-.16-.13-.2-.21-.15-.34-.28-.69-.41-1.04-.03-.07-.03-.17,0-.23.17-.39.37-.77.54-1.16.03-.06.01-.17-.03-.22-.29-.31-.6-.61-.89-.92-.08-.08-.14-.09-.24-.04-.37.18-.74.36-1.12.53-.07.03-.18.04-.25.01-.36-.13-.71-.27-1.07-.42-.08-.03-.17-.11-.2-.19-.15-.36-.28-.73-.4-1.1-.04-.12-.09-.18-.23-.17-.41.01-.83,0-1.24,0-.13,0-.19.05-.23.17-.12.36-.26.72-.39,1.08-.04.12-.11.18-.23.22-.34.12-.68.25-1,.4-.12.06-.21.05-.32,0-.36-.18-.73-.35-1.09-.53-.11-.05-.18-.04-.26.04-.28.3-.58.59-.88.87-.1.1-.09.17-.04.28.18.36.35.73.52,1.1.03.07.03.19,0,.27-.15.35-.31.7-.48,1.04-.04.08-.12.17-.21.21-.38.15-.77.28-1.17.4-.12.04-.17.09-.17.23,0,.41,0,.83,0,1.24,0,.12.04.18.15.22.4.13.8.26,1.19.41.08.03.16.13.2.21.16.33.29.68.45,1.01.07.13.07.23,0,.36-.17.34-.33.69-.5,1.04-.06.11-.05.19.04.28.3.28.59.58.87.87.09.1.17.09.28.04.36-.18.72-.34,1.07-.52.11-.06.2-.05.32,0,.34.17.7.31,1.04.47.07.03.15.11.18.18.15.39.28.79.41,1.19.04.11.09.16.22.16.41,0,.83,0,1.24,0,.13,0,.19-.05.23-.17.13-.39.26-.78.41-1.17.03-.08.12-.16.2-.2.35-.17.71-.32,1.07-.46.07-.03.18-.04.25,0,.42.19.84.39,1.27.59.34-.34.68-.68,1-1.03.04-.04.05-.16.02-.22-.17-.38-.35-.74-.52-1.12-.03-.07-.04-.17-.02-.24.13-.37.26-.73.41-1.09.03-.08.11-.16.19-.2.36-.15.73-.28,1.1-.41.11-.04.15-.1.15-.22,0-.41,0-.83,0-1.24h0ZM154.5,68.65c-1.34,0-2.41-1.07-2.41-2.41,0-1.35,1.07-2.41,2.43-2.41,1.32,0,2.39,1.09,2.39,2.41s-1.08,2.41-2.41,2.41h0Z"/>
          <path class="cls-19" d="M88.1,27.41c0-.16-.06-.23-.21-.28-.44-.15-.89-.31-1.32-.49-.1-.04-.2-.16-.25-.26-.18-.42-.35-.85-.51-1.28-.03-.09-.04-.21,0-.29.21-.48.45-.95.66-1.42.03-.07.01-.21-.04-.26-.36-.38-.74-.75-1.1-1.13-.1-.1-.17-.11-.3-.05-.45.22-.91.44-1.37.65-.09.04-.22.05-.31.01-.44-.16-.88-.33-1.31-.51-.1-.04-.21-.13-.25-.23-.18-.44-.34-.89-.5-1.35-.05-.14-.11-.22-.28-.21-.51.01-1.01.01-1.52,0-.17,0-.23.06-.28.21-.15.44-.32.88-.48,1.33-.05.15-.13.22-.28.27-.42.14-.83.31-1.23.49-.15.07-.25.07-.39,0-.44-.22-.9-.43-1.34-.65-.13-.07-.22-.05-.32.06-.35.37-.71.73-1.07,1.07-.12.12-.11.21-.05.34.22.44.44.89.64,1.35.04.09.03.23,0,.33-.18.43-.38.86-.59,1.28-.05.1-.15.21-.26.25-.47.18-.95.34-1.43.5-.15.05-.21.11-.21.28.01.51,0,1.01,0,1.52,0,.15.05.22.19.26.49.16.98.32,1.46.5.1.04.2.16.25.26.19.41.35.83.56,1.23.08.16.09.29,0,.44-.21.42-.4.85-.61,1.27-.07.14-.07.23.05.34.37.35.73.71,1.07,1.07.12.12.21.12.34.05.44-.22.88-.42,1.32-.63.14-.07.25-.06.39,0,.42.21.86.38,1.28.58.09.04.18.14.22.23.18.48.35.97.51,1.46.05.14.12.19.27.19.51,0,1.01,0,1.52,0,.16,0,.23-.06.28-.21.15-.48.32-.96.5-1.43.04-.1.14-.19.24-.24.43-.2.87-.39,1.31-.57.09-.04.22-.05.31,0,.52.23,1.03.48,1.56.73.42-.42.83-.83,1.23-1.26.05-.05.06-.19.02-.27-.21-.46-.43-.91-.64-1.37-.04-.08-.05-.21-.02-.29.16-.45.32-.9.5-1.34.04-.1.14-.2.24-.24.44-.18.89-.34,1.35-.5.14-.05.19-.12.19-.27,0-.51,0-1.01,0-1.52h0ZM80.27,31.13c-1.64,0-2.96-1.32-2.96-2.96,0-1.65,1.32-2.96,2.99-2.96,1.62,0,2.93,1.33,2.93,2.96,0,1.64-1.32,2.96-2.96,2.96h0Z"/>
          <path class="cls-37" d="M103.73,2.17c.03,1.17,1,2.09,2.17,2.06s2.09-1,2.06-2.17S106.96-.03,105.79,0c-1.17.03-2.09,1-2.06,2.17h0Z"/>
          <polygon class="cls-2" points="36.72 13.25 39.34 9.14 41.95 13.25 36.72 13.25"/>
          <path class="cls-16" d="M41.81,19.45h-25.15c-1.43,0-2.58,1.16-2.58,2.58v5.51c0,1.43,1.16,2.58,2.58,2.58h2.87c.22.24.55.85-.14,1.91,0,0,1.7.05,2.86-1.91h19.56c1.43,0,2.58-1.16,2.58-2.58v-5.51c0-1.43-1.16-2.58-2.58-2.58Z"/>
          <rect class="cls-38" x="24.51" y="22.47" width="14.73" height="1.38"/>
          <rect class="cls-38" x="24.51" y="25.55" width="14.73" height="1.38"/>
          <path class="cls-2" d="M22.28,24.7c0,1.37-1.11,2.48-2.48,2.48s-2.48-1.11-2.48-2.48,1.11-2.48,2.48-2.48,2.48,1.11,2.48,2.48h0Z"/>
          <path class="cls-18" d="M3.97,36.72h38.63c2.19,0,3.97,1.78,3.97,3.97v8.46c0,2.19-1.78,3.97-3.97,3.97h-4.41c-.33.37-.84,1.3.21,2.93,0,0-2.62.07-4.4-2.93H3.97c-2.19,0-3.97-1.78-3.97-3.97v-8.46c0-2.19,1.78-3.97,3.97-3.97Z"/>
          <circle class="cls-2" cx="23.28" cy="44.7" r="2.69"/>
          <circle class="cls-30" cx="12.07" cy="44.69" r="2.69"/>
          <circle class="cls-27" cx="34.5" cy="44.69" r="2.69"/>
          <path class="cls-35" d="M16.75,64.93c0-.12-.04-.17-.15-.21-.32-.11-.64-.23-.96-.36-.07-.03-.15-.11-.18-.19-.13-.31-.25-.62-.37-.93-.02-.06-.03-.15,0-.21.16-.35.33-.68.48-1.03.02-.05.01-.15-.03-.19-.26-.28-.53-.54-.8-.82-.07-.07-.13-.08-.22-.04-.33.16-.66.32-.99.47-.07.03-.16.03-.23.01-.32-.11-.64-.24-.95-.37-.07-.03-.15-.1-.18-.16-.13-.32-.25-.65-.36-.98-.04-.1-.08-.16-.2-.15-.37,0-.74,0-1.1,0-.12,0-.17.04-.2.15-.11.32-.24.64-.35.96-.04.11-.1.16-.21.2-.3.1-.6.22-.89.36-.11.05-.18.05-.28,0-.32-.16-.65-.31-.97-.47-.1-.05-.16-.04-.23.04-.25.26-.51.53-.78.78-.09.08-.08.15-.03.25.16.32.32.65.46.98.03.07.02.17,0,.24-.13.31-.28.62-.43.93-.04.07-.11.16-.19.18-.34.13-.69.25-1.04.36-.11.04-.16.08-.15.2,0,.37,0,.74,0,1.1,0,.11.03.16.14.19.35.11.71.23,1.06.37.08.03.14.11.18.19.14.3.26.6.4.89.06.12.06.21,0,.32-.15.31-.29.62-.44.92-.05.1-.05.17.04.25.27.25.53.51.78.78.08.09.15.08.25.04.32-.16.64-.3.96-.46.1-.05.18-.04.28,0,.3.15.62.27.93.42.06.03.13.1.16.16.13.35.25.7.37,1.06.03.1.08.14.19.14.37,0,.74,0,1.1,0,.12,0,.17-.04.2-.15.11-.35.23-.7.36-1.04.03-.07.1-.14.17-.17.31-.15.63-.28.95-.41.07-.03.16-.03.23,0,.38.17.74.35,1.13.53.3-.31.6-.61.89-.91.04-.04.04-.14.02-.19-.15-.33-.32-.66-.47-1-.03-.06-.04-.15-.02-.21.11-.33.23-.65.37-.97.03-.07.1-.15.17-.17.32-.13.65-.25.98-.36.1-.04.14-.09.14-.19,0-.37,0-.73,0-1.1h0ZM11.08,67.63c-1.19,0-2.14-.96-2.14-2.15s.96-2.15,2.17-2.14c1.17,0,2.13.97,2.13,2.15s-.96,2.14-2.15,2.14Z"/>
          <rect class="cls-30" x="92.65" y="80.74" width="48.9" height="33.62" rx=".99" ry=".99"/>
          <rect class="cls-37" x="96.23" y="84.32" width="41.74" height="26.46" rx=".39" ry=".39"/>
          <rect class="cls-16" x="123.71" y="87.62" width="5.65" height="17.61"/>
          <rect class="cls-2" x="114.35" y="94.36" width="5.65" height="10.87"/>
          <rect class="cls-38" x="105.08" y="98.2" width="5.65" height="7.03"/>
          <circle class="cls-27" cx="140.39" cy="81.5" r="9.39"/>
          <path class="cls-38" d="M138.89,86.34c-.43,0-.83-.17-1.13-.48l-3.14-3.27c-.6-.62-.58-1.61.05-2.21.62-.6,1.61-.58,2.21.05l2,2.09,5.04-5.35c.59-.63,1.58-.66,2.21-.07s.66,1.58.07,2.21l-6.16,6.55c-.29.31-.7.49-1.13.49h0Z"/>
        </g>
      </g>
    </g>
  </g>
</svg>