<?xml version="1.0" encoding="UTF-8"?>
<svg id="Layer_2" data-name="Layer 2" xmlns="http://www.w3.org/2000/svg" viewBox="0 0 409.47 74.6">
  <defs>
    <style>
      .cls-1 {
        fill: #00a76e;
      }
    </style>
  </defs>
  <g id="Layer_1-2" data-name="Layer 1">
    <g>
      <path class="cls-1" d="M3.3,49.17c-2.41,0-3.3-2.24-3.3-3.98,0-2.63,2.86-3.36,4.59-3.36,2.18,0,3.08,1.4,3.08,3.25,0,2.41-2.18,4.09-4.37,4.09Z"/>
      <path class="cls-1" d="M12.99,41.61c0-6.94,5.99-17.7,13.5-20.44.84-.11,2.07-.56,2.97-.56,2.97,0,3.86,2.58,3.64,5.1,0,.39-.22.95-.28,1.34-.45,2.46-1.01,6.83-4.54,7.45-.06,0-.22.11-.28.11-1.34,0-2.24-1.85-2.13-3.02.17-1.85,1.62-3.36,1.74-4.82.06-.17-.17-.28-.34-.28-.22,0-.28,0-.5.17-4.2,2.52-7.11,7.9-8.18,11.93-.5,1.9-1.29,5.66,1.96,5.66,4.2,0,9.58-3.19,12.49-6.61l2.18-2.58c.5-.73.67-.95,1.46-1.06,1.29,0,1.18.78,1.18,1.9,0,.34-.06.73-.17,1.18-1.68,4.37-11.2,12.49-18.03,12.49h-.78c-4.42-1.06-5.88-3.92-5.88-7.95Z"/>
      <path class="cls-1" d="M35.67,33.15c.17-.17,1.51-1.96,1.62-2.18.06-.11.67-.9.67-1.01l4.09-2.3c0-.11.28-.28.34-.34.34-.34,1.85-2.3,3.25-3.64.78-.78,3.92-2.07,5.94-1.96.9,0,1.4,0,2.18.84,1.62,1.29,2.86,4.2,3.02,6.61.17,1.85-.34,3.98-.67,5.54,0,.22-1.51,3.14-1.57,3.42,1.51,0,3.92-.39,5.21-1.01,1.46-.5,3.7-2.74,4.14-3.98.06,0,1.51-.73,1.51-.73.78,0,1.29,1.46,1.4,2.02-.06,3.36-3.86,6.5-7.34,7.67-2.46.84-5.94,1.01-7.5,1.12-3.58,4.14-5.88,7.78-13.61,7.73h-1.29c-2.58-1.74-4.82-3.36-4.98-5.99-.34-3.75,1.68-8.57,3.58-11.82ZM38.92,46.2c3.02,0,5.26-1.85,7-3.42-.28-.39-1.06-.34-1.46-.56-2.97-1.06-4.31-2.52-4.48-5.1-.06-.62.5-1.23.45-2.02v-.11c-2.02,1.18-4.03,6.83-3.47,9.8.06.62,1.23,1.4,1.96,1.4ZM48.83,38.25c2.63-1.06,3.14-6.83,2.97-8.62,0-.62-.45-1.57-1.29-1.62-1.68,0-3.98,1.62-4.87,2.97-.84,1.29-1.9,4.14-1.29,5.71.45,1.12,3.53,1.79,4.48,1.57Z"/>
      <path class="cls-1" d="M69.1,41.66c.84-1.34,1.29-3.64,2.02-4.59,1.34-2.74,4.42-9.63,2.24-9.97-1.12.22-3.81,3.42-4.42,4.7-1.34,2.02-4.37,7-5.94,8.01-1.12.73-1.34.84-2.02.5-.62-.28-.73-1.4-.84-2.86,0-.22,2.02-3.19,2.97-4.59.84-1.23,1.79-2.74,2.91-4.54,2.02-3.19,5.77-6.61,9.41-6.61,2.52,0,3.3,2.24,3.3,4.42-.06.11-.84,4.37-.78,4.42l1.34-1.74,3.47-3.7c1.51-1.01,3.3-3.02,5.38-3.02,2.35,0,4.54,2.02,4.37,4.59l-.22,1.57c-1.23,3.47-2.69,7.34-4.37,11.93-.34.95-.34,3.47.78,3.58,1.46-.11,5.26-4.09,6.1-5.77.11-.22,2.69-4.54,4.26-4.93,1.46,0,2.13.56,2.13,1.29,0,.28-.17.56-.22.84l-.39,1.4c-.78,2.86-3.92,6.38-5.88,8.62-1.51,1.29-4.59,4.26-7.45,4.26-2.46,0-4.42-3.08-4.42-4.2,0-.34.11-.84.11-1.12l-.06-1.51c-.06-.95,0-2.18.34-3.19l.56-1.74c.5-1.62.95-2.46,1.68-4.2.9-2.07,1.51-4.7.28-4.54-.84.11-2.86,2.18-3.47,3.02-1.06,1.34-1.34,1.01-4.98,6.94l-1.12,2.18c-.22.39-.56.45-3.02,4.7-.84.78-1.79,3.98-3.7,3.98-1.51,0-2.35-1.23-2.63-2.69.28-1.9,1.51-3.7,2.3-5.49Z"/>
      <path class="cls-1" d="M100.85,28.28c.62-1.46,3.19-6.1,4.31-7.56l-3.75-.06h.11c.17,0-3.36-.67-3.58-2.07.06-1.06,1.4-2.24,1.74-2.8.34.17.56-.5,2.97-.45h3.02c1.18,0,2.41-.06,2.97-1.18l2.07-2.97c.45-.73,1.68-2.91,2.24-3.75,1.62-2.24,2.74-3.98,4.26-5.32l1.4-1.23c.39-.39,1.29-.9,1.79-.9.56,0,2.02,2.07,2.02,3.19,0,1.57-1.62,2.8-2.63,3.92-.95,1.12-5.88,7.73-5.88,7.95l4.42.17c.78-.22,3.75-.11,5.66-.11.95.28,2.35,1.23,2.35,2.13,0,1.57-1.62,2.74-3.7,3.08-3.25.56-8.57-.17-11.65.5-1.4,1.51-7.28,12.6-8.57,15.9-1.79,3.64-1.79,4.09-1.85,6.27,0,.39.17,1.29,1.51,1.29.45,0,1.34-.11,3.47-1.23,1.62-.5,7.84-5.88,8.46-6.72l.34-.5c.62-.5,1.34-1.23,1.96-1.23.45,0,1.51-.45,1.9-.17.45.34.34,1.29.34,1.96-.06,1.4-3.64,5.54-4.98,6.94-3.14,3.7-8.85,6.5-12.88,6.5-3.3,0-5.99-2.86-5.94-5.82.06-4.76,4.09-11.7,6.1-15.74Z"/>
      <path class="cls-1" d="M112.56,41.83c.56-7.06,2.46-11.93,8.06-17.86,2.86-2.86,7.45-4.48,11.7-4.37,3.08.06,4.03,4.54,3.75,6.27-.39,3.02-1.34,5.15-3.36,7.73-1.79,2.35-8.34,7.06-13.1,7.06h-1.68c-.62,1.06,0,3.92,1.85,4.42,2.13.11,4.2,0,7.22-1.9,3.47-2.07,7.73-7.06,9.97-7.28.9,0,1.18.9,1.12,1.46-.17,2.74-4.93,7.45-10.14,10.3-3.36,1.85-6.83,2.13-9.35,2.13-2.02-.06-6.5-3.47-6.05-7.95ZM129.41,29.9c1.06-1.29,1.9-3.92.67-5.04-2.24-.73-6.16,1.9-7.78,4.37-1.4,2.02-3.02,4.54-3.42,7h.06c3.81-.5,9.02-3.86,10.47-6.33Z"/>
      <path class="cls-1" d="M143.36,41.66c.84-1.34,1.29-3.64,2.02-4.59,1.34-2.74,4.42-9.63,2.24-9.97-1.12.22-3.81,3.42-4.42,4.7-1.34,2.02-4.37,7-5.94,8.01-1.12.73-1.34.84-2.02.5-.62-.28-.73-1.4-.84-2.86,0-.22,2.02-3.19,2.97-4.59.84-1.23,1.79-2.74,2.91-4.54,2.02-3.19,5.77-6.61,9.41-6.61,2.52,0,3.3,2.24,3.3,4.42-.06.11-.84,4.37-.78,4.42l1.34-1.74,3.47-3.7c1.51-1.01,3.3-3.02,5.38-3.02,2.35,0,4.54,2.02,4.37,4.59l-.22,1.57c-1.23,3.47-2.69,7.34-4.37,11.93-.34.95-.34,3.47.78,3.58,1.46-.11,5.26-4.09,6.1-5.77.11-.22,2.69-4.54,4.26-4.93,1.46,0,2.13.56,2.13,1.29,0,.28-.17.56-.22.84l-.39,1.4c-.78,2.86-3.92,6.38-5.88,8.62-1.51,1.29-4.59,4.26-7.45,4.26-2.46,0-4.42-3.08-4.42-4.2,0-.34.11-.84.11-1.12l-.06-1.51c-.06-.95,0-2.18.34-3.19l.56-1.74c.5-1.62.95-2.46,1.68-4.2.9-2.07,1.51-4.7.28-4.54-.84.11-2.86,2.18-3.47,3.02-1.06,1.34-1.34,1.01-4.98,6.94l-1.12,2.18c-.22.39-.56.45-3.02,4.7-.84.78-1.79,3.98-3.7,3.98-1.51,0-2.35-1.23-2.63-2.69.28-1.9,1.51-3.7,2.3-5.49Z"/>
      <path class="cls-1" d="M175.11,28.28c.62-1.46,3.19-6.1,4.31-7.56l-3.75-.06h.11c.17,0-3.36-.67-3.58-2.07.06-1.06,1.4-2.24,1.74-2.8.34.17.56-.5,2.97-.45h3.02c1.18,0,2.41-.06,2.97-1.18l2.07-2.97c.45-.73,1.68-2.91,2.24-3.75,1.62-2.24,2.74-3.98,4.26-5.32l1.4-1.23c.39-.39,1.29-.9,1.79-.9.56,0,2.02,2.07,2.02,3.19,0,1.57-1.62,2.8-2.63,3.92-.95,1.12-5.88,7.73-5.88,7.95l4.42.17c.78-.22,3.75-.11,5.66-.11.95.28,2.35,1.23,2.35,2.13,0,1.57-1.62,2.74-3.7,3.08-3.25.56-8.57-.17-11.65.5-1.4,1.51-7.28,12.6-8.57,15.9-1.79,3.64-1.79,4.09-1.85,6.27,0,.39.17,1.29,1.51,1.29.45,0,1.34-.11,3.47-1.23,1.62-.5,7.84-5.88,8.46-6.72l.34-.5c.62-.5,1.34-1.23,1.96-1.23.45,0,1.51-.45,1.9-.17.45.34.34,1.29.34,1.96-.06,1.4-3.64,5.54-4.98,6.94-3.14,3.7-8.85,6.5-12.88,6.5-3.3,0-5.99-2.86-5.94-5.82.06-4.76,4.09-11.7,6.1-15.74Z"/>
      <path class="cls-1" d="M208.71,41.66c.73-1.18,1.18-3.08,1.74-4.2.5-1.46.95-2.3,1.62-3.92.9-2.07,1.51-4.7.28-4.54-.84.11-2.86,2.18-3.47,3.02-1.06,1.34-1.34,1.01-4.98,6.94l-1.12,2.18c-.22.39-.56.45-3.02,4.7-.84.78-1.79,3.98-3.7,3.98-1.51,0-2.35-1.23-2.63-2.69.28-1.9,1.51-3.7,2.3-5.49.84-1.34,1.29-3.64,2.02-4.59,1.34-2.74,4.42-9.63,2.24-9.97-1.12.22-4.59,5.43-4.76,5.43-1.51,1.96-4.37,7.28-6.38,7.28-.67,0-1.34-.78-1.46-2.24,0-.22.56-2.35,1.79-3.98l3.47-5.26c2.02-3.08,5.77-6.61,9.41-6.61,2.52,0,3.3,2.24,3.3,4.42-.06.11-.84,4.37-.78,4.42l1.34-1.74,3.47-3.7c1.51-1.01,3.3-3.02,5.38-3.02,2.35,0,4.54,2.02,4.37,4.59l-.22,1.57-.34,1.01.34-.45,3.47-3.7c1.51-1.01,3.3-3.02,5.38-3.02,2.35,0,4.54,2.02,4.37,4.59l-.22,1.57c-1.23,3.47-2.69,7.34-4.37,11.93-.34.95-.34,3.47.78,3.58,1.46-.11,4.87-3.98,5.71-5.77.11-.22,2.91-4.87,4.42-4.93,1.46,0,2.24.34,2.24,1.06,0,.28-.17.56-.22.84l-.39,1.4c-.9,2.8-3.81,6.61-5.77,8.85-1.51,1.29-4.59,4.26-7.45,4.26-2.46,0-4.42-3.08-4.42-4.2,0-.34-.17-.84-.17-1.12l.06-1.51c0-.95.17-2.18.5-3.19l.56-1.74c.5-1.62.95-2.46,1.68-4.2.9-2.07,1.51-4.7.28-4.54-.84.11-2.86,2.18-3.47,3.02-1.06,1.34-1.34,1.01-4.98,6.94l-1.57,2.3c-.28.39-.11.34-2.58,4.59-.84.78-1.79,3.98-3.7,3.98-1.51,0-2.35-1.23-2.63-2.69.28-1.9,1.51-3.7,2.3-5.49Z"/>
      <path class="cls-1" d="M265.27,44.52c-1.57,1.34-5.6,4.48-9.02,4.48-2.18,0-4.65-3.47-4.65-5.1,0-.5.11-1.79.17-2.02-.56.5-1.29,1.23-1.46,1.4-.06.06-.5.5-.5.62-2.8,2.41-4.93,4.82-9.69,4.82-3.47,0-5.26-3.86-5.15-7.95.11-4.54,3.3-9.97,6.89-13.72,2.97-3.08,7.73-5.21,12.43-5.21,1.34,0,3.02.45,3.7,1.18,0,.39,1.06,1.34,1.12,1.79.95-1.85,2.46-1.79,2.91-1.85,1.18.06,1.51,2.13,1.51,2.97,0,1.29-2.74,5.43-2.86,5.66-.28.56-1.46,2.07-1.74,2.35-1.4,1.96-2.63,4.26-2.63,6.55,0,.84.39,2.69,1.01,2.91,2.18.5,5.6-2.52,6.38-3.42,1.01-1.12,3.75-4.42,4.65-5.32.34,0,.78.62,1.34.56h.06c.11.22.11.5.17.73.22,3.14-2.74,6.38-4.65,8.57ZM255.75,27.94c0-.62-.78-1.85-1.51-1.85-2.86,0-6.55,2.13-8.68,4.59-2.91,3.36-5.15,6.55-5.15,9.74,0,1.46.45,2.52,1.68,2.86,2.41-.34,4.76-3.25,6.5-4.76,1.29-1.12,4.76-5.54,6.89-8.57.17-.62.28-1.29.28-2.02Z"/>
      <path class="cls-1" d="M274.45,41.66c.84-1.34,1.29-3.64,2.02-4.59,1.34-2.74,4.42-9.63,2.24-9.97-1.12.22-3.81,3.42-4.42,4.7-1.34,2.02-4.37,7-5.94,8.01-1.12.73-1.34.84-2.02.5-.62-.28-.73-1.4-.84-2.86,0-.22,2.02-3.19,2.97-4.59.84-1.23,1.79-2.74,2.91-4.54,2.02-3.19,5.77-6.61,9.41-6.61,2.52,0,3.3,2.24,3.3,4.42-.06.11-.84,4.37-.78,4.42l1.34-1.74,3.47-3.7c1.51-1.01,3.3-3.02,5.38-3.02,2.35,0,4.54,2.02,4.37,4.59l-.22,1.57c-1.23,3.47-2.69,7.34-4.37,11.93-.34.95-.34,3.47.78,3.58,1.46-.11,5.26-4.09,6.1-5.77.11-.22,2.69-4.54,4.26-4.93,1.46,0,2.13.56,2.13,1.29,0,.28-.17.56-.22.84l-.39,1.4c-.78,2.86-3.92,6.38-5.88,8.62-1.51,1.29-4.59,4.26-7.45,4.26-2.46,0-4.42-3.08-4.42-4.2,0-.34.11-.84.11-1.12l-.06-1.51c-.06-.95,0-2.18.34-3.19l.56-1.74c.5-1.62.95-2.46,1.68-4.2.9-2.07,1.51-4.7.28-4.54-.84.11-2.86,2.18-3.47,3.02-1.06,1.34-1.34,1.01-4.98,6.94l-1.12,2.18c-.22.39-.56.45-3.02,4.7-.84.78-1.79,3.98-3.7,3.98-1.51,0-2.35-1.23-2.63-2.69.28-1.9,1.51-3.7,2.3-5.49Z"/>
      <path class="cls-1" d="M330.96,44.52c-1.57,1.34-5.6,4.48-9.02,4.48-2.18,0-4.65-3.47-4.65-5.1,0-.5.11-1.79.17-2.02-.56.5-1.29,1.23-1.46,1.4-.06.06-.5.5-.5.62-2.8,2.41-4.93,4.82-9.69,4.82-3.47,0-5.26-3.86-5.15-7.95.11-4.54,3.3-9.97,6.89-13.72,2.97-3.08,7.73-5.21,12.43-5.21,1.34,0,3.02.45,3.7,1.18,0,.39,1.06,1.34,1.12,1.79.95-1.85,2.46-1.79,2.91-1.85,1.18.06,1.51,2.13,1.51,2.97,0,1.29-2.74,5.43-2.86,5.66-.28.56-1.46,2.07-1.74,2.35-1.4,1.96-2.63,4.26-2.63,6.55,0,.84.39,2.69,1.01,2.91,2.18.5,5.6-2.52,6.38-3.42,1.01-1.12,3.75-4.42,4.65-5.32.34,0,.78.62,1.34.56h.06c.11.22.11.5.17.73.22,3.14-2.74,6.38-4.65,8.57ZM321.44,27.94c0-.62-.78-1.85-1.51-1.85-2.86,0-6.55,2.13-8.68,4.59-2.91,3.36-5.15,6.55-5.15,9.74,0,1.46.45,2.52,1.68,2.86,2.41-.34,4.76-3.25,6.5-4.76,1.29-1.12,4.76-5.54,6.89-8.57.17-.62.28-1.29.28-2.02Z"/>
      <path class="cls-1" d="M329,57.96c2.41-2.07,8.12-3.08,11.59-3.3,1.18-.95,1.29-2.46,1.74-3.86.73-1.34,1.29-3.02,1.74-4.31-.06-.22-.17-.34-.39-.5-1.4.56-2.97,1.4-4.87,1.46-4.37.11-6.16-2.35-6.72-7.06l-.06-.5c.11-.34.62-4.87.78-5.21,1.34-2.63,2.07-5.15,4.42-7.22.95-1.12,4.48-3.7,4.65-3.7,1.96-.9,3.98-1.51,6.05-1.85,2.58-.06,6.83-.39,8.62,2.3,0,.34.34,2.07.39,2.46.22,2.13,1.06,3.36-.11,5.21-1.51,2.24-4.42,6.22-5.43,8.9-1.46,3.42-2.35,7.34-3.75,10.81-.06.34-1.12,2.63-1.79,4.48,3.3.5,10.14,5.94,11.14,6.72.17,1.68.84,3.7-1.23,3.75-3.25.11-7.95-5.04-11.31-5.49l-.67,1.68c-3.25,5.26-7.34,10.81-12.99,11.87-.84.06-1.96-.17-2.8-.45-2.13-1.46-3.7-3.86-4.03-6.27-.56-4.03,1.79-7.56,5.04-9.91ZM330.23,69.05c3.47-.17,5.38-3.98,6.66-6.05.39-.62,1.29-2.13,1.29-2.18l-.06-.39c-4.54.28-8.06,1.68-9.58,5.99-.11.95.56,2.97,1.68,2.63ZM337.62,41.66c.84.67,2.35.45,3.36.06,4.54-1.9,6.94-6.16,9.58-10.64.95-1.46,1.74-3.08,1.23-4.14-7.39-1.46-13.44,5.1-14.67,12.26-.11.67,0,1.57.5,2.46Z"/>
      <path class="cls-1" d="M356.83,41.83c.56-7.06,2.46-11.93,8.06-17.86,2.86-2.86,7.45-4.48,11.7-4.37,3.08.06,4.03,4.54,3.75,6.27-.39,3.02-1.34,5.15-3.36,7.73-1.79,2.35-8.34,7.06-13.1,7.06h-1.68c-.62,1.06,0,3.92,1.85,4.42,2.13.11,4.2,0,7.22-1.9,3.47-2.07,7.73-7.06,9.97-7.28.9,0,1.18.9,1.12,1.46-.17,2.74-4.93,7.45-10.14,10.3-3.36,1.85-6.83,2.13-9.35,2.13-2.02-.06-6.5-3.47-6.05-7.95ZM373.68,29.9c1.06-1.29,1.9-3.92.67-5.04-2.24-.73-6.16,1.9-7.78,4.37-1.4,2.02-3.02,4.54-3.42,7h.06c3.81-.5,9.02-3.86,10.47-6.33Z"/>
      <path class="cls-1" d="M389.14,41.05c1.62-3.3,4.65-8.34,7.56-11.76l-.06-.45c-.78.06-1.85.34-2.63.34-1.06.06-2.35-.78-3.14-1.06-.34-.06-4.54,7.06-5.32,8.06-.84,1.62-3.47,4.2-5.38,4.59-1.01.22-3.3.22-3.3-1.29,2.02-1.96,4.48-5.6,6.38-8.79.39-.73,3.42-5.04,3.36-5.88-.06-.56-.73-.95-.78-1.79-.17-2.69,1.68-5.21,3.02-6.83.9-1.06,3.08-2.07,4.7-2.13,1.4,0,3.47.73,3.53,2.02.11,1.74-1.29,4.42-2.46,6.05l-.9,1.29c.28.17,1.34,1.01,1.79,1.01,1.96-.06,4.26-1.01,5.49-2.41h-.06c.9-1.23,1.57-1.51,3.08-1.57,1.85,0,2.58,1.34,2.63,2.18,0,.17-.22.78-.5,1.23l-.22.5-4.93,6.44c-.17.22-.78,1.12-1.12,1.4v-.06c-1.4,1.68-3.3,5.04-4.48,7.39l-1.18,2.41c-.56,1.23-.5,1.96-.17,2.41.95,1.12,3.86-.9,6.89-3.75,2.24-2.13,4.76-6.05,5.54-6.61.62.11,2.24-.17,2.74.34l.22.34c-.78,5.15-4.82,9.41-8.96,12.38-2.63,1.9-5.71,2.74-8.9,2.52-1.62-.28-3.36-2.86-3.36-3.14,0-2.46.5-2.69.9-5.38Z"/>
    </g>
  </g>
</svg>