<!DOCTYPE svg PUBLIC "-//W3C//DTD SVG 1.1//EN" "http://www.w3.org/Graphics/SVG/1.1/DTD/svg11.dtd">
<!-- Uploaded to: SVG Repo, www.svgrepo.com, Transformed by: SVG Repo Mixer Tools -->
<svg fill="#000000" width="800px" height="800px" viewBox="0 0 24 24" id="blueprint-architecture" data-name="Flat Color" xmlns="http://www.w3.org/2000/svg" class="icon flat-color">
<g id="SVGRepo_bgCarrier" stroke-width="0"/>
<g id="SVGRepo_tracerCarrier" stroke-linecap="round" stroke-linejoin="round"/>
<g id="SVGRepo_iconCarrier">
<path id="primary" d="M21,8H7V6A1,1,0,0,0,6,5H4A2,2,0,0,0,2,7V20a2,2,0,0,0,2,2H21a1,1,0,0,0,1-1V9A1,1,0,0,0,21,8Z" style="fill: #000000;"/>
<path id="secondary" d="M7,6V17a1,1,0,0,1-1,1H4a2,2,0,0,0-2,2V7A2,2,0,0,1,4,5H6A1,1,0,0,1,7,6ZM18.91,2.29,12.29,8.9a1,1,0,0,0-.29.71V11a1,1,0,0,0,1,1h1.39a1.05,1.05,0,0,0,.71-.29l6.61-6.62a1,1,0,0,0,0-1.4l-1.4-1.4A1,1,0,0,0,18.91,2.29Z" style="fill: #00A76E;"/>
</g>
</svg>