<?xml version="1.0" encoding="UTF-8"?>
<svg xmlns="http://www.w3.org/2000/svg" xmlns:xlink="http://www.w3.org/1999/xlink" viewBox="0 0 127.91 106.36">
  <defs>
    <style>
      .cls-1 {
        fill: #ffb74f;
      }

      .cls-2 {
        fill: url(#linear-gradient-8);
      }

      .cls-3 {
        fill: url(#linear-gradient-5);
      }

      .cls-4 {
        fill: url(#linear-gradient-6);
      }

      .cls-5 {
        fill: url(#linear-gradient-4);
      }

      .cls-6 {
        fill: url(#linear-gradient-3);
      }

      .cls-7 {
        fill: url(#linear-gradient-2);
      }

      .cls-8 {
        fill: #06a76e;
      }

      .cls-9 {
        fill: url(#linear-gradient);
      }

      .cls-10 {
        fill: #74ceae;
      }

      .cls-11 {
        isolation: isolate;
      }

      .cls-12 {
        fill: #dc6050;
      }

      .cls-13 {
        fill: #dbe9e8;
      }

      .cls-14 {
        fill: #0d2371;
      }

      .cls-15 {
        fill: #83bab6;
      }

      .cls-16 {
        fill: #035b5e;
      }

      .cls-17 {
        fill: #79aca8;
      }

      .cls-18 {
        fill: #3656b2;
      }

      .cls-19 {
        fill: url(#linear-gradient-7);
        mix-blend-mode: soft-light;
      }

      .cls-20 {
        fill: #ffae98;
      }

      .cls-21 {
        fill: #e97d6a;
      }

      .cls-22 {
        fill: #048062;
      }

      .cls-23 {
        fill: #3aa47e;
      }

      .cls-24 {
        fill: #f3fbf8;
      }

      .cls-25 {
        fill: #ff7c47;
      }

      .cls-26 {
        fill: #92372b;
      }

      .cls-27 {
        fill: #c55347;
      }

      .cls-28 {
        fill: #2bc6cb;
      }

      .cls-29 {
        fill: #10ab74;
      }

      .cls-30 {
        fill: #1a1a1a;
      }

      .cls-31 {
        fill: #faf9db;
      }

      .cls-32 {
        fill: #00425d;
      }
    </style>
    <linearGradient id="linear-gradient" x1="28.27" y1="45.19" x2="62.49" y2="45.19" gradientUnits="userSpaceOnUse">
      <stop offset="0" stop-color="#35b88a"/>
      <stop offset="1" stop-color="#06a76e"/>
    </linearGradient>
    <linearGradient id="linear-gradient-2" x1="82.73" y1="31.27" x2="82.73" y2="77.07" xlink:href="#linear-gradient"/>
    <linearGradient id="linear-gradient-3" x1="32" y1="26.76" x2="32.14" y2="54.06" gradientUnits="userSpaceOnUse">
      <stop offset="0" stop-color="#ffae98"/>
      <stop offset=".96" stop-color="#ec6f5f"/>
    </linearGradient>
    <linearGradient id="linear-gradient-4" x1="-3246.64" y1="21.71" x2="-3246.5" y2="49.01" gradientTransform="translate(-3136.33) rotate(-180) scale(1 -1)" xlink:href="#linear-gradient-3"/>
    <linearGradient id="linear-gradient-5" x1="-4538.8" y1="467.44" x2="-4538.8" y2="455.87" gradientTransform="translate(4126.46 -2052.31) rotate(-21.36)" gradientUnits="userSpaceOnUse">
      <stop offset="0" stop-color="#ffae98"/>
      <stop offset=".58" stop-color="#ec6f5f"/>
    </linearGradient>
    <linearGradient id="linear-gradient-6" x1="61.84" y1="24.62" x2="69.48" y2="24.62" gradientUnits="userSpaceOnUse">
      <stop offset="0" stop-color="#ffae98"/>
      <stop offset="1" stop-color="#ec6f5f"/>
    </linearGradient>
    <linearGradient id="linear-gradient-7" x1="100.72" y1="40.98" x2="100.72" y2="77.07" gradientUnits="userSpaceOnUse">
      <stop offset="0" stop-color="gray"/>
      <stop offset="1" stop-color="#000"/>
    </linearGradient>
    <linearGradient id="linear-gradient-8" x1="37.12" y1="60.77" x2="37.12" y2="77.96" gradientUnits="userSpaceOnUse">
      <stop offset=".19" stop-color="#23996f"/>
      <stop offset="1" stop-color="#058c5c"/>
    </linearGradient>
  </defs>
  <g class="cls-11">
    <g id="Layer_2" data-name="Layer 2">
      <g id="Layer_1-2" data-name="Layer 1">
        <path class="cls-15" d="M125.88,51.46c-.66-8.79-3.74-17.64-8.97-25.61C104.9,7.55,83.9-.79,62.53.06c-7.09.28-14.77,1.74-20.39,6.38-6.43,5.31-6.6,13.59-14.05,18.22-4.29,2.66-9.15,4.32-13.4,7.04C2.21,39.7-2.98,56.83,1.7,70.89c9.74,29.22,52.62,34.35,78.53,30.14,10.09-1.64,20.05-5.08,28.25-11.18,12.11-9,18.52-23.38,17.39-38.39Z"/>
        <g>
          <path class="cls-30" d="M67.24,13.46c.68-.43,2.46-1.67,1.73-2.31-.89-.79-2.32,1.1-2.32,1.1,0,0-.18-1.96-1.25-1.82-.79.1-.27,1.5.05,2.24-1.03-.13-2.19-.04-3.15.11-.24-.42-1.23-1.83-3.4-1.28-2.54.65-2.2,2.45-2.2,2.45,0,0-3.19.39-3.13,3.37.06,3.03,2.71,3.58,2.71,3.58l4.99-1.96,1.44,7.95,6.37-2.49c.89-4.5-.16-9.22-1.83-10.94Z"/>
          <g>
            <rect class="cls-29" x="100.44" y="6.82" width="21.97" height="21.97" rx=".57" ry=".57"/>
            <path class="cls-24" d="M118.85,24.82l-6.73-14.72c-.13-.29-.43-.48-.75-.48s-.62.19-.75.48l-4.59,10.05s-2.13,4.66-2.13,4.66c-.19.41,0,.9.41,1.09.11.05.23.07.34.07.31,0,.61-.18.75-.48l1.92-4.2h8.11l1.92,4.2c.19.41.68.59,1.09.41.41-.19.6-.68.41-1.09ZM108.07,19.66l3.3-7.23,3.3,7.23h-6.61Z"/>
          </g>
          <path class="cls-18" d="M60.25,34.42s-11.54,3.13-16.59,13.47c-.84-3.65-1.98-7.68-3.27-9.9l-8.3.72-3.82,17.25,34.22-.26-2.24-21.28Z"/>
          <path class="cls-9" d="M60.25,34.42s-11.54,3.13-16.59,13.47c-.84-3.65-1.98-7.68-3.27-9.9l-8.3.72-3.82,17.25,34.22-.26-2.24-21.28Z"/>
          <path class="cls-7" d="M110.23,33.66l-8.3-.72s-4.58,5.7-4.75,13.4c-1.56-2.24-2.91-4.96-4.37-6.53-9.46-10.14-19.4-8.98-25.48-7.79-13.17,2.56-16.85,11.24-16.86,21.49,0,11.34,2.31,23.55,2.31,23.55h45.34l-.41-2.87c19.97,1.57,17.56-18.24,16.69-24.22-1.26-8.63-4.18-16.32-4.18-16.32Z"/>
          <g>
            <path class="cls-8" d="M29.05,11.49c-.88.11-1.76.24-2.63.41-2.11.41-5,.97-5.92,3.17-1.05,2.51-1.03,5.58-.93,8.24.2,5.14.17,9.22,3.7,10.6,3.53,1.38,9.6,1.42,13.2.88,3.6-.54,5.44-2.16,5.69-6.12.15-2.38.05-4.79-.05-7.17-.06-1.31-.17-2.63-.22-3.94-.09-2.36-.34-4.65-2.73-5.76-3.04-1.41-6.91-.7-10.11-.32Z"/>
            <path class="cls-31" d="M38.36,17.02c0,1.42-1.15,2.57-2.57,2.57s-2.57-1.15-2.57-2.57,1.15-2.57,2.57-2.57,2.57,1.15,2.57,2.57Z"/>
            <path class="cls-16" d="M30.79,25.09c-3.72-.05-3.51-3.77-7.13-3.77-1.63,0-3.05.62-4.12,1.31,0,.24.01.47.02.69.2,5.14.17,9.22,3.7,10.6,3.52,1.38,9.6,1.42,13.2.88,3.6-.54,5.44-2.16,5.69-6.12.13-2.09.07-4.2-.02-6.3-4.62-.9-8.26,2.75-11.35,2.71Z"/>
            <path class="cls-31" d="M42.19,23.43c-.02-.64-.05-1.28-.08-1.92,0-.11-.01-.23-.02-.34-2.8-.28-5.67.78-7.65,1.66-1.34.6-2.6,1.16-3.63,1.15-1.38-.02-1.98-.66-2.81-1.56-.91-.99-2.05-2.22-4.34-2.22-1.37,0-3,.38-4.14.88,0,.76.02,1.52.05,2.24,1.05-.3,2.68-.88,4.09-.88,1.31,0,1.89.63,2.69,1.5.92,1,2.07,2.24,4.42,2.28,1.55,0,3.02-.65,4.57-1.34,1.99-.88,4.5-1.79,6.84-1.44Z"/>
          </g>
          <path class="cls-6" d="M39.08,32.04c-2.4-.9-5.97.61-5.97.61,0,0-2.86-4.17-4.62-3.42-.42.18-.58.55-.59,1.01-.62-.6-1.27-.95-1.79-.68-.9.47-.43,1.96.14,3.15-.7-1.03-1.68-2.03-2.55-1.18-1.11,1.08,1.49,4.73,4.8,4.88,1.22.06,3.86-.21,3.86-.21l-.27,2.5s5.69,1.54,8.3-.72c0,0,1.1-5.06-1.3-5.96Z"/>
          <path class="cls-27" d="M28.74,36.48c-1.12-.94-2.61-3.65-2.67-3.77.28-.12,1.79,2.64,2.77,3.5-.02.25-.06.27-.1.27Z"/>
          <path class="cls-27" d="M31.43,35.83c-1.82-1.76-3.58-5.37-3.66-5.53.29-.1,2.09,3.59,3.76,5.27-.03.25-.07.26-.11.26Z"/>
          <path class="cls-5" d="M103.24,26.98c2.4-.9,5.97.61,5.97.61,0,0,2.86-4.17,4.62-3.42.42.18.58.55.59,1.01.62-.6,1.27-.95,1.79-.68.9.47.43,1.96-.14,3.15.7-1.03,1.68-2.03,2.55-1.18,1.11,1.08-1.49,4.73-4.8,4.88-1.22.06-3.86-.21-3.86-.21l.27,2.5s-5.69,1.54-8.3-.72c0,0-1.1-5.06,1.3-5.96Z"/>
          <path class="cls-27" d="M113.58,31.43c.88-1.13,2.38-3.89,2.4-3.92.21.26-1.28,2.98-2.3,3.88-.03.03-.07.04-.1.04Z"/>
          <path class="cls-27" d="M110.89,30.78c1.57-1.94,3.36-5.62,3.38-5.66.2.29-1.56,3.9-3.27,5.62-.03.03-.07.05-.11.05Z"/>
          <g>
            <path class="cls-30" d="M62.71,31.81s1-1.45,3.57-2.67c2.57-1.23,5.21-1.2,5.21-1.2l-4.74,6.03-4.04-2.15Z"/>
            <path class="cls-3" d="M69.08,24.4s3.37,8.61,3.37,8.61l-6.81,2.66-3.55-9.07,5.15-2.9s.47,1.11,1.83.7Z"/>
            <path class="cls-20" d="M68.51,18.55c-1.08-.63-2.62-.02-3.43,1.38-.63-.08-1.82-.66-2.73-3.02,0,0-7.71-.44-6.21,3.61.6,1.62,1.44,3.72,2.29,5.89.66,1.69,2,4.01,3.55,4.47,1.23.36,4.38-.44,5.23-1.97,1.21-2.17.07-5.14.07-5.14.63-.3,1.27-.81,1.7-1.55.82-1.39.61-3.04-.47-3.67Z"/>
            <path class="cls-21" d="M62.03,23.68c.35.28,1.03.21,1.52-.14.49-.35.61-.86.26-1.13-.35-.27-1.03-.21-1.52.14s-.61.86-.26,1.13Z"/>
            <path class="cls-26" d="M61.35,20.84c-.13.05-.19.2-.14.33l.23.58c.05.13.2.19.33.14.13-.05.19-.2.14-.33l-.23-.58c-.05-.13-.2-.19-.33-.14Z"/>
            <path class="cls-26" d="M57.64,22.37c-.13.05-.19.2-.14.33l.23.58c.05.13.2.19.33.14.13-.05.19-.2.14-.33l-.23-.58c-.05-.13-.2-.19-.33-.14Z"/>
            <path class="cls-27" d="M61.34,27.31c-.53,0-1.14-.67-1.22-.77.48.08,1.08.6,1.35.42.32-.21.33-.92.3-1.17.32.08.39,1.08-.14,1.43-.09.06-.19.09-.29.09Z"/>
            <path class="cls-31" d="M62.71,31.81l3.6,1.47,5.18-5.35,3.86,3.37-4.3,8.01c-.29.58-1.07.69-1.51.2l-3.07-3.42-3.1,3.21c-.35.36-.96.1-.94-.4l.29-7.09Z"/>
            <path class="cls-4" d="M68.98,22.22c.82-1.39.61-3.04-.47-3.67-1.08-.63-2.62-.02-3.43,1.38-.29,0-.67-.15-1.1-.5.59,1.25,1.54,3.26,1.9,4.14.5,1.21,1.09,3.07-.12,5.24-.63,1.12-2.48,1.85-3.91,2.02,1.36.41,4.51-.4,5.36-1.93,1.21-2.17.07-5.14.07-5.14.63-.3,1.27-.81,1.7-1.55Z"/>
            <path class="cls-12" d="M68.3,21.88c.74-.83.86-1.95.25-2.49-.61-.54-1.7-.31-2.45.53-.74.83-.86,1.95-.25,2.49.61.54,1.7.31,2.45-.53Z"/>
            <path class="cls-27" d="M59.4,25.46c-.85,0-1.58-.09-1.65-.39-.07-.31.16-.64.47-1.1.22-.33.5-.73.72-1.22.06-.13-.12-.67-.32-1.09.39.1.74.89.6,1.21-.23.51-.51.93-.74,1.27-.25.36-.46.67-.42.86.12.13,1.22.19,2.4.11-.33.33-.7.34-1.05.34Z"/>
          </g>
          <path class="cls-14" d="M64.55,59.94c-.15-10.74,1.75-23.74,1.77-23.87l-.16-2.78c.31-.02.46,2.79.46,2.79-.02.16-1.92,13.14-1.92,23.7,0,.08-.07.15-.15.15Z"/>
          <path class="cls-14" d="M87.07,74.36c-.15-12.29-2.18-32.02-2.2-32.22.33.17,2.36,19.91,2.36,32.07,0,.08-.07.15-.15.15Z"/>
          <path class="cls-14" d="M97.83,65.31c-1.89-10.08-1.18-19.35-1.18-19.44.3.12-.41,9.35,1.33,19.26-.13.18-.14.18-.15.18Z"/>
          <path class="cls-1" d="M62.37,44.32c0,.64-.39,1.16-.88,1.16s-.88-.52-.88-1.16.39-1.16.88-1.16.88.52.88,1.16Z"/>
          <polygon class="cls-28" points="122.41 45.32 125.16 41 127.91 45.32 122.41 45.32"/>
          <g>
            <rect class="cls-10" x="111.79" y="79.92" width="11.8" height="11.8" transform="translate(37.5 -35.78) rotate(20.5)"/>
            <path class="cls-30" d="M121.08,81.74c-.34.9-1.35,1.36-2.25,1.03-.9-.34-1.36-1.35-1.03-2.25.34-.9,1.35-1.36,2.25-1.03.9.34,1.36,1.35,1.03,2.25Z"/>
            <path class="cls-24" d="M120.66,89.17c-.48,0-.96-.19-1.36-.54-.28-.24-.49-.54-.61-.86-1.18.06-2.36-.41-3.18-1.26-.13.14-.28.26-.45.37-.29.17-.74.19-1.16.03-.42-.16-.73-.45-.85-.82.38.18.63.41.96.53.33.12.68.12.89,0,.15-.09.29-.21.4-.33-.48-.63-.6-1.06-.5-1.44.07-.27.31-.5.59-.58.23-.07.45-.02.61.13.24.22.28.6.12,1.06-.09.25-.22.55-.42.83.74.78,1.81,1.22,2.89,1.19-.03-.13-.04-.25-.04-.38,0-.3.07-.73.37-1.04.27-.28.76-.41,1.12-.17.17.12.28.31.31.53.04.27-.05.57-.22.78-.24.29-.62.47-1.14.54.11.24.28.47.5.66.4.35.9.51,1.37.44-.04.32-.13.32-.22.32ZM119.62,86.07c-.17,0-.35.08-.47.2-.23.24-.28.58-.28.83,0,.11.01.23.04.35.47-.06.81-.2,1-.44.12-.14.18-.35.15-.54-.01-.1-.06-.24-.18-.32-.08-.05-.17-.08-.26-.08ZM115.6,84.54c-.3.07-.45.22-.49.38-.09.36.12.74.31,1.01.24-.12.35-.37.42-.58.05-.16.16-.55-.04-.73-.06-.06-.13-.07-.2-.07Z"/>
          </g>
          <rect class="cls-1" x="4.98" y="59.73" width="11.8" height="11.8" transform="translate(-27.32 11.16) rotate(-25.63)"/>
          <path class="cls-25" d="M10.29,60.36c.42.87.05,1.92-.82,2.33-.87.42-1.92.05-2.33-.82-.42-.87-.05-1.92.82-2.33.87-.42,1.92-.05,2.33.82Z"/>
          <g>
            <path class="cls-31" d="M15.55,67.96c-.05,0-8.77-3.08-8.77-3.08.1-.29,8.82,2.78,8.82,2.78.07.26.01.3-.05.3Z"/>
            <path class="cls-31" d="M9.66,70.79c-.14-.2,2.92-8.93,2.92-8.93.29.1-2.78,8.82-2.78,8.82-.02.06-.08.1-.14.1Z"/>
          </g>
          <path class="cls-14" d="M43.98,52.22c-.15-.14-.47-4.32-.47-4.32.31-.02.63,4.15.63,4.15-.14.16-.15.16-.15.16Z"/>
          <path class="cls-1" d="M99.01,74.28c9.78.33,13.77-4.8,15.23-10.59-1.18-.42-2.46-.65-3.78-.65-6.25,0-11.34,5.02-11.44,11.25Z"/>
          <path class="cls-19" d="M114.41,49.99c-.48-3.25-1.19-6.38-1.89-9,1.12,8.1,1.6,21.93-7.12,26.2-9.06,4.44-18.94-7.91-18.94-7.91l.61,14.93s2.48,1.45,6.13,2.87h4.94l-.42-2.87c19.97,1.57,17.56-18.24,16.69-24.22Z"/>
          <g>
            <g>
              <path class="cls-30" d="M96.93,106.36H28.07c-2.82,0-5.12-2.16-5.12-4.81v-47.18c0-2.65,2.3-4.81,5.12-4.81h68.86c2.82,0,5.12,2.16,5.12,4.81v47.18c0,2.65-2.3,4.81-5.12,4.81Z"/>
              <path class="cls-16" d="M22.95,57.33h79.1v-2.96c0-2.65-2.3-4.81-5.12-4.81H28.07c-2.82,0-5.12,2.16-5.12,4.81v2.96Z"/>
            </g>
            <path class="cls-23" d="M30.67,53.85c0,1.17-.95,2.12-2.12,2.12s-2.12-.95-2.12-2.12.95-2.12,2.12-2.12,2.12.95,2.12,2.12Z"/>
            <path class="cls-22" d="M36.66,53.85c0,1.17-.95,2.12-2.12,2.12s-2.12-.95-2.12-2.12.95-2.12,2.12-2.12,2.12.95,2.12,2.12Z"/>
            <g>
              <g>
                <rect class="cls-22" x="80.05" y="82.14" width="11.97" height=".83"/>
                <rect class="cls-22" x="80.05" y="84.98" width="11.97" height=".83"/>
              </g>
              <g>
                <rect class="cls-22" x="80.05" y="89.03" width="11.97" height=".83"/>
                <rect class="cls-22" x="80.05" y="91.88" width="11.97" height=".83"/>
              </g>
            </g>
            <g>
              <g>
                <rect class="cls-17" x="56.37" y="62.61" width="11.97" height=".83"/>
                <rect class="cls-17" x="56.37" y="65.46" width="11.97" height=".83"/>
              </g>
              <g>
                <rect class="cls-17" x="56.37" y="69.51" width="11.97" height=".83"/>
                <rect class="cls-17" x="56.37" y="72.35" width="11.97" height=".83"/>
              </g>
            </g>
            <g>
              <path class="cls-2" d="M28.97,60.77h16.31c.24,0,.44.2.44.44v16.31c0,.24-.2.44-.44.44h-16.31c-.24,0-.44-.2-.44-.44v-16.31c0-.24.2-.44.44-.44Z"/>
              <path class="cls-13" d="M42.93,74.86l-5.26-11.52c-.1-.23-.33-.38-.59-.38s-.48.15-.59.38l-3.6,7.87s-1.67,3.65-1.67,3.65c-.15.32,0,.71.32.85.51.06.75-.08.85-.32l1.5-3.29h6.35l1.5,3.29c.15.32.53.47.85.32.32-.15.47-.53.32-.85ZM34.5,70.82l2.59-5.66,2.59,5.66h-5.17Z"/>
            </g>
            <rect class="cls-16" x="63" y="81.42" width="12.02" height="12.02" rx=".31" ry=".31"/>
            <g>
              <rect class="cls-13" x="84.64" y="61.89" width="12.02" height="12.02" rx=".31" ry=".31"/>
              <rect class="cls-32" x="88.21" y="65.46" width="4.89" height="4.89" rx=".13" ry=".13"/>
            </g>
            <g>
              <path class="cls-32" d="M11.74,84.37h45.65c.19,0,.34.15.34.34v12.13c0,.19-.15.34-.34.34H11.74c-.19,0-.34-.15-.34-.34v-12.13c0-.19.15-.34.34-.34Z"/>
              <path class="cls-13" d="M22.17,90.77c0,2.26-1.84,4.1-4.1,4.1s-4.1-1.84-4.1-4.1,1.84-4.1,4.1-4.1,4.1,1.84,4.1,4.1Z"/>
              <g>
                <rect class="cls-22" x="25.15" y="88.17" width="29.73" height="1.42"/>
                <rect class="cls-22" x="25.15" y="91.95" width="29.73" height="1.42"/>
              </g>
            </g>
            <path class="cls-23" d="M71.94,87.42c0,1.62-1.31,2.93-2.93,2.93s-2.93-1.31-2.93-2.93,1.31-2.93,2.93-2.93,2.93,1.31,2.93,2.93Z"/>
          </g>
        </g>
      </g>
    </g>
  </g>
</svg>