<!DOCTYPE svg PUBLIC "-//W3C//DTD SVG 1.1//EN" "http://www.w3.org/Graphics/SVG/1.1/DTD/svg11.dtd">
<!-- Uploaded to: SVG Repo, www.svgrepo.com, Transformed by: SVG Repo Mixer Tools -->
<svg fill="#000000" width="800px" height="800px" viewBox="0 0 24 24" id="architecture" data-name="Flat Color" xmlns="http://www.w3.org/2000/svg" class="icon flat-color">
<g id="SVGRepo_bgCarrier" stroke-width="0"/>
<g id="SVGRepo_tracerCarrier" stroke-linecap="round" stroke-linejoin="round"/>
<g id="SVGRepo_iconCarrier">
<path id="primary" d="M17,5.84,10.5,2.13a1,1,0,0,0-1,0L3,5.84A2,2,0,0,0,2,7.58V21a1,1,0,0,0,1,1H9a1,1,0,0,0,.64-.23l8-6.67a1,1,0,0,0,.36-.77V7.58A2,2,0,0,0,17,5.84Z" style="fill: #000000;"/>
<path id="secondary" d="M21.42,10.09a1,1,0,0,0-1.06.14l-12,10a1,1,0,0,0-.3,1.11A1,1,0,0,0,9,22H21a1,1,0,0,0,1-1V11A1,1,0,0,0,21.42,10.09Z" style="fill: #00A76E;"/>
</g>
</svg>