<?xml version="1.0" encoding="UTF-8"?>
<svg xmlns="http://www.w3.org/2000/svg" xmlns:xlink="http://www.w3.org/1999/xlink" viewBox="0 0 1205.2 838.65">
  <defs>
    <style>
      .cls-1 {
        fill: #bccad7;
      }

      .cls-2 {
        fill: #3656b3;
      }

      .cls-3 {
        fill: #d2d2d2;
      }

      .cls-4 {
        fill: url(#linear-gradient-8);
      }

      .cls-5 {
        fill: url(#linear-gradient-5);
      }

      .cls-6 {
        fill: url(#linear-gradient-6);
      }

      .cls-7 {
        fill: url(#linear-gradient-9);
      }

      .cls-8 {
        fill: url(#linear-gradient-4);
      }

      .cls-9 {
        fill: url(#linear-gradient);
      }

      .cls-10 {
        fill: #dd6050;
      }

      .cls-11 {
        isolation: isolate;
      }

      .cls-12 {
        fill: #004c6b;
      }

      .cls-13 {
        fill: #c62500;
      }

      .cls-14 {
        fill: #fbfadc;
      }

      .cls-15 {
        fill: #00a66e;
      }

      .cls-16 {
        fill: url(#linear-gradient-10);
      }

      .cls-17 {
        fill: url(#linear-gradient-11);
      }

      .cls-18 {
        fill: url(#linear-gradient-12);
      }

      .cls-19 {
        fill: url(#linear-gradient-13);
      }

      .cls-20 {
        fill: url(#linear-gradient-7);
      }

      .cls-20, .cls-21, .cls-22, .cls-23 {
        mix-blend-mode: soft-light;
      }

      .cls-21 {
        fill: url(#linear-gradient-2);
      }

      .cls-22 {
        fill: url(#linear-gradient-3);
      }

      .cls-24 {
        fill: #ffaf99;
      }

      .cls-25 {
        fill: #93372b;
      }

      .cls-26 {
        fill: #0e2371;
      }

      .cls-27 {
        fill: #c65347;
      }

      .cls-28 {
        fill: #ffb850;
      }

      .cls-29 {
        fill: #003c6a;
      }

      .cls-30 {
        fill: #ea7d6a;
      }

      .cls-23 {
        fill: url(#linear-gradient-14);
      }

      .cls-31 {
        fill: #82b9b5;
      }

      .cls-32 {
        fill: #f58a77;
      }

      .cls-33 {
        fill: #1a1a1a;
      }

      .cls-34 {
        fill: #008d6d;
      }

      .cls-35 {
        fill: #02696c;
      }
    </style>
    <linearGradient id="linear-gradient" x1="248.61" y1="788.39" x2="248.61" y2="406.7" gradientUnits="userSpaceOnUse">
      <stop offset="0" stop-color="#364bb3"/>
      <stop offset="1" stop-color="#3380cc"/>
    </linearGradient>
    <linearGradient id="linear-gradient-2" x1="248.61" y1="550.8" x2="248.61" y2="788.39" gradientUnits="userSpaceOnUse">
      <stop offset="0" stop-color="gray"/>
      <stop offset="1" stop-color="#000"/>
    </linearGradient>
    <linearGradient id="linear-gradient-3" x1="602.69" y1="519.89" x2="602.69" y2="772.18" xlink:href="#linear-gradient-2"/>
    <linearGradient id="linear-gradient-4" x1="-8855.66" y1="391.42" x2="-8855.66" y2="310.74" gradientTransform="translate(9297.49)" gradientUnits="userSpaceOnUse">
      <stop offset="0" stop-color="#ffaf99"/>
      <stop offset=".58" stop-color="#ed6f5f"/>
    </linearGradient>
    <linearGradient id="linear-gradient-5" x1="2766.88" y1="306.16" x2="2844.04" y2="306.16" gradientTransform="translate(3248.02) rotate(-180) scale(1 -1)" gradientUnits="userSpaceOnUse">
      <stop offset="0" stop-color="#ffaf99"/>
      <stop offset="1" stop-color="#ed6f5f"/>
    </linearGradient>
    <linearGradient id="linear-gradient-6" x1="-7929.48" y1="1698.95" x2="-8011.86" y2="1726.05" gradientTransform="translate(8650.56 553.92) rotate(11.95)" xlink:href="#linear-gradient-5"/>
    <linearGradient id="linear-gradient-7" x1="-1904.87" y1="536.79" x2="-1695.78" y2="536.79" gradientTransform="translate(-245.9 2337.11) rotate(90) scale(1 -1)" xlink:href="#linear-gradient-2"/>
    <linearGradient id="linear-gradient-8" x1="-4624.67" y1="-7186" x2="-4624.67" y2="-7050.74" gradientTransform="translate(7327.16 -4108.83) rotate(-90)" xlink:href="#linear-gradient-5"/>
    <linearGradient id="linear-gradient-9" x1="941.37" y1="270.09" x2="941.37" y2="773.82" gradientUnits="userSpaceOnUse">
      <stop offset=".19" stop-color="#ff6a48"/>
      <stop offset="1" stop-color="#f53"/>
    </linearGradient>
    <linearGradient id="linear-gradient-10" x1="987.74" y1="290.35" x2="979.61" y2="493.1" gradientTransform="matrix(1,0,0,1,0,0)" xlink:href="#linear-gradient-5"/>
    <linearGradient id="linear-gradient-11" x1="760.88" y1="385.9" x2="760.88" y2="350.13" gradientTransform="translate(.78 .97)" xlink:href="#linear-gradient-5"/>
    <linearGradient id="linear-gradient-12" x1="1279.25" y1="40.31" x2="1222.66" y2="75.69" gradientTransform="translate(-467.99 97.49) rotate(7.66)" xlink:href="#linear-gradient-5"/>
    <linearGradient id="linear-gradient-13" x1="-5804.38" y1="-2742.63" x2="-6027.26" y2="-2695.55" gradientTransform="translate(6969.53 -1307.23) rotate(-41.38)" xlink:href="#linear-gradient-5"/>
    <linearGradient id="linear-gradient-14" x1="637.91" y1="524.34" x2="637.91" y2="751.71" xlink:href="#linear-gradient-2"/>
  </defs>
  <g class="cls-11">
    <g id="Layer_2" data-name="Layer 2">
      <g id="_Layer_" data-name="&amp;lt;Layer&amp;gt;">
        <path class="cls-29" d="M1049.41,330.62c-22.8-118.56-108.95-228.02-223.98-268.89-56.72-20.15-119.74-22.58-177.85-6.85-62.09,16.81-110.52,59.64-168.67,85.13-38.31,16.79-79.14,26.59-120.41,32.72-64.84,9.63-134.6,19.71-176.21,76.36-44.17,60.13-58.69,142.22-46.05,214.98,14.53,83.59,61.41,158.98,128.59,210.62,63.72,48.99,142.11,76.69,221.73,87.65,79.63,10.95,160.73,5.81,240.23-6.03,50.49-7.52,101.01-17.86,147.81-38.24,150.04-65.35,204.1-235,174.79-387.46Z"/>
        <path class="cls-31" d="M1177.69,242.02c0,84.73-68.69,153.42-153.42,153.42s-153.42-68.69-153.42-153.42,68.69-153.42,153.42-153.42v153.42h153.42Z"/>
        <path class="cls-28" d="M1051.79,61.09v153.42h153.41c0-84.73-68.68-153.42-153.41-153.42Z"/>
        <path class="cls-15" d="M1024.28,242.02V88.6c-84.73,0-153.42,68.69-153.42,153.42h153.42Z"/>
        <path class="cls-33" d="M500.65,235.33c-.29-1.11-1.02-2.15-1.98-2.78-1.85-1.2-4.24-1.2-6.41-.78-2.17.42-4.26,1.22-6.45,1.48,2.4-3.34,4.89-6.88,5.32-10.97.24-2.27-.7-5.12-2.96-5.4-1.87-.23-3.39,1.45-4.41,3.04-2.38,3.7-4.08,7.84-5.01,12.14-7.38-5.19-16.46-7.91-25.48-7.64.57-.02-.57-6.09-.73-6.64-2.25-7.54-8.92-13.45-16.59-15.28-8.69-2.08-18.24,1.56-24.7,7.41-2.24,2.03-3.83,6.04-7.11,5.75-10.15-.87-20.75,5.93-24.11,15.67-3.37,9.76.67,21.55,9.31,27.2,1.19.78,2.46,1.46,3.43,2.48.91.96,1.51,2.16,2.1,3.34,8.23,16.59,16.46,33.18,24.69,49.76,13.27,0,26.55,0,39.82,0,2.52,0,6.52.86,8.23-.97,1.82-1.95,3.13-4.95,4.42-7.27,2.74-4.96,5.09-10.14,7.01-15.48,5.47-15.14,7.58-31.51,5.93-47.54,4.42.02,8.83-.96,12.83-2.84.91-.43,1.84-.94,2.42-1.76.61-.86.71-1.93.44-2.95Z"/>
        <path class="cls-9" d="M335.67,406.7s-82.9,71.38-100.12,123.27h-55.3s-64.24,96.68-49.9,174.23c14.35,77.55,155.86,133.62,238.6,19.03l-33.29-316.53Z"/>
        <path class="cls-26" d="M240.28,706.25c-.81-.16-1.17-.73-1.04-1.3,18.61-82.51-4.48-173.8-4.72-174.71-.15-.57.2-1.15.77-1.3.59-.15,1.16.2,1.3.77.23.92,23.46,92.68,4.73,175.71-.11.5-.55.83-1.04.83Z"/>
        <path class="cls-28" d="M130.35,704.2c8.36,45.21,59.96,83.13,117.93,84.17,3.48-10.38,4.87-21.63,3.68-33.23-4.49-43.84-43.66-75.74-87.5-71.25-13.05,1.34-25.02,5.77-35.29,12.48.31,2.63.7,5.24,1.18,7.83Z"/>
        <path class="cls-21" d="M147.56,668.88c-7.31-39.5,5.77-83.96,20.37-118.08-17.88,32.66-47.84,97.93-37.58,153.4,14.35,77.55,155.86,133.62,238.6,19.03l-1.4-13.28c-83.74,84.41-206.68,30.92-220-41.07Z"/>
        <path class="cls-34" d="M335.67,406.7s-82.9,71.38-100.12,123.27h-55.3s-64.24,96.68-49.9,174.23c14.35,77.55,155.86,133.62,238.6,19.03l-33.29-316.53Z"/>
        <path class="cls-34" d="M628.01,465c-15.49-22.61-33.72-42.75-56.53-58.3-51.92-35.4-129.63-46.64-189.15-25.98-10.77,3.74-21.11,8.71-30.79,14.75-18.99,11.85-35.44,27.86-47.44,46.79-21.95,34.64-28.74,76.58-32.69,117.41-7.94,82.12-6.3,164.87-2.12,247.26,114.03,0,228.07,0,342.1,0,.48-18.28,1.43-36.55,1.43-36.55,21.94,4,45.87,1.25,66.62-6.77,22.25-8.61,36.32-22.61,43.83-45.35,4.8-14.53,7.99-29.7,7.99-45,0-34.15-15.46-65.64-29.3-96.02-17.73-38.91-49.96-77.21-73.96-112.23Z"/>
        <path class="cls-12" d="M663.29,637.84c-.34,0-.67-.16-.87-.45-.23-.32-23.22-32.6-65.83-53.03-45.24-21.7-94.83-18.2-95.33-18.17-.59.05-1.1-.4-1.15-.98-.04-.59.4-1.1.98-1.15.5-.04,50.64-3.58,96.42,18.37,43.13,20.68,66.42,53.4,66.65,53.72.34.48.22,1.15-.26,1.49-.19.13-.4.19-.61.19Z"/>
        <path class="cls-12" d="M528.68,566.76c-.59,0-1.07-.48-1.07-1.07v-85.04c0-.59.48-1.07,1.07-1.07s1.07.48,1.07,1.07v85.04c0,.59-.48,1.07-1.07,1.07Z"/>
        <path class="cls-28" d="M731.25,675.31c-2.02-.18-4.06-.29-6.13-.29-44.07,0-79.79,35.72-79.79,79.79,0,5.71.64,11.26,1.8,16.62,11.14-1.22,22.12-3.89,32.33-7.84,22.25-8.61,36.32-22.61,43.83-45.34,4.58-13.88,7.7-28.34,7.97-42.94Z"/>
        <path class="cls-22" d="M679.45,763.59c22.25-8.61,36.32-22.61,43.83-45.34,4.8-14.53,7.99-29.7,7.99-45,0-34.15-15.46-65.64-29.3-96.02-8.83-19.37-21.25-38.6-34.46-57.34,20.78,51.29,54.17,143.74,20.78,187.21-40.26,52.4-137.63,76.55-214.14-112.32,0,0-6.8,156.93,138.68,175.59,21.94,4,45.87,1.25,66.62-6.77Z"/>
        <path class="cls-33" d="M410.99,348.59s6.24-9.4,26.05-10.84,36.86,5.42,36.86,5.42l-46.05,27.1-16.87-21.68Z"/>
        <path class="cls-8" d="M467.23,314.12c.28.02,0,64.46,0,64.46h-50.93v-67.9l40.79-5.74s.23,8.42,10.14,9.19Z"/>
        <path class="cls-24" d="M478.4,274.71c-5.39-6.85-16.93-6.76-25.79.21-.14.11-.24.24-.38.35-3.49-2.44-9.77-9.26-9.65-26.91,0,0-48.94-22.45-49.5,7.69-.22,12.02-.1,27.82-.1,44.08,0,12.67,2.77,31.12,11.69,38.02,7.08,5.46,29.55,8.23,38.99.48,13.39-11,13.48-33.17,13.48-33.17l-.05-.51c4.89.18,10.33-1.52,15.03-5.21,8.86-6.96,11.67-18.17,6.28-25.01Z"/>
        <path class="cls-30" d="M423.32,291.57c1.57,2.67,6.15,4.01,10.23,2.98,4.08-1.03,6.13-4.02,4.56-6.69-1.57-2.67-6.15-4.01-10.23-2.98-4.09,1.02-6.13,4.02-4.56,6.69Z"/>
        <path class="cls-25" d="M400.51,271.41c-.97,0-1.75.78-1.75,1.75v4.34c0,.97.79,1.75,1.75,1.75s1.75-.78,1.75-1.75v-4.34c0-.97-.78-1.75-1.75-1.75Z"/>
        <path class="cls-25" d="M426.1,271.41c-.97,0-1.75.78-1.75,1.75v4.34c0,.97.78,1.75,1.75,1.75s1.75-.78,1.75-1.75v-4.34c0-.97-.78-1.75-1.75-1.75Z"/>
        <path class="cls-31" d="M410.99,348.59l16.21,18.33,46.7-23.75,13.95,31.23-35.92,30.74c-2.5,2.06-6.19,1.75-8.31-.69l-16.25-18.74-14.06,16.5c-2.28,2.68-6.65,1.53-7.33-1.93l-4.93-25.37,9.93-26.31Z"/>
        <path class="cls-5" d="M434.47,334.35c13.39-11,14.24-24.59,14.11-33.73-.1-6.65-1.13-22.09-1.81-31.71,1.84,3.35,3.92,5.28,5.47,6.36.14-.11.24-.24.38-.35,8.86-6.97,20.4-7.06,25.79-.21,5.39,6.85,2.58,18.05-6.28,25.01-4.7,3.7-10.13,5.4-15.03,5.21l.05.51s-.1,22.18-13.48,33.17c-9.43,7.75-31.88,4.99-38.98-.47-.12-.09-.23-.18-.33-.26-.15-.12-.26-.22-.37-.31,9.7,2.46,23.58,2.44,30.49-3.24Z"/>
        <path class="cls-10" d="M468.58,295.81c6.95-3.52,10.51-10.47,7.95-15.54-2.56-5.06-10.27-6.31-17.22-2.8-6.95,3.52-10.51,10.47-7.95,15.54,2.56,5.06,10.27,6.32,17.23,2.8Z"/>
        <path class="cls-35" d="M385.71,808.4c-.59,0-1.06-.47-1.07-1.06-.02-2.02-1.92-202.54,7.63-273.46,9.35-69.36,32.76-144.32,34.02-148.34l-.18-18.61c0-.59.47-1.07,1.06-1.08.6,0,1.07.47,1.08,1.06l.18,18.78c0,.11-.02.23-.05.33-.24.77-24.46,77.4-33.99,148.14-9.54,70.77-7.63,271.14-7.61,273.15,0,.59-.47,1.07-1.06,1.08h-.01Z"/>
        <path class="cls-27" d="M407.58,299.73c-.13,0-.27-.02-.4-.08-4.44-1.77-14.79-6.25-14.79-9.64,0-.73,0-2.25,13.05-11.46.38-.27.59-.68.6-1.14.08-4.44.16-6.99.26-7.8.07-.58.54-1.01,1.19-.94.59.07,1.01.6.94,1.18-.06.5-.15,2.22-.24,7.58-.02,1.15-.56,2.19-1.5,2.85-7.89,5.57-11.84,9.02-12.17,9.87.14,1.12,6.42,4.7,13.46,7.5.55.22.82.84.6,1.39-.16.42-.57.67-.99.67Z"/>
        <path class="cls-28" d="M377.65,429.93c-.75,4.4,1.35,8.42,4.68,8.99,3.33.56,6.63-2.55,7.38-6.94.75-4.4-1.35-8.42-4.68-8.99-3.33-.56-6.63,2.55-7.38,6.94Z"/>
        <path class="cls-28" d="M348.77,644.01c0,4.46,2.74,8.08,6.12,8.08s6.11-3.62,6.11-8.08-2.74-8.08-6.11-8.08-6.12,3.62-6.12,8.08Z"/>
        <path class="cls-28" d="M348.77,715.15c0,4.46,2.74,8.08,6.12,8.08s6.11-3.62,6.11-8.08-2.74-8.08-6.11-8.08-6.12,3.62-6.12,8.08Z"/>
        <path class="cls-12" d="M612.83,771.43c-75.8-9.71-109.74-57.27-124.88-95.47-16.38-41.3-14.88-80.84-14.86-81.24.03-.57.5-1.02,1.07-1.02.64.03,1.09.52,1.07,1.11-.02.39-1.5,39.54,14.74,80.42,14.94,37.63,48.41,84.49,123.01,94.06.59.07,1,.61.92,1.2-.07.54-.53.93-1.06.93Z"/>
        <path class="cls-31" d="M452.7,438.05c-1.9,7.47-5.72,11.59-11.51,16.33-5.88,4.82-9.23,12.58-8.69,20.16.55,7.78,5.19,15.16,11.97,19.02,16.75,9.56,34.88-4.95,40.68-20.57.96-2.58,1.8-5.22,3.17-7.6,3.72-6.49,12.58-10.04,18.51-14.18,7.58-5.29,13.9-12.41,14.49-22.02.54-8.84-3.11-17.97-9.52-24.06-15.72-14.94-44.41-8.62-53.57,10.67-3.42,7.19-3.7,15.09-5.51,22.24Z"/>
        <path class="cls-14" d="M507.01,475.95c-3.46,5.99-9.34,9.07-13.14,6.88-3.8-2.19-4.07-8.83-.61-14.82,3.46-5.99,9.34-9.07,13.14-6.88,3.8,2.19,4.07,8.83.61,14.82Z"/>
        <path class="cls-28" d="M403.26,515.73l13.32,104.26c0,5.1,15.38,9.24,34.36,9.24s34.36-4.14,34.36-9.24l13.32-104.26h-95.36Z"/>
        <ellipse class="cls-28" cx="450.94" cy="515.73" rx="47.68" ry="9.24"/>
        <path class="cls-33" d="M410.2,520.53c8.37,2.66,23.49,4.44,40.74,4.44s32.37-1.78,40.74-4.44c-2.95-4.61-20.05-8.15-40.74-8.15s-37.8,3.54-40.74,8.15Z"/>
        <path class="cls-6" d="M505.43,593.87c3.64-2.42,7.05-5.53,7.71-8.97.91-4.68-1.55-8.11-3.7-10.14,1.67-2.14,2.96-4.89,3.28-8.45,1.15-12.81-17.79-21.68-17.79-21.68l-2.31,18.1s-17.73.1-19.57,9.71c-1.31,6.86,3.51,10.81,3.51,10.81,0,0-7.68,2.58-8.09,7.84-.39,5.03,3.92,8.07,3.92,8.07,0,0-2.87,3.35-2.98,7.87-.12,4.72,3.38,7.49,9.24,8.42,6.43,1.02,20.58.45,26.58-10.01,3.09-5.39,1.99-9.17.2-11.59Z"/>
        <path class="cls-27" d="M482.63,584.66c-3.61,0-5.98-.41-6.24-.46-.52-.09-.87-.6-.78-1.12.1-.52.58-.88,1.12-.78.18.03,17.85,3.05,32.12-8.3.42-.33,1.02-.26,1.35.15.33.42.26,1.02-.15,1.35-9.73,7.74-20.71,9.14-27.42,9.14Z"/>
        <path class="cls-27" d="M479.13,600.37c-3.83,0-6.51-.22-6.82-.24-.53-.04-.93-.51-.88-1.04.04-.53.49-.93,1.04-.88.23.02,22.25,1.78,32.42-5.13.43-.3,1.03-.19,1.34.26.3.44.18,1.04-.26,1.34-7.13,4.85-19.25,5.7-26.85,5.7Z"/>
        <path class="cls-33" d="M427.85,227.85l-29.09,3.03-7.64,14.19s2.91,13.15,17.95,11.12c3.45-.47,6.79-1.78,9.54-3.91,1.36-1.06,2.58-2.3,3.59-3.7.74-1.03,1.65-3.99,3.35-3.46.64.2,1.1.73,1.56,1.21,5.07,5.42,13.49,7.2,18.9,1.03.42-.48,4.38-6.42,3.45-7.04l-21.61-12.47Z"/>
        <path class="cls-2" d="M392.24,238.02c-.97-.13-1.5-.83-1.39-1.6.03-.23.83-5.58,5.39-8.63,3.21-2.15,7.4-2.59,12.45-1.3.75.19,1.21.96,1.01,1.71-.19.75-.94,1.21-1.71,1.01-4.23-1.08-7.65-.78-10.17.9-3.51,2.34-4.19,6.66-4.2,6.71-.1.7-.7,1.2-1.39,1.2Z"/>
        <path class="cls-2" d="M443.88,228.58c-.89-.07-1.46-.75-1.4-1.52.02-.26.42-6.29-5.95-8.73-6.5-2.5-12.77,4.05-12.83,4.11-.53.57-1.42.59-1.99.06-.56-.53-.59-1.42-.06-1.99.31-.33,7.61-7.98,15.89-4.81,6.7,2.57,7.99,8.71,7.74,11.59-.07.73-.68,1.28-1.4,1.28Z"/>
        <path class="cls-14" d="M412.2,305.39c.18,0,.36-.03.55-.07.61-.14,1.14-.47,1.69-.78,1.21-.67,2.55-1.2,3.94-1.17,2.61.05,4.81,2.65,4.48,5.24-.34,2.66-2.96,4.79-5.2,5.91-4.36,2.18-8.99,1.12-12.23-2.58-1.14-1.31-1.82-3.16-1.28-4.81.39-1.17,1.37-2.12,2.53-2.53,2.02-.71,3.64.88,5.54.79Z"/>
        <path class="cls-28" d="M362.84,499.46c-.16,4.46,2.44,8.17,5.82,8.3,3.38.12,6.24-3.39,6.4-7.85.16-4.46-2.44-8.17-5.82-8.3-3.38-.12-6.24,3.39-6.4,7.85Z"/>
        <path class="cls-28" d="M353.78,569.78c-.16,4.46,2.44,8.17,5.82,8.3,3.38.12,6.24-3.39,6.4-7.85.16-4.46-2.44-8.17-5.82-8.3-3.38-.12-6.24,3.39-6.4,7.85Z"/>
        <rect class="cls-3" x="214.49" y="432.24" width="152.79" height="209.09" rx="2.85" ry="2.85" transform="translate(827.67 245.9) rotate(90)"/>
        <path class="cls-14" d="M274.23,536.79c0,9.2,7.46,16.66,16.66,16.66s16.66-7.46,16.66-16.66-7.46-16.66-16.66-16.66-16.66,7.46-16.66,16.66Z"/>
        <rect class="cls-20" x="214.49" y="432.24" width="152.79" height="209.09" rx="2.85" ry="2.85" transform="translate(827.67 245.9) rotate(90)"/>
        <path class="cls-4" d="M161.86,509.79c-1.83,33.07,15.84,41.33,24.48,46.26v-21.2s17.68-5.18,16.3-15.02c-.89-6.34-9.11-7.07-9.11-7.07,0,0,11.43-3.45,10.92-12.53-.39-6.91-10.92-8.62-10.92-8.62,0,0,9.87-3.31,9.87-10.84,0-10.93-39.61-5.75-41.53,29.02Z"/>
        <path class="cls-27" d="M167.61,497.71c-.34,0-.67-.18-.84-.49-.26-.47-.09-1.05.37-1.31,14.22-7.92,26.11-5.35,26.6-5.24.52.12.85.63.73,1.15-.12.52-.64.85-1.15.73-.12-.03-11.69-2.5-25.24,5.04-.15.08-.31.12-.47.12Z"/>
        <path class="cls-27" d="M168.48,519.77c-.29,0-.58-.13-.77-.38-.32-.42-.24-1.03.19-1.35,9.97-7.54,25.09-6.29,25.72-6.24.53.05.92.51.87,1.04-.05.53-.52.93-1.04.87-.15-.01-15.02-1.23-24.38,5.85-.18.13-.38.19-.58.19Z"/>
        <path class="cls-33" d="M800.24,323.19c1.79.11.66,16.35.61,17.85-.21,5.97-2.49,11.48,5.64,12.07,3.91.28,7.85.18,11.74.64,6.27.74,11.69,3.6,16.2,7.98,7.11,6.9,10.46,17.3,10.09,27.07-.62,16.42-10.93,32.52-28.61,32.2-14.77-.27-28.31-7.62-42.71-10v-88.92s27.02,1.11,27.03,1.11Z"/>
        <path class="cls-33" d="M803.97,255.73s-2.34-15.61-23.82-21.2c-1.84-.48-3.11-1.21-5.18-1.4-2.69-.26-5.39-.43-8.1-.51-15.98-.5-32.47,1.81-47.07,8.58-9.73,4.51-20.46,11.85-23.51,22.77-2.3,8.21-2.2,17.22-2.11,25.68.09,9.04.94,17.6,2.26,26.53.11.78.23,1.59-.02,2.33-.87,2.59-4.11.61-5.74.21-2.77-.66-5.66-.71-8.47-.26-5.36.87-8.42,4.78-10.07,9.67-1.09,3.22-1.12,13.85-4.98,14.36-1.47.19-2.9-.4-4.29-.93-16.6-6.3-38.76-3.94-49.05,12.01-4.13,6.41-5.92,14-7.65,21.43-.81,3.5-.61,7.18-4.67,8.55-2.19.74-4.56.55-6.87.59-38.25.67-48.69,59.44-27.88,84.26,8.04,9.59,20.12,14.22,32.27,15.73,58.82,7.35,142.04-32.82,142.04-32.82l-5.16-37.77c26.85-10.83,29.49-58.76,16.06-126.96,0,0,41.54-32.51,52.05-30.85Z"/>
        <path class="cls-7" d="M819.91,381.73s78.27,40.5,120.43,127.49l12.2-126.8,52.52,5.13s57.77,131.2,57.77,222.06-140.64,125.26-234.37,63.09l-8.56-286.53v-4.44Z"/>
        <path class="cls-13" d="M946.16,634.22c-.45,0-.87-.29-1.02-.74-15.2-46.9-5.96-123.62-5.86-124.39.08-.58.61-1,1.19-.93.59.07,1,.61.93,1.19-.09.76-9.28,77.02,5.78,123.47.18.56-.13,1.16-.69,1.34-.11.04-.22.05-.33.05Z"/>
        <path class="cls-28" d="M939.33,692.2c-.9,4.01-1.48,8.01-1.76,11.99,53.96-.68,102.57-23.79,119.19-63.61-6.71-3.86-14.07-6.84-22.02-8.64-42.99-9.71-85.7,17.27-95.41,60.26Z"/>
        <path class="cls-12" d="M1005.06,387.55l-52.52-5.13-12.2,126.8c-42.16-86.99-120.43-127.49-120.43-127.49v4.44l8.56,286.53c93.72,62.16,234.37,27.76,234.37-63.09s-57.77-222.05-57.77-222.05Z"/>
        <polygon class="cls-33" points="1000.89 311.3 1017.41 310.34 1007.37 323.36 934.57 362.51 928.08 350.45 1000.89 311.3"/>
        <rect class="cls-28" x="930.9" y="347.94" width="7.15" height="13.69" transform="translate(-56.57 485.01) rotate(-28.28)"/>
        <path class="cls-28" d="M1000.89,311.3s16.53-.96,16.53-.96l-10.04,13.02s-6.48-12.06-6.48-12.06Z"/>
        <path class="cls-16" d="M1007.37,323.36l-12.54,6.74c3-12.99-12.97-8.31-12.97-8.31l17.06-9.43s-8.35-1.65-12.02-1.3c-5.53.52-11.95,3.78-20.4,8.84-8.45,5.05-13.62,17.22-13.62,17.22l24.18-13c-11.09,7.33-17.02,24.7-17.02,24.7l-7.27,3.91-.24,29.7c16.82,20.53,52.52,5.13,52.52,5.13l8.6-32.76c11.15-10.7-.51-18.36-.51-18.36.24-10.39-5.79-13.07-5.79-13.07Z"/>
        <path class="cls-27" d="M1001.86,365.36c-.79-.14-1.17-.71-1.05-1.28,1.55-7.45.74-12.95-2.42-16.36-4.43-4.8-12.12-3.89-12.18-3.88-.53.07-.98-.23-1.14-.7-.17-.47.02-1,.45-1.26.08-.05,8.14-5.11,8.58-14.5.09-1.92-.41-3.28-1.54-4.14-2.85-2.18-9.18-.83-11.38-.13-.51.17-1.09-.09-1.31-.6-.22-.51,0-1.1.48-1.36l18.07-9.72c.52-.28,1.16-.09,1.44.43.28.52.08,1.17-.44,1.45l-12.29,6.61c2.37-.09,4.92.25,6.71,1.62,1.7,1.3,2.51,3.3,2.39,5.94-.33,6.97-4.26,11.72-6.99,14.2,3.03.2,7.51,1.13,10.72,4.6,3.65,3.95,4.64,10.09,2.94,18.25-.11.5-.55.85-1.05.85Z"/>
        <path class="cls-27" d="M996.38,345.85c-.39,0-.77-.22-.95-.59-.26-.53-.05-1.17.48-1.43l16.78-8.35c.52-.26,1.17-.05,1.43.48.26.53.05,1.17-.48,1.43l-16.78,8.35c-.15.08-.31.11-.48.11Z"/>
        <path class="cls-27" d="M1006.45,359.71c-1.36,0-2.82-.34-4.33-1.17-.52-.29-.7-.93-.42-1.45.29-.52.94-.7,1.45-.42,5.39,2.97,9.49-2.3,9.66-2.53.36-.47,1.03-.56,1.49-.2.47.36.56,1.02.21,1.49-1.34,1.78-4.36,4.27-8.07,4.27Z"/>
        <path class="cls-33" d="M1087.45,319.58c-.64,0-1.29-.03-1.95-.1-4.61-.47-8.93-2.43-12.23-5.47-.19.12-.38.24-.58.35-4.06,2.43-8.12,3.91-12.09,4.41-4.52.57-9.53-.08-14.9-1.95l-.44-.15c-1.77-.61-3.73-1.29-5.56-2.21-2.92,1.29-6.42,1.81-9.79,1.37-4.61-.6-8.83-2.47-12.92-4.27-.54-.24-.78-.87-.55-1.41.24-.54.88-.78,1.41-.55,3.95,1.75,8.04,3.55,12.34,4.11,2.44.32,4.95.08,7.18-.64-1.31-.93-2.45-2.06-3.27-3.47-1.34-2.33-1.39-5.38-.14-7.77,1.26-2.38,3.8-4.06,6.49-4.27,2.13-.17,4.1.58,5.31,2,1.1,1.31,1.58,3.22,1.32,5.39-.37,3.11-1.88,5.78-4.39,7.74-.22.17-.44.33-.67.49,1.32.57,2.68,1.04,3.94,1.48l.44.15c5.05,1.76,9.73,2.38,13.92,1.85,3.68-.47,7.47-1.86,11.27-4.13-.03-.29-.19-.5-.36-.7-1.78-2.24-2.76-4.81-2.75-7.25.02-2.91,1.52-5.63,3.82-6.94,2.63-1.49,6.09-.92,7.87,1.31,2.06,2.6,1.32,6.37-.33,8.96-1.12,1.77-2.66,3.35-4.75,4.86,2.91,2.54,6.64,4.17,10.62,4.57,5.5.56,10.52-1.72,15.99-4.54.53-.27,1.17-.06,1.44.46.27.52.07,1.17-.46,1.44-5.16,2.66-9.93,4.87-15.25,4.87ZM1041.04,299.68c-.14,0-.27,0-.41.02-1.98.16-3.84,1.39-4.77,3.14-.93,1.75-.89,3.99.1,5.71.85,1.48,2.22,2.61,3.81,3.52.58-.31,1.13-.67,1.62-1.06,2.08-1.62,3.28-3.74,3.59-6.3.11-.91.14-2.61-.83-3.76-.68-.8-1.84-1.26-3.1-1.26ZM1075.47,298.97c-.73,0-1.47.17-2.11.54-1.65.94-2.73,2.94-2.74,5.09-.01,1.95.8,4.05,2.28,5.9.21.26.43.52.66.77,2.01-1.42,3.46-2.88,4.49-4.49,1.24-1.95,1.86-4.71.45-6.49-.68-.86-1.85-1.32-3.04-1.32Z"/>
        <path class="cls-27" d="M976.64,325.37c-.38,0-.75-.21-.94-.57-.27-.52-.08-1.17.45-1.44l4.21-2.23c.51-.27,1.17-.08,1.44.44.27.52.08,1.17-.45,1.44l-4.21,2.23c-.16.08-.33.12-.5.12Z"/>
        <path class="cls-12" d="M905.03,807.34s-20.66-209.86-21.07-232.67c-.41-22.81,14.02-102.9-15.79-146.96-29.82-44.06-51.47-55.45-107.91-53.58-34.18,1.14-68.54,11.74-98.79,27.37-30.39,15.71-53.17,40.59-72.84,68.09-22.21,31.05-44.23,64.43-57.53,100.41-18.99,51.4-31.91,152.85,48.77,176.61,8.76,2.58,17.6,4.29,26.44,5.07l-12.09,55.66h310.82Z"/>
        <path class="cls-2" d="M787.31,351.03s-25.58-14.82-54.99-1.55l45.54,26.18,9.45-24.63Z"/>
        <polygon class="cls-17" points="741.03 301.25 741.03 376.68 782.3 376.68 782.3 331.03 741.03 301.25"/>
        <path class="cls-24" d="M748.6,304.11s4.15,32.52,29.81,39.99c10.03,2.92,18.89-.07,24.21-5.18,8.28-7.96,9.31-23.43,8.67-33.6-1.12-17.56-4.79-41.17-7.31-49.59l-27.77-20.44s-16.58,45.21-24.27,51.3l-3.32,17.53Z"/>
        <path class="cls-18" d="M784.63,334.63c-24.44-7.12-31.85-34.06-33.66-42.96,0,0-2.36,12.44-2.36,12.44,0,0,4.15,32.52,29.81,39.99,10.03,2.92,18.89-.07,24.21-5.18,1.85-1.78,3.3-3.98,4.49-6.37-5.97,3.29-13.85,4.59-22.48,2.08Z"/>
        <path class="cls-30" d="M775.32,294.37c-.65,4.8-5.06,8.16-9.86,7.52-4.8-.65-8.16-5.06-7.52-9.86.65-4.8,5.06-8.16,9.86-7.52,4.8.65,8.16,5.06,7.52,9.86Z"/>
        <path class="cls-30" d="M806.26,288.45c-.49,3.66,1.35,7.09,4.37,8.8-.44-4.62-1-9.42-1.62-14.08-1.45,1.34-2.47,3.17-2.75,5.28Z"/>
        <path class="cls-25" d="M771.45,284.44c-.97,0-1.75-.78-1.75-1.75v-4.34c0-.97.78-1.75,1.75-1.75s1.75.78,1.75,1.75v4.34c0,.97-.78,1.75-1.75,1.75Z"/>
        <path class="cls-25" d="M796.8,284.44c-.97,0-1.75-.78-1.75-1.75v-4.34c0-.97.78-1.75,1.75-1.75s1.75.78,1.75,1.75v4.34c0,.97-.79,1.75-1.75,1.75Z"/>
        <path class="cls-14" d="M834.12,426.57c1.71,4.12.56,8.51-2.56,9.8-3.12,1.29-7.03-1-8.74-5.12-1.71-4.12-.56-8.51,2.56-9.8,3.12-1.29,7.03,1,8.74,5.12Z"/>
        <path class="cls-14" d="M849.68,482.66c1.08,4.33-.7,8.5-3.98,9.32-3.28.82-6.81-2.03-7.89-6.36-1.08-4.33.7-8.5,3.98-9.32,3.28-.82,6.81,2.03,7.89,6.36Z"/>
        <path class="cls-14" d="M850.85,540.68c-1.01,4.35-4.5,7.25-7.79,6.48-3.29-.77-5.13-4.91-4.12-9.26,1.01-4.35,4.5-7.25,7.79-6.48,3.29.77,5.13,4.91,4.12,9.26Z"/>
        <path class="cls-14" d="M849.86,591.7c0,4.46-2.74,8.08-6.12,8.08s-6.12-3.62-6.12-8.08,2.74-8.08,6.12-8.08,6.12,3.62,6.12,8.08Z"/>
        <path class="cls-14" d="M787.31,351.03l12.3,40.06c.67,2.02-1.43,3.85-3.34,2.9l-17.11-8.47-6.07,17.46c-1.14,3.27-4.97,4.71-7.98,2.99l-44.38-26.34,11.59-30.16,42.81,21.77,12.18-20.21Z"/>
        <path class="cls-35" d="M589.45,626.2c-.26,0-.52-.09-.72-.28-.43-.4-.46-1.08-.06-1.51.27-.29,27.01-29.18,58.15-53.67,27.76-21.83,73.03-41.55,73.49-41.74.54-.23,1.17.01,1.41.56.23.54-.01,1.17-.56,1.4-.45.2-45.48,19.8-73.02,41.46-31,24.38-57.63,53.15-57.9,53.44-.21.23-.5.34-.79.34Z"/>
        <path class="cls-27" d="M794.42,303.58c-.3,0-.6-.13-.81-.37-.38-.45-.33-1.12.12-1.51,5.01-4.28,10.4-9.22,11.94-11.11-.93-.2-3.11-.47-8.29-.44-2.27,0-4.16-1.75-4.34-4l-.74-9.46c-.05-.59.39-1.1.98-1.15.67-.04,1.1.4,1.15.98l.74,9.47c.09,1.14,1.16,2.06,2.19,2.03,9.14-.05,9.97.81,10.38,1.22.2.2.42.7.42.99,0,.53,0,1.95-13.06,13.11-.2.17-.45.26-.69.26Z"/>
        <path class="cls-32" d="M729.99,280.19c-7.76-1.11-15.13,1.9-18.22,8.18-4.05,8.22.75,18.88,10.74,23.81,2.84,1.4,5.77,2.16,8.63,2.36-1.24-12.11-1.26-26.44-1.14-34.35Z"/>
        <path class="cls-10" d="M730.68,309.43c-.6-8.11-.75-16.65-.74-23.29-6.39-.46-11.89,1.93-13.46,6.47-2.05,5.93,3.33,13.17,12.02,16.18.73.25,1.46.46,2.18.64Z"/>
        <path class="cls-35" d="M701.3,540.53c-.83-.17-1.18-.75-1.03-1.32l19.43-79.07c.14-.57.7-.92,1.29-.78.57.14.92.72.78,1.29l-19.43,79.07c-.12.49-.56.81-1.04.81Z"/>
        <path class="cls-19" d="M762.1,494.34c-9.14,3.91-42.57,35.44-42.57,35.44,0,0,14.48,30.84,39.47,32.62l26.64-24.92s17.62-8.14,14.96-16.33c-1.18-3.63-4.09-4.82-6.96-5.03,1.51-2.02,3-4.77,2.18-7.19-.9-2.64-3.96-3.85-6.28-4.42,6.59-2.81,21.85-10.28,18.73-18.06-3.96-9.85-37.02,3.98-46.16,7.89Z"/>
        <path class="cls-27" d="M781.3,508.02c-.3,0-.6-.13-.81-.37-.37-.44-.34-1.09.09-1.48.19-.17,2.1-1.73,8.79-2.72.63-.09,1.13.32,1.21.9.08.58-.32,1.13-.9,1.21-6,.89-7.69,2.21-7.71,2.22-.2.16-.44.24-.68.24Z"/>
        <path class="cls-27" d="M785.64,538.55c-.4,0-.78-.22-.96-.6-.86-1.76-.91-3.37-.15-4.81,1.73-3.29,7.19-4.14,7.42-4.18.6-.09,1.13.31,1.21.9.09.58-.31,1.13-.89,1.22-1.28.2-4.84,1.13-5.86,3.07-.42.81-.37,1.75.18,2.88.26.53.04,1.17-.49,1.43-.15.07-.31.11-.47.11Z"/>
        <path class="cls-27" d="M785.42,519.66c-.37,0-.72-.19-.92-.53-.3-.51-.12-1.16.38-1.46,5.43-3.15,8.79-2.64,8.93-2.61.58.1.98.64.88,1.23-.09.58-.59.97-1.21.88-.09-.01-2.9-.33-7.52,2.35-.17.1-.35.14-.54.14Z"/>
        <path class="cls-29" d="M619.9,750.84c1.58-8.07,1.98-16.51.89-25.11-5.52-43.72-45.44-74.68-89.16-69.16-4.98.63-9.79,1.71-14.4,3.2,2.66,38.21,18.88,73.95,62.64,86.84,8.76,2.58,17.6,4.29,26.44,5.07l-.11.52c4.46-.26,9.03-.71,13.71-1.36Z"/>
        <path class="cls-23" d="M759,562.39s-26.75,77.49-76.35,121.75c-49.6,44.25-106.61,36.08-134.66-7.28-19.86-30.7-5.36-109.26,4.79-152.52-8.42,14.74-15.89,29.95-21.69,45.66-18.99,51.4-31.91,152.85,48.77,176.61,8.76,2.58,17.6,4.29,26.44,5.07,132.27,2.77,152.7-189.28,152.7-189.28Z"/>
        <path class="cls-35" d="M609.04,752.77c-.92,0-1.84-.01-2.76-.03-.59-.01-1.06-.5-1.05-1.09.01-.59.57-1.06,1.09-1.05.92.02,1.84.03,2.74.03,66.01,0,102.85-50.37,122.2-92.96,21.33-46.97,26.63-94.92,26.68-95.4.06-.58.54-1.01,1.17-.95.58.06,1.01.59.95,1.17-.05.48-5.37,48.73-26.84,96.01-28.02,61.72-70.93,94.26-124.19,94.26Z"/>
        <path class="cls-33" d="M731.13,329.63l-42.23,44.31-35.62,18.33s8.85,33.23,35.62,35.62c8.08.72,16.48-1.02,23.66-5.32,3.82-2.29,7.23-5.19,10.35-8.35,12.3-12.48,32.46,10.12,42.21-8.25,8.67-16.33-12.47-46.17-12.47-46.17l-.71-73.22-22.15-9.99,1.35,53.03Z"/>
        <path class="cls-33" d="M803.97,255.73s-16.02-19.38-27.77-20.44c-11.75-1.06-24.38,40.06-24.27,51.3,0,0,21.4-15.06,25.93-38.73,0,0,6.2,15.3,10.74,12.43,4.54-2.87-6.3-15.3-6.3-15.3,0,0,15.3,11.69,21.68,10.75Z"/>
        <path class="cls-33" d="M790.7,308.21c-.18,0-.36-.03-.55-.07-.61-.14-1.14-.47-1.69-.78-1.21-.67-2.55-1.2-3.94-1.17-2.61.05-4.81,2.65-4.48,5.24.34,2.66,2.96,4.79,5.2,5.91,4.36,2.18,8.99,1.12,12.23-2.58,1.14-1.31,1.82-3.16,1.28-4.81-.39-1.17-1.37-2.12-2.53-2.53-2.02-.71-3.64.88-5.54.79Z"/>
        <path class="cls-2" d="M741.03,268.31c-.53,0-1.03-.3-1.27-.81-.33-.7-.03-1.54.68-1.87,12.84-6.04,18.41-22.24,18.46-22.4.24-.73,1.02-1.13,1.78-.89.74.25,1.13,1.04.89,1.78-.24.71-5.98,17.5-19.93,24.05-.19.09-.4.13-.6.13Z"/>
        <path class="cls-2" d="M583.06,451.93c-.58,0-1.12-.36-1.32-.94-.29-.81-6.83-20.09,6.35-34.26,6.11-6.56,13.26-7.38,20.84-8.25,1.28-.15,2.59-.3,3.91-.48,8-1.09,11.61-6.67,12.04-18.66.43-11.71,1.09-29.4,17.28-32.39,4.74-.87,9.59.16,13.78,1.19l1.23.31c3.78.94,7.65,1.91,11.49,1.76,5.64-.24,10.05-3.41,11.51-8.29.38-1.26.58-2.6.79-4.02.54-3.55,1.14-7.58,4.91-10.1,4.68-3.13,8.57-2.08,11.69-1.23,2.69.73,4.3,1.09,6.05-.16,4.58-3.28,5.2-11.81,5.2-11.9.05-.77.7-1.37,1.49-1.31.78.05,1.36.72,1.31,1.49-.03.4-.72,9.95-6.38,14-2.9,2.08-5.71,1.32-8.42.58-2.96-.81-5.77-1.57-9.39.85-2.73,1.83-3.18,4.77-3.69,8.18-.22,1.45-.45,2.96-.88,4.4-1.78,5.97-7.31,10.01-14.08,10.3-4.2.18-8.33-.85-12.29-1.84l-1.23-.3c-4.08-1.01-8.42-1.93-12.59-1.15-12.92,2.39-14.46,15.43-14.99,29.73-.31,8.36-2.14,19.66-14.47,21.34-1.35.18-2.67.34-3.98.48-7.35.84-13.7,1.57-19.1,7.37-12.01,12.91-5.82,31.23-5.76,31.42.25.73-.13,1.53-.87,1.79-.15.05-.31.08-.46.08Z"/>
        <path class="cls-2" d="M716.04,270.32c-.9-.07-1.47-.76-1.4-1.53,1.04-11.71,7.39-19.08,7.66-19.39.51-.58,1.4-.64,1.98-.13.58.51.64,1.4.13,1.98-.06.07-6.03,7.03-6.98,17.78-.07.73-.68,1.28-1.4,1.28Z"/>
        <path class="cls-2" d="M711.89,399.07c-2.74,0-5.56-.37-8.36-1.12-.75-.2-1.2-.97-.99-1.72.2-.75.98-1.19,1.72-.99,7.41,1.99,14.9,1.06,20.52-2.54,7.89-5.05,10.8-14.23,11.83-19.25,1.41-6.9,1.24-14.18,1.07-21.22l-.06-2.73c-.02-.78.6-1.42,1.38-1.43.79,0,1.42.61,1.43,1.38l.06,2.72c.17,7.19.35,14.63-1.13,21.85-1.94,9.42-6.57,16.9-13.07,21.05-4.14,2.65-9.14,4.01-14.41,4.01Z"/>
        <path class="cls-30" d="M783.47,308.27c-.89-.12-1.77-.1-2.62.04-.61.91-.93,2.01-.79,3.12.34,2.66,2.96,4.79,5.2,5.91,1.89.94,3.83,1.28,5.68,1.06.69-5.07-2.68-9.48-7.47-10.13Z"/>
        <path class="cls-28" d="M1179.72,481.25c.02-.98-.35-1.39-1.23-1.7-2.65-.91-5.3-1.86-7.89-2.93-.61-.25-1.21-.93-1.48-1.55-1.09-2.52-2.08-5.09-3.02-7.66-.19-.51-.22-1.23,0-1.71,1.28-2.85,2.69-5.64,3.96-8.49.19-.43.09-1.26-.21-1.58-2.14-2.28-4.39-4.46-6.55-6.72-.58-.6-1.04-.65-1.78-.29-2.7,1.34-5.43,2.65-8.18,3.88-.53.24-1.31.28-1.86.09-2.63-.95-5.24-1.97-7.82-3.06-.59-.25-1.25-.79-1.48-1.36-1.07-2.65-2.03-5.34-2.95-8.05-.3-.87-.65-1.29-1.66-1.26-3.02.08-6.05.07-9.07,0-.99-.02-1.39.37-1.69,1.24-.91,2.65-1.94,5.26-2.84,7.92-.3.9-.78,1.3-1.69,1.62-2.49.87-4.96,1.85-7.36,2.94-.89.41-1.51.4-2.34-.02-2.65-1.33-5.35-2.56-8-3.89-.79-.4-1.29-.32-1.91.33-2.09,2.18-4.22,4.33-6.42,6.41-.74.7-.68,1.25-.28,2.05,1.31,2.66,2.6,5.33,3.79,8.05.24.55.19,1.4-.05,1.97-1.1,2.57-2.28,5.12-3.54,7.62-.31.62-.91,1.28-1.53,1.51-2.82,1.07-5.68,2.03-8.55,2.96-.88.29-1.28.67-1.26,1.67.07,3.02.06,6.05,0,9.07-.02.89.27,1.3,1.13,1.58,2.92.94,5.84,1.91,8.71,3.01.61.23,1.19.93,1.49,1.56,1.16,2.43,2.11,4.96,3.32,7.37.49.98.53,1.7.06,2.64-1.25,2.51-2.4,5.08-3.64,7.59-.41.82-.39,1.37.32,2.05,2.19,2.08,4.33,4.22,6.41,6.41.69.73,1.23.69,2.04.29,2.61-1.29,5.27-2.49,7.87-3.79.84-.42,1.47-.37,2.34.06,2.51,1.24,5.12,2.26,7.65,3.46.53.25,1.09.81,1.29,1.35,1.08,2.87,2.07,5.78,3.03,8.7.28.84.69,1.16,1.59,1.14,3.02-.05,6.05-.06,9.07,0,.98.02,1.37-.33,1.66-1.24.92-2.87,1.91-5.73,2.98-8.55.22-.58.85-1.16,1.43-1.44,2.58-1.21,5.21-2.34,7.85-3.41.54-.22,1.33-.27,1.85-.03,3.09,1.37,6.13,2.85,9.3,4.34,2.48-2.52,4.97-4.98,7.36-7.53.3-.32.34-1.16.14-1.61-1.23-2.76-2.59-5.45-3.83-8.2-.23-.51-.3-1.23-.12-1.74.94-2.69,1.93-5.37,3.01-8,.24-.59.83-1.21,1.41-1.44,2.65-1.07,5.34-2.04,8.04-2.98.84-.29,1.13-.72,1.11-1.61-.05-3.02-.06-6.05,0-9.07ZM1133,503.44c-9.79,0-17.66-7.88-17.65-17.7,0-9.87,7.88-17.67,17.83-17.65,9.67.02,17.52,7.96,17.52,17.69,0,9.79-7.89,17.65-17.7,17.65Z"/>
        <path class="cls-31" d="M646.03,201.01c.03-1.2-.43-1.71-1.52-2.08-3.26-1.12-6.5-2.29-9.69-3.59-.75-.31-1.49-1.14-1.82-1.9-1.34-3.09-2.55-6.24-3.71-9.41-.23-.63-.27-1.51,0-2.1,1.57-3.5,3.3-6.93,4.86-10.43.23-.52.11-1.55-.26-1.94-2.63-2.8-5.39-5.48-8.04-8.25-.71-.74-1.28-.8-2.18-.35-3.32,1.65-6.66,3.25-10.04,4.76-.66.29-1.61.35-2.29.1-3.23-1.16-6.44-2.42-9.6-3.76-.72-.31-1.53-.97-1.81-1.67-1.31-3.25-2.49-6.56-3.63-9.88-.37-1.06-.79-1.58-2.04-1.55-3.71.09-7.42.08-11.14,0-1.21-.03-1.7.45-2.07,1.53-1.12,3.26-2.38,6.46-3.49,9.72-.37,1.1-.96,1.6-2.08,1.99-3.06,1.06-6.09,2.27-9.04,3.62-1.09.5-1.85.49-2.87-.03-3.25-1.64-6.57-3.15-9.82-4.77-.97-.49-1.58-.39-2.35.41-2.57,2.68-5.19,5.32-7.88,7.87-.91.86-.84,1.53-.34,2.52,1.61,3.26,3.2,6.55,4.66,9.88.3.68.24,1.72-.06,2.41-1.35,3.16-2.8,6.28-4.34,9.36-.38.76-1.11,1.57-1.87,1.86-3.46,1.32-6.98,2.49-10.5,3.64-1.08.35-1.57.83-1.54,2.05.08,3.71.07,7.42,0,11.14-.02,1.1.33,1.6,1.38,1.94,3.59,1.16,7.17,2.35,10.69,3.69.75.29,1.47,1.14,1.83,1.91,1.42,2.99,2.59,6.1,4.08,9.04.6,1.2.65,2.09.07,3.25-1.54,3.08-2.94,6.23-4.47,9.32-.5,1.01-.48,1.68.4,2.52,2.69,2.56,5.32,5.18,7.87,7.88.85.9,1.51.85,2.51.36,3.2-1.59,6.46-3.06,9.67-4.65,1.03-.51,1.8-.45,2.87.07,3.08,1.52,6.29,2.78,9.4,4.24.65.31,1.33.99,1.58,1.66,1.32,3.53,2.54,7.1,3.72,10.68.34,1.03.85,1.42,1.96,1.4,3.71-.06,7.43-.07,11.14,0,1.2.03,1.68-.41,2.04-1.52,1.13-3.53,2.34-7.03,3.66-10.49.27-.72,1.04-1.43,1.75-1.76,3.17-1.48,6.39-2.87,9.64-4.18.67-.27,1.63-.33,2.27-.04,3.79,1.68,7.53,3.5,11.42,5.33,3.05-3.09,6.1-6.12,9.04-9.24.37-.39.42-1.43.18-1.97-1.51-3.38-3.18-6.69-4.71-10.07-.28-.62-.37-1.51-.15-2.14,1.15-3.31,2.37-6.59,3.7-9.83.3-.72,1.02-1.48,1.74-1.77,3.25-1.31,6.56-2.5,9.87-3.66,1.03-.36,1.38-.88,1.37-1.97-.07-3.71-.07-7.42,0-11.13ZM588.66,228.26c-12.03,0-21.68-9.68-21.67-21.73,0-12.12,9.68-21.69,21.9-21.67,11.87.03,21.51,9.77,21.51,21.73-.01,12.02-9.69,21.67-21.73,21.68Z"/>
        <path class="cls-33" d="M374.61,156.49c-.1,0-.2-.01-.3-.04-.7-.17-1.12-.87-.95-1.56,1.43-5.92,3.1-11.83,4.96-17.54.22-.68.94-1.05,1.63-.83.68.22,1.05.95.83,1.63-1.84,5.65-3.49,11.49-4.91,17.35-.14.59-.67.99-1.25.99ZM385.84,122.04c-.16,0-.34-.03-.5-.1-.66-.27-.97-1.03-.69-1.69,2.36-5.66,4.97-11.21,7.74-16.52.33-.63,1.11-.88,1.74-.55.63.33.87,1.11.55,1.74-2.74,5.24-5.31,10.73-7.65,16.32-.21.5-.69.79-1.19.79ZM644.02,106.01c-3.3,0-6.87-1.42-10.04-4-.55-.45-.64-1.26-.19-1.82.45-.56,1.26-.63,1.82-.19,5.14,4.18,11.12,4.56,14.39.61.46-.55,1.27-.63,1.82-.17.55.45.63,1.27.17,1.82-2.03,2.45-4.79,3.75-7.97,3.75ZM402.65,89.95c-.24,0-.48-.07-.7-.21-.6-.39-.77-1.19-.39-1.78,3.32-5.16,6.9-10.15,10.62-14.84.45-.56,1.25-.65,1.81-.21.56.44.65,1.25.21,1.81-3.67,4.63-7.2,9.55-10.47,14.64-.25.38-.66.59-1.09.59ZM626.32,86.75c-.64,0-1.19-.47-1.28-1.12-.15-1.15-.23-2.32-.22-3.49,0-2.9.47-5.85,1.39-8.76.64-2.03,1.37-4.05,2.16-6,.27-.66,1.02-.98,1.68-.71.66.27.98,1.02.71,1.68-.76,1.89-1.47,3.85-2.09,5.81-.84,2.66-1.27,5.34-1.27,7.98,0,1.06.07,2.11.2,3.14.1.71-.4,1.36-1.11,1.45-.06,0-.11.01-.17.01ZM654.24,85.35c-.65,0-1.21-.49-1.28-1.15-.58-5.28-2.58-10.79-5.94-16.38-.37-.61-.17-1.4.44-1.77.61-.37,1.4-.17,1.77.44,3.55,5.92,5.67,11.78,6.29,17.43.08.71-.44,1.35-1.14,1.42-.05,0-.1,0-.14,0ZM867.7,78.03c-.49,0-.96-.28-1.17-.76-1.42-3.11-3.55-6.48-6.34-10.02-.44-.56-.35-1.37.21-1.81.56-.44,1.37-.35,1.81.21,2.92,3.7,5.16,7.25,6.66,10.55.3.65.01,1.41-.64,1.71-.17.08-.35.12-.53.12ZM425.16,61.61c-.33,0-.65-.12-.9-.37-.51-.5-.52-1.32-.02-1.83,4.28-4.38,8.81-8.53,13.45-12.33.55-.45,1.36-.37,1.82.18.45.55.37,1.37-.18,1.82-4.57,3.74-9.02,7.83-13.24,12.14-.25.26-.59.39-.92.39ZM848.8,54.54c-.32,0-.64-.12-.89-.35-3.65-3.44-7.45-6.78-10.8-9.72l-2.67-2.35c-.53-.47-.59-1.29-.11-1.82.48-.53,1.29-.59,1.83-.11l2.67,2.35c3.36,2.95,7.18,6.3,10.86,9.78.52.49.55,1.31.06,1.83-.26.27-.6.41-.94.41ZM636.93,54.23c-.34,0-.67-.13-.93-.39-3.91-4.01-8.43-8-13.45-11.85-.56-.43-.67-1.24-.24-1.81.43-.57,1.24-.67,1.81-.24,4.8,3.68,9.16,7.49,12.98,11.33,3.49-4.98,7.57-9.62,12.16-13.81.53-.48,1.35-.44,1.82.08.48.53.45,1.34-.08,1.82-4.45,4.07-8.4,8.56-11.76,13.35-.25.36-.58.57-1.06.55-.05.22-.17.43-.35.6-.25.24-.57.37-.9.37ZM453.13,38.72c-.42,0-.84-.21-1.09-.59-.38-.6-.21-1.4.39-1.78,5.11-3.29,10.47-6.3,15.9-8.96.64-.31,1.41-.05,1.73.59.31.64.05,1.41-.59,1.73-5.35,2.61-10.62,5.58-15.64,8.81-.22.14-.46.21-.7.21ZM608.3,32.14c-.22,0-.44-.06-.65-.17-5.09-2.95-10.51-5.59-16.11-7.86-.66-.27-.98-1.02-.71-1.68.26-.66,1.03-.98,1.68-.71,5.72,2.31,11.25,5.01,16.44,8.02.62.36.83,1.15.47,1.77-.24.41-.67.64-1.12.64ZM820.75,31.7c-.23,0-.46-.06-.67-.19-4.92-3.01-10.28-5.76-15.94-8.2-.65-.28-.96-1.04-.68-1.7.28-.66,1.04-.96,1.69-.68,5.78,2.48,11.25,5.3,16.27,8.37.61.37.8,1.17.43,1.78-.24.4-.67.62-1.1.62ZM664.61,28.88c-.44,0-.86-.22-1.1-.62-.37-.61-.18-1.4.43-1.77,5.05-3.08,10.56-5.84,16.37-8.2.66-.27,1.41.05,1.68.71.27.66-.05,1.41-.71,1.68-5.68,2.31-11.07,5.01-16,8.02-.21.13-.44.19-.67.19ZM485.61,22.87c-.53,0-1.03-.33-1.22-.87-.23-.67.12-1.41.79-1.64,5.7-1.99,11.6-3.67,17.55-5,.71-.16,1.39.28,1.54.98.16.7-.28,1.39-.98,1.54-5.85,1.31-11.67,2.96-17.27,4.92-.14.05-.28.07-.42.07ZM574.82,18.54c-.11,0-.22-.01-.32-.04-5.74-1.48-11.68-2.62-17.63-3.38-.71-.09-1.21-.74-1.12-1.44.09-.7.72-1.22,1.44-1.12,6.06.77,12.1,1.93,17.95,3.44.69.18,1.1.88.93,1.57-.15.58-.68.97-1.25.97ZM787.58,17.31c-.12,0-.24-.02-.36-.05-5.65-1.66-11.53-3.04-17.5-4.12-.7-.13-1.17-.8-1.04-1.5.12-.7.75-1.18,1.5-1.04,6.05,1.09,12.03,2.5,17.76,4.18.68.2,1.08.92.88,1.6-.16.56-.68.93-1.24.93ZM698.01,15.14c-.58,0-1.1-.39-1.25-.97-.18-.69.24-1.39.93-1.57,5.76-1.47,11.8-2.62,17.94-3.43.73-.1,1.35.41,1.45,1.11.09.71-.41,1.36-1.11,1.45-6.04.79-11.98,1.93-17.64,3.37-.11.03-.21.04-.32.04ZM520.88,14.95c-.65,0-1.21-.49-1.28-1.15-.08-.71.44-1.35,1.14-1.42,3.18-.35,6.42-.62,9.65-.79,2.65-.14,5.34-.22,8-.22h.58c.71,0,1.29.58,1.29,1.29s-.58,1.29-1.29,1.29c0,0-.58,0-.58,0-2.62,0-5.26.07-7.86.21-3.18.17-6.37.43-9.5.78-.05,0-.1,0-.14,0ZM751.98,10.85c-6.08-.47-12.09-.63-18.08-.49-.65.03-1.3-.55-1.32-1.26-.02-.71.55-1.3,1.26-1.32,6.03-.15,12.17.02,18.24.49.71.05,1.24.68,1.19,1.39-.05.68-.62,1.19-1.29,1.19Z"/>
        <path class="cls-15" d="M477.94,22.52c.21,8.57,7.32,15.35,15.89,15.14s15.35-7.32,15.14-15.89c-.21-8.57-7.32-15.35-15.89-15.14s-15.35,7.32-15.14,15.89Z"/>
        <path class="cls-33" d="M760.66,15.9c.21,8.57,7.32,15.35,15.89,15.14s15.35-7.32,15.14-15.89S784.38-.2,775.81,0c-8.57.21-15.35,7.32-15.14,15.89Z"/>
        <path class="cls-34" d="M768.2,155.2l13.25-13.25c1.46-1.46,1.46-3.83,0-5.3-1.46-1.46-3.84-1.46-5.3,0l-13.25,13.25-13.25-13.25c-1.46-1.46-3.84-1.46-5.3,0-1.46,1.46-1.46,3.83,0,5.3l13.25,13.25-13.25,13.25c-1.46,1.46-1.46,3.83,0,5.3.73.73,1.69,1.1,2.65,1.1s1.92-.37,2.65-1.1l13.25-13.25,13.25,13.25c.73.73,1.69,1.1,2.65,1.1s1.92-.37,2.65-1.1c1.46-1.46,1.46-3.83,0-5.3l-13.25-13.25Z"/>
        <polygon class="cls-28" points="269.27 97.18 288.46 67.04 307.65 97.18 269.27 97.18"/>
        <path class="cls-15" d="M306.57,142.62H122.16c-10.46,0-18.93,8.48-18.93,18.93v40.4c0,10.45,8.47,18.93,18.93,18.93h21.04c1.59,1.78,4,6.22-1.02,13.99,0,0,12.49.34,20.98-13.99h143.41c10.45,0,18.93-8.47,18.93-18.93v-40.4c0-10.45-8.48-18.93-18.93-18.93Z"/>
        <rect class="cls-14" x="179.73" y="164.75" width="107.99" height="10.12"/>
        <rect class="cls-14" x="179.73" y="187.39" width="107.99" height="10.12"/>
        <path class="cls-28" d="M163.41,181.14c0,10.04-8.14,18.18-18.18,18.18s-18.18-8.14-18.18-18.18,8.14-18.18,18.18-18.18,18.18,8.14,18.18,18.18Z"/>
        <path class="cls-33" d="M29.08,269.3h283.31c16.06,0,29.08,13.02,29.08,29.08v62.07c0,16.06-13.02,29.08-29.08,29.08h-32.33c-2.45,2.74-6.14,9.56,1.57,21.49,0,0-19.18.52-32.23-21.49H29.08c-16.06,0-29.08-13.02-29.08-29.08v-62.07c0-16.06,13.02-29.08,29.08-29.08Z"/>
        <circle class="cls-28" cx="170.73" cy="327.77" r="19.76" transform="translate(-195 274.63) rotate(-54.22)"/>
        <circle class="cls-29" cx="88.48" cy="327.77" r="19.76" transform="translate(-229.16 207.9) rotate(-54.22)"/>
        <circle class="cls-34" cx="252.99" cy="327.77" r="19.76" transform="translate(-160.84 341.36) rotate(-54.22)"/>
        <path class="cls-1" d="M122.83,476.15c.02-.87-.31-1.24-1.1-1.51-2.36-.81-4.72-1.66-7.03-2.61-.54-.22-1.08-.82-1.32-1.38-.97-2.24-1.85-4.53-2.69-6.82-.17-.45-.19-1.1,0-1.52,1.14-2.54,2.39-5.02,3.53-7.56.17-.38.08-1.12-.19-1.41-1.9-2.03-3.91-3.97-5.83-5.98-.52-.54-.93-.58-1.58-.26-2.41,1.19-4.83,2.36-7.28,3.45-.48.21-1.17.25-1.66.08-2.35-.84-4.67-1.75-6.97-2.73-.52-.22-1.11-.71-1.31-1.21-.95-2.36-1.81-4.76-2.63-7.17-.26-.77-.58-1.15-1.48-1.12-2.69.07-5.39.06-8.08,0-.88-.02-1.24.33-1.5,1.11-.81,2.36-1.73,4.69-2.53,7.05-.27.8-.7,1.16-1.51,1.44-2.22.77-4.42,1.64-6.56,2.62-.79.36-1.34.35-2.08-.02-2.36-1.19-4.76-2.28-7.13-3.46-.7-.35-1.15-.28-1.71.3-1.86,1.94-3.76,3.86-5.71,5.71-.66.62-.61,1.11-.25,1.83,1.17,2.37,2.32,4.75,3.38,7.17.22.49.17,1.24-.05,1.75-.98,2.29-2.03,4.56-3.15,6.79-.27.55-.81,1.14-1.36,1.35-2.51.95-5.06,1.81-7.62,2.64-.78.26-1.14.6-1.12,1.49.06,2.69.05,5.39,0,8.08-.01.8.24,1.16,1,1.41,2.6.84,5.2,1.71,7.75,2.68.55.21,1.06.83,1.33,1.39,1.03,2.17,1.88,4.42,2.96,6.56.44.87.47,1.52.05,2.35-1.12,2.24-2.13,4.52-3.24,6.76-.36.73-.35,1.22.29,1.83,1.95,1.86,3.86,3.76,5.71,5.71.62.65,1.1.62,1.82.26,2.32-1.15,4.69-2.22,7.01-3.37.75-.37,1.31-.33,2.08.05,2.23,1.1,4.56,2.01,6.82,3.08.47.22.97.72,1.15,1.2.96,2.56,1.84,5.15,2.7,7.75.25.75.62,1.03,1.42,1.02,2.69-.04,5.39-.05,8.08,0,.87.02,1.22-.3,1.48-1.1.82-2.56,1.7-5.1,2.65-7.61.2-.52.75-1.04,1.27-1.28,2.3-1.08,4.64-2.08,6.99-3.03.48-.19,1.18-.24,1.65-.03,2.75,1.22,5.46,2.54,8.29,3.87,2.21-2.24,4.42-4.44,6.56-6.7.27-.28.3-1.04.13-1.43-1.09-2.45-2.31-4.86-3.41-7.3-.2-.45-.27-1.1-.11-1.55.83-2.4,1.72-4.78,2.68-7.13.21-.52.74-1.08,1.26-1.28,2.36-.95,4.76-1.82,7.16-2.65.75-.26,1-.64.99-1.43-.05-2.69-.05-5.38,0-8.08ZM81.23,495.92c-8.72,0-15.72-7.02-15.72-15.76,0-8.79,7.02-15.73,15.88-15.72,8.61.02,15.6,7.09,15.6,15.76,0,8.72-7.03,15.72-15.76,15.72Z"/>
        <path class="cls-33" d="M1068.08,810.2H179.13c-1.81,0-3.28-1.47-3.28-3.28s1.47-3.28,3.28-3.28h888.96c1.81,0,3.28,1.47,3.28,3.28s-1.47,3.28-3.28,3.28Z"/>
        <rect class="cls-29" x="735.47" y="536.09" width="246.53" height="358.59" rx="7.23" ry="7.23" transform="translate(1574.12 -143.35) rotate(90)"/>
        <rect class="cls-33" x="705.67" y="618.35" width="306.12" height="194.06" rx="2.85" ry="2.85"/>
        <rect class="cls-15" x="907.21" y="642.52" width="41.4" height="129.16" transform="translate(1855.81 1414.2) rotate(180)"/>
        <rect class="cls-28" x="838.55" y="691.96" width="41.4" height="79.72" transform="translate(1718.5 1463.63) rotate(180)"/>
        <rect class="cls-14" x="770.61" y="720.11" width="41.4" height="51.57" transform="translate(1582.61 1491.79) rotate(180)"/>
        <circle class="cls-34" cx="1029.58" cy="597.69" r="68.89" transform="translate(187.65 1439.37) rotate(-75.13)"/>
        <path class="cls-14" d="M1018.5,633.15c-3.12,0-6.1-1.27-8.26-3.52l-23.04-23.99c-4.38-4.56-4.24-11.82.33-16.2,4.56-4.38,11.82-4.24,16.2.33l14.69,15.3,36.93-39.23c4.34-4.61,11.59-4.83,16.2-.49,4.61,4.34,4.83,11.59.49,16.2l-45.19,48.01c-2.15,2.29-5.15,3.59-8.29,3.6h-.06Z"/>
      </g>
    </g>
  </g>
</svg>