<?xml version="1.0" encoding="UTF-8"?>
<svg xmlns="http://www.w3.org/2000/svg" xmlns:xlink="http://www.w3.org/1999/xlink" viewBox="0 0 115.22 98.25">
  <defs>
    <style>
      .cls-1 {
        fill: #ffb74f;
      }

      .cls-2 {
        fill: url(#linear-gradient-8);
      }

      .cls-3 {
        fill: url(#linear-gradient-7);
      }

      .cls-4 {
        fill: url(#linear-gradient-5);
      }

      .cls-5 {
        fill: url(#linear-gradient-6);
      }

      .cls-6 {
        fill: url(#linear-gradient-9);
      }

      .cls-7 {
        fill: url(#linear-gradient-4);
      }

      .cls-8 {
        fill: url(#linear-gradient-2);
      }

      .cls-9 {
        fill: url(#linear-gradient);
      }

      .cls-10 {
        isolation: isolate;
      }

      .cls-11 {
        fill: #004c6b;
      }

      .cls-12 {
        fill: #83bab6;
      }

      .cls-13 {
        fill: #fff;
      }

      .cls-14 {
        fill: #3656b2;
      }

      .cls-15 {
        fill: url(#linear-gradient-11);
      }

      .cls-16 {
        fill: url(#linear-gradient-12);
      }

      .cls-17 {
        fill: url(#linear-gradient-13);
      }

      .cls-18 {
        fill: url(#linear-gradient-14);
      }

      .cls-19 {
        fill: url(#linear-gradient-16);
      }

      .cls-20 {
        fill: url(#linear-gradient-3);
      }

      .cls-20, .cls-21, .cls-22 {
        mix-blend-mode: soft-light;
      }

      .cls-23 {
        fill: #ffae98;
      }

      .cls-24 {
        fill: #e97d6a;
      }

      .cls-25 {
        fill: #003c6a;
      }

      .cls-26 {
        fill: #bdcbd8;
      }

      .cls-27 {
        fill: #f89f09;
      }

      .cls-21 {
        fill: url(#linear-gradient-10);
      }

      .cls-22 {
        fill: url(#linear-gradient-15);
      }

      .cls-28 {
        fill: #92372b;
      }

      .cls-29 {
        fill: #c55347;
      }

      .cls-30 {
        fill: #2bc6cb;
      }

      .cls-31 {
        fill: #d1d1d1;
      }

      .cls-32 {
        fill: #1a1a1a;
      }

      .cls-33 {
        fill: #faf9db;
      }
    </style>
    <linearGradient id="linear-gradient" x1="37.93" y1="4.94" x2="37.93" y2="25.22" gradientUnits="userSpaceOnUse">
      <stop offset=".19" stop-color="#048e6d"/>
      <stop offset="1" stop-color="#06a76e"/>
    </linearGradient>
    <linearGradient id="linear-gradient-2" x1="621.23" y1="-660.17" x2="628.84" y2="-618.61" gradientTransform="translate(-664.78 571.72) rotate(10.38)" xlink:href="#linear-gradient"/>
    <linearGradient id="linear-gradient-3" x1="65.22" y1="41.56" x2="65.22" y2="76.58" gradientUnits="userSpaceOnUse">
      <stop offset="0" stop-color="gray"/>
      <stop offset="1" stop-color="#000"/>
    </linearGradient>
    <linearGradient id="linear-gradient-4" x1="83.43" y1="38.2" x2="83.43" y2="20.71" gradientUnits="userSpaceOnUse">
      <stop offset="0" stop-color="#ffae98"/>
      <stop offset="1" stop-color="#ec6f5f"/>
    </linearGradient>
    <linearGradient id="linear-gradient-5" x1="45.41" y1="45.91" x2="45.41" y2="94.15" xlink:href="#linear-gradient"/>
    <linearGradient id="linear-gradient-6" x1="65.7" y1="28.51" x2="65.7" y2="0" gradientUnits="userSpaceOnUse">
      <stop offset="0" stop-color="#04696c"/>
      <stop offset=".97" stop-color="#004c6b"/>
    </linearGradient>
    <linearGradient id="linear-gradient-7" x1="47.83" y1="47.46" x2="47.83" y2="42.33" xlink:href="#linear-gradient-4"/>
    <linearGradient id="linear-gradient-8" x1="51.9" y1="35.51" x2="43.78" y2="40.59" xlink:href="#linear-gradient-4"/>
    <linearGradient id="linear-gradient-9" x1="49.33" y1="69.93" x2="57.6" y2="69.93" xlink:href="#linear-gradient-6"/>
    <linearGradient id="linear-gradient-10" x1="47.83" y1="66.77" x2="77.83" y2="66.77" gradientTransform="translate(-3.94 129.6) rotate(-90)" xlink:href="#linear-gradient-3"/>
    <linearGradient id="linear-gradient-11" x1="31.06" y1="52.63" x2="31.06" y2="97.94" xlink:href="#linear-gradient"/>
    <linearGradient id="linear-gradient-12" x1="40.87" y1="62.69" x2="42.97" y2="62.69" xlink:href="#linear-gradient-6"/>
    <linearGradient id="linear-gradient-13" x1="22.33" y1="76.15" x2="41.78" y2="76.15" xlink:href="#linear-gradient-6"/>
    <linearGradient id="linear-gradient-14" x1="14.39" y1="92.27" x2="30.19" y2="92.27" xlink:href="#linear-gradient-6"/>
    <linearGradient id="linear-gradient-15" x1="30.94" y1="74.15" x2="30.94" y2="97.94" xlink:href="#linear-gradient-3"/>
    <linearGradient id="linear-gradient-16" x1="52.46" y1="59.54" x2="38.61" y2="79.06" xlink:href="#linear-gradient-4"/>
  </defs>
  <g class="cls-10">
    <g id="Layer_2" data-name="Layer 2">
      <g id="Layer_1-2" data-name="Layer 1">
        <g>
          <path class="cls-27" d="M114.43,47.92c-2.47-13.33-11.23-25.32-25.82-25.27-3.33.01-6.73.57-9.93-.36-4.86-1.41-7.96-5.75-11.05-9.44-3.51-4.19-6.81-6.61-11.89-8.54C26.96-6.63-3.09,26.68.26,54.31c.04.34.09.67.14,1.01,5.2,34.72,50.56,41.51,78.72,38.28,7.51-.86,15.06-2.68,21.47-6.68,8.31-5.19,12.85-13.76,14.16-23.3.7-5.12.64-10.51-.32-15.7Z"/>
          <g>
            <g>
              <path class="cls-13" d="M44.44,28.86c0,11.2-9.08,20.28-20.28,20.28S3.88,40.06,3.88,28.86,12.96,8.58,24.16,8.58v20.28h20.28Z"/>
              <path class="cls-9" d="M27.79,4.94v20.28h20.28c0-11.2-9.08-20.28-20.28-20.28Z"/>
              <path class="cls-26" d="M24.16,28.86V8.58C12.96,8.58,3.88,17.66,3.88,28.86h20.28Z"/>
            </g>
            <path class="cls-32" d="M65.61,46.99c-1.07-.76-2.21-.96-3.23-.91-1.09.05-2.02-.75-2.25-1.82-.24-1.12-.72-2.29-1.63-3.24-1.55-1.61-3.05-1.86-4.03-1.8-.63.04-1.17-.43-1.26-1.05,0-.1-.43-8.73-.43-8.73,0-.1-.02-.21-.05-.3-1.77-5.9-8.54-3.79-12.69-1.65-4.18,2.16-3.22,6.79-2.64,8.91.23.85.54,1.91.82,2.87.28.97-.66,1.84-1.61,1.47-1.81-.7-4.35-1.24-6.56-.11-2.8,1.43-3.06,4.12-2.93,5.75.06.69-.45,1.29-1.14,1.33-2.08.14-5.9,1.03-6.91,5.61-1.22,5.52,3.94,9.02,3.94,9.02l43.97-6.48s1.54-6.76-1.4-8.85Z"/>
            <path class="cls-14" d="M51.23,42.62s-3.67-2.13-7.89-.22l6.53,3.76,1.35-3.53Z"/>
            <path class="cls-8" d="M87.05,34.95l-5.41-.62s-1.96,16.79-11.52,17.4c-3.9.25-7.52-1.34-10.44-3.3-4.67-3.14-10.93-2.46-14.85,1.58-4.6,4.74-4.38,12.36.52,16.79,6.13,5.53,15.21,11.25,25.33,9.43,18.46-3.31,20.65-27.88,16.36-41.29Z"/>
            <path class="cls-30" d="M85.89,63.62c-1.65-.93-3.55-1.47-5.58-1.47-6.32,0-11.45,5.13-11.45,11.45,0,.99.14,1.94.37,2.85.48-.05.97-.12,1.46-.21,7.59-1.36,12.43-6.32,15.2-12.62Z"/>
            <path class="cls-20" d="M88.72,43.49c-.06-.66-.13-1.3-.22-1.93.38,12.77-4.29,27.33-18.2,29.83-10.12,1.82-19.2-3.9-25.33-9.43-1.64-1.48-2.74-3.32-3.33-5.29-.05.36-.08.74-.1,1.11-.11,3.3,1.18,6.63,3.83,9.02,6.13,5.53,15.21,11.25,25.33,9.43,14.99-2.69,19.25-19.38,18.03-32.74Z"/>
            <path class="cls-7" d="M87.28,27.21c-.58-.66-1.22-.49-1.22-.49,0,0,.16-1.14-.89-1.66-1.36-.66-2.04.56-2.04.56,0,0-.28-1.16-.71-2.14-.39-.89-1.11-1.47-1.71-1.3-.96.27-.96,1.17-.63,2.28.49,1.64,1.02,3.27,1.02,3.27,0,0-1.51.55-1.83,2.13-.32,1.59,2.37,4.46,2.37,4.46,2.18,1.23,5.41.62,5.41.62.96-3.26-.11-4.91-.11-4.91,0,0,1.27-1.77.34-2.83Z"/>
            <path class="cls-29" d="M86.06,31.95c-1.67-2.18-4.05-1.18-4.15-1.13-.12-.28,1.87-1.43,1.38-2.56-.12-.27-.3-.44-.55-.54-.66-.25-1.57.15-1.58.15-.08-.3.91-.74,1.69-.44.33.13.57.36.72.7.38.86-.32,1.67-.93,2.17.93-.15,2.44-.1,3.54,1.4-.06.23-.09.24-.12.24Z"/>
            <path class="cls-29" d="M86.08,30.71c-.21,0-.44-.05-.72-.16-.55-.23-.71-.83-.76-1.21-.3.21-.78.38-1.36.17.87,0,1.35-.57,1.37-.6.27.11.25,1.1.86,1.35.62.26,1.06.16,1.33-.3.09.45-.21.75-.72.75Z"/>
            <path class="cls-29" d="M82.56,27.63c.08-1.12.42-2.05.43-2.06.28.12-.06,1.03-.28,1.94-.02.07-.08.12-.15.12Z"/>
            <path class="cls-29" d="M84.73,29.16c-.13-.23,1.19-2.52,1.19-2.52.26.15-1.06,2.44-1.06,2.44-.03.05-.08.08-.13.08Z"/>
            <path class="cls-4" d="M63.55,69.05c-.06-3.27,3.56-9.11-.72-15.43-4.28-6.32-7.38-7.96-15.48-7.69-8.1.27-18.39,4.84-22.23,10.38l1.21,37.84h39.38s-2.09-21.83-2.15-25.1Z"/>
            <path class="cls-1" d="M60.39,79.69c.02.64-.35,1.17-.83,1.19-.48.02-.9-.49-.92-1.13-.02-.64.35-1.17.83-1.19.48-.02.9.49.92,1.13Z"/>
            <path class="cls-1" d="M60.76,89.78c.02.64-.35,1.17-.83,1.19-.48.02-.9-.49-.92-1.13-.02-.64.35-1.17.83-1.19.48-.02.9.49.92,1.13Z"/>
            <path class="cls-5" d="M79.95,14.26c0,7.87-6.38,14.26-14.26,14.26s-14.26-6.38-14.26-14.26S57.83,0,65.7,0s14.26,6.38,14.26,14.26Z"/>
            <path class="cls-33" d="M63.41,21.59c-.65,0-1.26-.26-1.71-.73l-4.77-4.96c-.91-.94-.88-2.45.07-3.35.94-.91,2.45-.88,3.35.07l3.04,3.17,7.64-8.12c.9-.95,2.4-1,3.35-.1.95.9,1,2.4.1,3.35l-9.35,9.93c-.45.47-1.06.74-1.71.75h-.01Z"/>
            <polygon class="cls-3" points="44.87 35.17 44.87 46 50.79 46 50.79 39.45 44.87 35.17"/>
            <polygon class="cls-1" points="4.4 62.97 7.15 58.65 9.91 62.97 4.4 62.97"/>
            <path class="cls-23" d="M45.3,35.84s1.21,4.54,5,5.12c1.48.22,2.69-.37,3.34-1.2,1.02-1.29.88-3.51.59-4.94-.5-2.48-.93-4.39-1.45-5.54l-3.66-2.33c-.3-.19-.69-.06-.82.27-.59,1.51-2.09,5.27-2.87,6.07l-.14,2.56Z"/>
            <path class="cls-2" d="M51.01,39.49c-3.61-.55-5.18-4.23-5.61-5.46l-.1,1.81s1.21,4.54,5,5.12c1.48.22,2.69-.37,3.34-1.2.23-.29.39-.63.52-.99-.79.58-1.88.92-3.16.73Z"/>
            <circle class="cls-24" cx="48.65" cy="34.37" r="1.26"/>
            <path class="cls-29" d="M52.29,36.84c-.58,0-1.21-.97-1.34-1.18.55.31,1.09.94,1.38.87.3-.08.53-.92.59-1.49.27.3.09,1.63-.52,1.79-.04.01-.08.01-.12.01Z"/>
            <path class="cls-24" d="M53.5,31.46c-.33.19-.56.53-.61.93.43,0,.79.03.85.2.05.15-.18.49-.48.85.2.2.47.33.77.35-.18-.86-.35-1.65-.53-2.34Z"/>
            <path class="cls-28" d="M52,32.1c-.13.04-.27-.05-.31-.18l-.16-.6c-.04-.13.04-.27.18-.31.13-.04.27.04.31.18l.16.6c.04.13-.05.27-.18.31Z"/>
            <path class="cls-28" d="M48.48,32.76c-.13.04-.27-.04-.31-.18l-.16-.6c-.04-.13.04-.27.18-.31s.27.04.31.18l.16.6c.04.13-.05.27-.18.31Z"/>
            <path class="cls-14" d="M71.14,40.08c0,1.23-1,2.23-2.23,2.23s-2.23-1-2.23-2.23,1-2.23,2.23-2.23,2.23,1,2.23,2.23Z"/>
            <path class="cls-14" d="M39.3,35.25c-.8-3.31.4-6.4.45-6.53.04-.1.16-.15.26-.11.1.04.15.16.11.26-.01.03-1.21,3.11-.63,6.14.02.11-.05.21-.16.24-.01,0-.03,0-.04,0Z"/>
            <path class="cls-1" d="M57.94,53.46c.24.59.08,1.22-.37,1.41-.45.19-1.01-.14-1.25-.73-.24-.59-.08-1.22.37-1.41.45-.19,1.01.14,1.25.73Z"/>
            <path class="cls-33" d="M51.23,42.62l1.76,5.75c.1.29-.21.55-.48.42l-2.45-1.22-.87,2.5c-.16.47-.71.68-1.14.43l-6.37-3.78,1.66-4.33,6.14,3.12,1.75-2.9Z"/>
            <path class="cls-32" d="M45.34,32.69s1.39,5.75,2.05,8.11c.66,2.36,2.79,9.84-4.57,10.78-6.45.82-8.84-2.77-8.84-2.77l8.4-4.55-1.75-10.27,4.7-1.3Z"/>
            <path class="cls-14" d="M22.47,58.13c-.23-.29-.97-3.49,1.18-5.78,1.22-1.3,2.49-1.27,3.62-1.25.88.02,1.71.04,2.43-.58.72-.62.6-1.7.47-2.84-.16-1.37-.34-2.92,1.07-3.78,1.46-.89,2.74-.09,4.09.77,1.26.8,2.69,1.7,4.6,1.54,1.58-.14,2.55-.53,3.07-1.22.77-1.05.56-2.91-.02-5.58-1.03-4.71-.77-6.17,0-8.17.73-1.87.93-4.65.93-4.67,0-.11.1-.2.21-.19.11,0,.19.1.19.21,0,.12-.2,2.87-.96,4.79-.75,1.92-1,3.33,0,7.93.62,2.85.81,4.73-.05,5.9-.59.8-1.65,1.24-3.36,1.39-2.05.18-3.54-.76-4.85-1.6-1.35-.85-2.41-1.53-3.66-.76-1.19.72-1.04,2.02-.88,3.39.14,1.2.28,2.44-.6,3.2-.84.72-1.79.7-2.71.68-1.09-.03-2.22-.05-3.32,1.12-2,2.13-1.28,5.23-1.28,5.26.03.11-.04.22-.15.24-.02,0-.03,0-.05,0Z"/>
            <path class="cls-6" d="M57.45,94.31c-.2-.92-1.22-19.04-1.01-20.9.04-.32.11-.73.21-1.25.48-2.51,1.39-7.19-.48-13.43-2.22-7.43-6.17-11-6.21-11.04-.05-.07-.62-2.12-.62-2.12.3-.08.86,1.92.86,1.92.39.37,4.12,4,6.26,11.15,1.89,6.32.98,11.04.49,13.58-.1.51-.18.92-.21,1.23-.2,1.83.85,20.52.86,20.71-.15.16-.15.16-.15.16Z"/>
            <g>
              <path class="cls-31" d="M52.28,51.77h21.1c.23,0,.41.18.41.41v29.18c0,.23-.18.41-.41.41h-21.1c-.23,0-.41-.18-.41-.41v-29.18c0-.23.18-.41.41-.41Z" transform="translate(129.6 3.94) rotate(90)"/>
              <path class="cls-33" d="M65.22,66.77c0,1.32-1.07,2.39-2.39,2.39s-2.39-1.07-2.39-2.39,1.07-2.39,2.39-2.39,2.39,1.07,2.39,2.39Z"/>
              <path class="cls-21" d="M52.28,51.77h21.1c.23,0,.41.18.41.41v29.18c0,.23-.18.41-.41.41h-21.1c-.23,0-.41-.18-.41-.41v-29.18c0-.23.18-.41.41-.41Z" transform="translate(129.6 3.94) rotate(90)"/>
            </g>
            <path class="cls-15" d="M35.46,52.98c-4.01-1.09-8.28.43-10.71,3.8-3.42,4.76-7.92,11.76-9.58,17.68-2.82,10.06-1.41,21.81,10.55,23.35,11.97,1.53,21.34-10.76,22.46-24.39l-6.35-5.13.77-3.62c1.1-5.18-2.04-10.31-7.14-11.69h0Z"/>
            <path class="cls-16" d="M41.84,68.44c-.15-.18.62-3.8.62-3.8.56-2.66-.01-5.47-1.58-7.7,1.87,2.12,2.47,5.01,1.88,7.76l-.77,3.62c-.02.07-.08.12-.15.12Z"/>
            <path class="cls-17" d="M22.33,84.15c-.08-.3,4.27-6.49,8.75-10.01,3.98-3.13,10.64-5.96,10.7-5.99.05.31-6.56,3.12-10.51,6.23-4.44,3.49-8.77,9.65-8.81,9.71-.03.04-.08.06-.13.06Z"/>
            <path class="cls-18" d="M14.39,87.46c1.14,5.3,4.53,9.48,11.34,10.35,1.53.2,3.02.17,4.46-.07-.16-6.18-5.21-11.15-11.43-11.15-1.55,0-3.02.31-4.36.86Z"/>
            <path class="cls-22" d="M26.75,93.15c-10.27-1.32-12.75-10.15-11.47-18.99-.04.11-.07.21-.1.31-2.82,10.06-1.42,21.81,10.55,23.35,9.11,1.17,16.72-5.68,20.33-15.04.89-2.36,1.53-4.81,1.89-7.25-3.12,10.64-11.26,18.89-21.2,17.62Z"/>
            <g>
              <path class="cls-19" d="M49.77,65.31c.85-.37,1.66-.95,1.45-1.82-.41-1.71-3.45-.4-3.45-.4,0,0,3.09-4.51.6-4.79-1.99-.22-4.49,6.84-6.53,9.98,0,0,.4,1.85,2.04,3.22,2.04,1.7,4.31,1.91,4.31,1.91,2.22-1.38,1.16-5.11,1.16-5.11,0,0,3.66-.56,2.76-2.54-.42-.93-1.39-.66-2.33-.45Z"/>
              <path class="cls-29" d="M45.3,64.53c.93-.9,2.39-1.56,2.4-1.57.11.29-1.33.94-2.32,1.55-.03.01-.05.02-.08.02Z"/>
              <path class="cls-29" d="M45.72,67.16c1.09-1.04,3.88-1.96,4-2,.07.3-2.78,1.24-3.91,1.97-.03.02-.05.02-.08.02Z"/>
            </g>
            <g>
              <g>
                <rect class="cls-13" x="75.57" y="67.27" width="25.25" height="36.72" rx=".74" ry=".74" transform="translate(173.83 -2.57) rotate(90)"/>
                <rect class="cls-32" x="72.52" y="75.69" width="31.35" height="19.88" rx=".29" ry=".29"/>
                <g>
                  <rect class="cls-12" x="74.54" y="77.4" width="3.27" height="10.2"/>
                  <rect class="cls-26" x="79.95" y="81.3" width="3.27" height="6.29"/>
                  <rect class="cls-11" x="85.32" y="83.53" width="3.27" height="4.07"/>
                </g>
              </g>
              <rect class="cls-25" x="92.77" y="79.37" width="8.08" height="1.27"/>
              <rect class="cls-25" x="92.77" y="82.4" width="8.08" height="1.27"/>
              <rect class="cls-25" x="92.77" y="87.28" width="8.08" height="1.27"/>
              <rect class="cls-25" x="92.77" y="90.3" width="8.08" height="1.27"/>
            </g>
            <path class="cls-29" d="M52.21,34.71c.72-1.06,1.4-1.88,1.38-2.07-.06-.09-.6-.09-.92-.09-.51,0-.99,0-1.25-.17-.41-.28-.61-1.14-.63-1.23.35.17.53.8.8.98.18.12.67.12,1.08.12.62,0,1.12,0,1.21.31.13.43-1.05,1.62-1.56,2.11-.03.03-.07.04-.11.04Z"/>
          </g>
        </g>
      </g>
    </g>
  </g>
</svg>