<?xml version="1.0" encoding="UTF-8"?>
<svg id="Layer_2" data-name="Layer 2" xmlns="http://www.w3.org/2000/svg" viewBox="0 0 140.66 74.76">
  <defs>
    <style>
      .cls-1 {
        fill: #fff;
      }
    </style>
  </defs>
  <g id="Layer_1-2" data-name="Layer 1">
    <g>
      <path class="cls-1" d="M12.71,64.17c-.27-.99-.54-8.82-.72-17.46l-.27-15.57-4.5-5.94c-2.52-3.24-5.13-6.66-5.85-7.65-2.34-2.97-1.62-6.3,1.62-7.02,2.25-.54,3.96.9,8.19,6.57,2.16,2.88,4.05,5.31,4.14,5.31s2.34-3.06,4.86-6.93c3.69-5.49,4.95-7.02,6.12-7.47,1.62-.54,2.61-.27,4.05.99,2.34,2.07,1.53,3.78-7.83,17.37l-2.88,4.23.27,13.86c.18,7.65.45,15.48.63,17.37.27,3.42.27,3.51-1.17,4.86-1.71,1.71-3.33,1.89-4.95.36-.72-.54-1.44-1.8-1.71-2.88Z"/>
      <path class="cls-1" d="M41.42,69.66c-.54,1.53-2.52,2.79-4.05,2.79-.63-.09-1.35-.27-1.89-.63-2.7-1.44-3.15-4.77-1.08-6.84.81-.9,1.98-1.35,3.15-1.35,2.7.09,5.22,2.88,3.87,6.03ZM42.86,1.44c1.08,1.35,1.08.81-.18,11.97-1.17,10.26-1.71,20.52-1.62,30.69,0,9.09,0,9.36-1.08,10.44-1.44,1.62-4.05,1.53-5.58-.09-.81-.72-1.08-1.35-1.08-3.24v-12.24c0-11.43.27-16.47,1.08-24.57.54-5.67,1.35-10.98,1.71-11.79.63-1.62,2.16-2.61,3.87-2.61,1.17.09,2.25.54,2.88,1.44Z"/>
      <path class="cls-1" d="M64.19,20.16c2.79,1.35,6.03,5.04,7.2,8.1,2.61,7.02,1.98,17.55-1.44,24.21-1.26,2.7-4.5,5.94-6.66,6.93-2.16.99-5.31,1.08-7.65.27-3.69-1.35-6.84-5.31-8.19-10.35-.99-3.6-.99-11.25-.09-15.3,2.07-8.73,7.83-14.67,13.41-14.67,1.17,0,2.34.27,3.42.81ZM57.8,29.88c-1.89,2.7-2.79,5.58-2.97,10.35-.36,5.22.54,9.18,2.43,10.98,1.26,1.35,1.98,1.44,3.33.45,5.13-3.6,5.85-20.97,1.08-23.58-.36-.18-.81-.36-1.26-.27-.9,0-1.71.72-2.61,2.07Z"/>
      <path class="cls-1" d="M100.1,71.73c-.99-1.44-8.19-16.92-12.24-26.28-1.98-4.5-3.69-8.37-3.78-8.46-.18-.18-.09,1.98,0,4.59.18,2.7.36,8.46.36,12.87l.09,6.84c0,1.26-.18,2.16-1.08,2.97-1.17.99-2.88,1.35-4.41.72-2.43-.9-2.43-1.98-2.97-25.29-.72-24.48-.72-24.03,2.52-25.11,1.89-.63,3.24,0,5.22,2.25.54.63,4.05,8.1,7.65,16.65,3.69,8.46,7.11,16.29,7.65,17.46l.99,2.07.36-14.22c.18-7.83.45-17.64.63-21.87.27-7.65.27-7.74,1.53-9,1.71-1.71,3.42-1.71,5.13.09,1.71,1.62,1.62-.81.72,36.09-.27,11.61-.72,20.25-.9,24.48-.18,4.41-3.15,5.94-5.76,4.59-.72-.36-1.26-.9-1.71-1.44Z"/>
      <path class="cls-1" d="M140.33,20.25c-.63,2.79-2.43,6.48-7.29,15.12-4.95,8.73-4.86,8.37-2.34,11.97,7.56,10.89,8.28,19.26,2.16,24.75-2.79,2.61-6.39,3.33-9.99,2.07-3.96-1.44-6.84-5.22-7.83-10.26-.63-3.51.09-8.64,1.98-13.77,1.89-5.04,1.89-6.84,0-9.72-5.58-8.73-4.59-19.26,2.52-26.55,3.78-3.78,8.1-5.49,11.97-5.49,5.94.09,10.44,4.59,8.82,11.88ZM122.78,23.22c-1.44,3.06-1.53,7.56-.18,10.53l.9,2.07,3.96-7.02c2.16-3.78,4.23-7.92,4.59-9,.81-2.7.54-3.33-1.26-3.33-2.61,0-6.3,3.24-8.01,6.75ZM124.04,54.27c-.45,1.08-.54,3.15-.72,6.03-.27,2.97,1.17,7.56,3.87,6.12.54-.27,1.17-1.17,1.44-2.07.63-2.07-.18-5.31-2.43-9.09l-1.44-2.61-.72,1.62Z"/>
    </g>
  </g>
</svg>