<?xml version="1.0" encoding="UTF-8"?>
<svg id="Layer_2" data-name="Layer 2" xmlns="http://www.w3.org/2000/svg" viewBox="0 0 238.72 74.22">
  <defs>
    <style>
      .cls-1 {
        fill: #00a76e;
      }
    </style>
  </defs>
  <g id="Layer_1-2" data-name="Layer 1">
    <g>
      <path class="cls-1" d="M3.3,52.7c-2.41,0-3.3-2.24-3.3-3.98,0-2.63,2.86-3.36,4.59-3.36,2.18,0,3.08,1.4,3.08,3.25,0,2.41-2.18,4.09-4.37,4.09Z"/>
      <path class="cls-1" d="M18.42,31.81c.62-1.46,3.19-6.1,4.31-7.56l-3.75-.06h.11c.17,0-3.36-.67-3.58-2.07.06-1.06,1.4-2.24,1.74-2.8.34.17.56-.5,2.97-.45h3.02c1.18,0,2.41-.06,2.97-1.18l2.07-2.97c.45-.73,1.68-2.91,2.24-3.75,1.62-2.24,2.74-3.98,4.26-5.32l1.4-1.23c.39-.39,1.29-.9,1.79-.9.56,0,2.02,2.07,2.02,3.19,0,1.57-1.62,2.8-2.63,3.92-.95,1.12-5.88,7.73-5.88,7.95l4.42.17c.78-.22,3.75-.11,5.66-.11.95.28,2.35,1.23,2.35,2.13,0,1.57-1.62,2.74-3.7,3.08-3.25.56-8.57-.17-11.65.5-1.4,1.51-7.28,12.6-8.57,15.9-1.79,3.64-1.79,4.09-1.85,6.27,0,.39.17,1.29,1.51,1.29.45,0,1.34-.11,3.47-1.23,1.62-.5,7.84-5.88,8.46-6.72l.34-.5c.62-.5,1.34-1.23,1.96-1.23.45,0,1.51-.45,1.9-.17.45.34.34,1.29.34,1.96-.06,1.4-3.64,5.54-4.98,6.94-3.14,3.7-8.85,6.5-12.88,6.5-3.3,0-5.99-2.86-5.94-5.82.06-4.76,4.09-11.7,6.1-15.74Z"/>
      <path class="cls-1" d="M60.03,48.05c-1.57,1.34-5.6,4.48-9.02,4.48-2.18,0-4.65-3.47-4.65-5.1,0-.5.11-1.79.17-2.02-.56.5-1.29,1.23-1.46,1.4-.06.06-.5.5-.5.62-2.8,2.41-4.93,4.82-9.69,4.82-3.47,0-5.26-3.86-5.15-7.95.11-4.54,3.3-9.97,6.89-13.72,2.97-3.08,7.73-5.21,12.43-5.21,1.34,0,3.02.45,3.7,1.18,0,.39,1.06,1.34,1.12,1.79.95-1.85,2.46-1.79,2.91-1.85,1.18.06,1.51,2.13,1.51,2.97,0,1.29-2.74,5.43-2.86,5.66-.28.56-1.46,2.07-1.74,2.35-1.4,1.96-2.63,4.26-2.63,6.55,0,.84.39,2.69,1.01,2.91,2.18.5,5.6-2.52,6.38-3.42,1.01-1.12,3.75-4.42,4.65-5.32.34,0,.78.62,1.34.56h.06c.11.22.11.5.17.73.22,3.14-2.74,6.38-4.65,8.57ZM50.51,31.47c0-.62-.78-1.85-1.51-1.85-2.86,0-6.55,2.13-8.68,4.59-2.91,3.36-5.15,6.55-5.15,9.74,0,1.46.45,2.52,1.68,2.86,2.41-.34,4.76-3.25,6.5-4.76,1.29-1.12,4.76-5.54,6.89-8.57.17-.62.28-1.29.28-2.02Z"/>
      <path class="cls-1" d="M70.05,43.18c1.12-.22,3.98-.11,4.87-.22.34-1.62-.22-7.45-.73-7.45l-1.18-3.7c-.84.78-5.1,6.5-6.5,8.34-.9,1.18-2.18,2.24-3.02,2.18-1.46-.11-2.63-1.18-2.18-2.13.78-1.62,2.24-2.8,3.19-4.2,1.51-2.24,4.2-5.71,6.94-10.02.39-1.12.28-4.2,2.8-4.26,1.68-.17,3.75.73,3.86,2.41.11,1.57-1.51,2.52-1.46,3.98,1.34,4.37,3.42,7.56,3.53,11.54.06,1.51-.06,2.3-.11,2.74l1.12-.34c2.63-.78,4.37-2.07,7.22-5.88.17-.22.67-.34.5-.34-.34,0,1.9-.34,2.02.84,0,0,.73.78-.17,2.8-1.57,2.74-3.42,4.31-5.66,5.77-1.9,1.01-2.8,1.29-5.54,1.51.11,2.35-2.69,4.98-4.2,6.05-1.9,1.18-4.09,1.46-6.38,1.46-2.58,0-5.94-1.46-5.94-4.14,0-4.37,2.46-6.1,7-6.94ZM69.94,50.01c1.12-.17,3.86-.95,4.09-2.52-3.86-.9-6.38,1.23-5.66,2.24.11.06.67.34,1.57.28Z"/>
      <path class="cls-1" d="M84,47.26l1.12-2.69c3.25-10.14,8.74-24.19,11.59-29.85,2.46-5.54,7.56-14.73,12.43-14.73,1.46,0,3.14,1.96,3.75,2.86.84,2.02.78,3.14.73,5.66-.17,4.54-2.74,9.69-4.82,12.94-2.58,4.03-8.74,9.24-13.44,11.65-.62,1.34-1.23,2.74-1.18,2.74,3.02-2.02,7.11-3.7,10.25-5.21.84-.62,6.27-3.25,7.28-3.19,1.01.06,3.58.56,3.92,2.97-.11,2.02-.73,3.42-2.13,3.81-.9.17-1.34-.67-2.18-.39-3.19,1.12-10.47,4.37-11.54,5.54,0,2.86.5,5.71,1.46,9.02.06.39,1.46.9,1.57.9,2.13-.11,4.93-1.96,7.62-4.26,2.46-2.07,4.31-4.31,5.32-5.71.95-1.34,1.62-2.69,2.8-2.63.34-.06,1.4.56,1.4.9,0,2.58-1.34,5.38-3.08,7.78-2.18,3.02-5.32,5.26-7.34,6.5-1.01.62-4.37,2.3-5.82,2.35-2.97,0-6.55-1.23-7.34-4.42-.9-1.68-1.62-4.87-1.12-7.22-.06,0-.34-.17-.39-.11-.17.06-.67.28-.78.39-1.18.9-2.97,2.52-4.59,5.26-.45.78-.06.17-.56,1.29-.06,1.23-.73,2.97-1.4,3.92,0,0-.95.17-1.06.17-1.4.11-3.7-.22-4.03-1.46-.39-1.51.9-3.47,1.57-4.76ZM104.89,18.93c1.79-2.63,4.42-7.95,4.59-10.92.06-1.46-.22-1.74-.9-2.13h-.34c-.9-.06-1.74.78-2.58,2.52-1.74,1.79-4.87,9.02-4.87,9.02-1.34,2.74-2.13,4.37-3.08,7.17,0,.06-.11.84-.17.9-.56,1.46.17-.78-.45.84,2.58-1.23,4.87-2.97,7.78-7.39Z"/>
      <path class="cls-1" d="M111.94,63.9c3.47-8.96,3.58-8.85,6.72-18.2.39-1.06,2.02-3.75,1.96-4.98v-.28c-1.23,1.12-2.8,3.42-3.86,4.2-.62.34-2.58.84-3.02.56-1.34-.56-1.29-1.79-.67-2.52,2.41-2.69,2.24-3.42,5.54-7.78,1.4-1.9,4.48-6.22,5.49-7.67l.62-1.57c.39-.67,1.12-1.12,1.79-1.68,1.46-.17,2.24.78,2.69.95,0,.34.62,1.34.62,1.74v.22l-.22,1.51c-.95,2.18-.62,1.06-1.12,2.97-.06.06,0,.34,0,.39,2.46-2.91,3.25-3.36,6.78-5.32.67-.39,2.69-1.06,2.8-.95l2.13-.17c3.81.28,6.33,2.74,6.22,7.45,0,1.06-.84,4.37-1.4,5.49-.95,2.02-5.21,7.06-9.74,9.74.11,1.4,1.79,2.74,2.63,3.02,4.93-.56,9.8-8.62,13.44-13.33h.34c.95-.06,1.96,1.06,1.96,1.9.06,1.57-4.09,8.01-4.93,8.9-1.46,1.85-6.72,7-9.41,7-3.08.34-6.05-1.29-6.1-1.96-.28.11-2.13-3.14-1.96-3.47-1.18.56-2.13.95-3.47,1.12h-.17c-1.79.17-3.7-1.12-4.2-3.25l-7.28,18.54c-.5,1.23-1.51,7.11-2.63,7.67-1.4.56-4.03-2.13-3.58-4.03.5-2.3,1.23-3.92,2.07-6.22ZM129.64,45.14c1.46-.17,2.52-1.01,3.81-1.51,3.58-2.69,7.9-5.82,7.9-10.81,0-.9-.28-2.02-1.57-2.02-2.35,0-6.27,1.74-7.78,3.47-1.96,1.9-6.05,7.06-5.99,8.68,1.01,1.9,1.01,2.52,3.64,2.18Z"/>
      <path class="cls-1" d="M148.84,48.22c0-4.59,2.41-10.98,4.82-14.95,1.06-2.3,1.85-3.02,2.58-4.48.5-1.01,2.58-3.3,4.14-3.3,1.18,0,1.68,1.34,1.68,3.3,0,.67-.11,1.34-.45,1.74l-2.3,3.42c-2.3,3.42-4.26,7.17-4.98,11.03-.84,2.18,1.68,3.08,2.74,2.74,3.7-.73,5.6-4.09,6.89-5.82l2.46-3.92c.73-.62,1.23-1.18,2.52-1.18s1.23,1.12,1.06,2.24c-.84,5.49-8.68,14.17-13.66,14.17-3.14,0-7.5-.95-7.5-4.98ZM166.43,5.88c3.02-.06,5.1,2.46,5.1,5.66,0,1.74-1.85,4.14-3.64,4.14-4.76,0-5.66-3.7-6.16-5.21.73-1.79,1.74-4.54,4.7-4.59Z"/>
      <path class="cls-1" d="M166.26,40.26c2.52-7.22,6.94-19.38,10.08-25.54,2.46-5.54,7.56-14.73,12.43-14.73,1.46,0,3.14,1.96,3.75,2.86.84,2.02.78,3.14.73,5.66-.17,4.54-3.98,12.26-6.05,15.51-2.91,4.59-8.68,10.14-13.38,11.82-.22.34-2.63,5.88-3.47,7.5l-.17.39c-.34.95.22,3.36,2.18,3.58,1.9-.17,5.66-4.26,6.83-5.77,1.01-1.29,4.14-5.32,5.49-5.1,1.46,0,1.74.5,1.74,1.23,0,.28.06.73-.62,2.24-.9,2.8-4.37,6.61-6.33,8.85-1.51,1.29-5.1,4.26-8.57,4.26-3.02,0-5.99-3.08-5.99-4.2,0-.39-.5-1.4-.5-2.63,0-1.46,1.23-4.42,1.85-5.94ZM183.79,20.38c1.79-2.63,5.15-9.41,5.32-12.38.06-1.46-.22-1.74-.9-2.13h-.34c-.9-.06-1.74.78-2.58,2.52-1.74,1.79-4.87,9.02-4.87,9.02-1.34,2.74-2.86,5.82-3.81,8.62,0,.06-.11.84-.17.9-.56,1.46-.11.06-.73,1.68,2.58-1.23,5.15-3.81,8.06-8.23Z"/>
      <path class="cls-1" d="M183.28,36.68c.17-.17,1.51-1.96,1.62-2.18.06-.11.67-.9.67-1.01l4.09-2.3c0-.11.28-.28.34-.34.34-.34,1.85-2.3,3.25-3.64.78-.78,3.92-2.07,5.94-1.96.9,0,1.4,0,2.18.84,1.62,1.29,2.86,4.2,3.02,6.61.17,1.85-.34,3.98-.67,5.54,0,.22-1.51,3.14-1.57,3.42,1.51,0,3.92-.39,5.21-1.01,1.46-.5,3.7-2.74,4.14-3.98.06,0,1.51-.73,1.51-.73.78,0,1.29,1.46,1.4,2.02-.06,3.36-3.86,6.5-7.34,7.67-2.46.84-5.94,1.01-7.5,1.12-3.58,4.14-5.88,7.78-13.61,7.73h-1.29c-2.58-1.74-4.82-3.36-4.98-5.99-.34-3.75,1.68-8.57,3.58-11.82ZM186.53,49.73c3.02,0,5.26-1.85,7-3.42-.28-.39-1.06-.34-1.46-.56-2.97-1.06-4.31-2.52-4.48-5.1-.06-.62.5-1.23.45-2.02v-.11c-2.02,1.18-4.03,6.83-3.47,9.8.06.62,1.23,1.4,1.96,1.4ZM196.44,41.78c2.63-1.06,3.14-6.83,2.97-8.62,0-.62-.45-1.57-1.29-1.62-1.68,0-3.98,1.62-4.87,2.97-.84,1.29-1.9,4.14-1.29,5.71.45,1.12,3.53,1.79,4.48,1.57Z"/>
      <path class="cls-1" d="M213.24,31.81c.62-1.46,3.19-6.1,4.31-7.56l-3.75-.06h.11c.17,0-3.36-.67-3.58-2.07.06-1.06,1.4-2.24,1.74-2.8.34.17.56-.5,2.97-.45h3.02c1.18,0,2.41-.06,2.97-1.18l2.07-2.97c.45-.73,1.68-2.91,2.24-3.75,1.62-2.24,2.74-3.98,4.26-5.32l1.4-1.23c.39-.39,1.29-.9,1.79-.9.56,0,2.02,2.07,2.02,3.19,0,1.57-1.62,2.8-2.63,3.92-.95,1.12-5.88,7.73-5.88,7.95l4.42.17c.78-.22,3.75-.11,5.66-.11.95.28,2.35,1.23,2.35,2.13,0,1.57-1.62,2.74-3.7,3.08-3.25.56-8.57-.17-11.65.5-1.4,1.51-7.28,12.6-8.57,15.9-1.79,3.64-1.79,4.09-1.85,6.27,0,.39.17,1.29,1.51,1.29.45,0,1.34-.11,3.47-1.23,1.62-.5,7.84-5.88,8.46-6.72l.34-.5c.62-.5,1.34-1.23,1.96-1.23.45,0,1.51-.45,1.9-.17.45.34.34,1.29.34,1.96-.06,1.4-3.64,5.54-4.98,6.94-3.14,3.7-8.85,6.5-12.88,6.5-3.3,0-5.99-2.86-5.94-5.82.06-4.76,4.09-11.7,6.1-15.74Z"/>
    </g>
  </g>
</svg>