<svg version="1.2" xmlns="http://www.w3.org/2000/svg" viewBox="0 0 1526 1512" width="1526" height="1512">
	<title>main-logo-svg</title>
	<defs>
		<linearGradient id="g1" x1="3909.6" y1="2693.9" x2="-2183.8" y2="-1032" gradientUnits="userSpaceOnUse">
			<stop offset="0" stop-color="#ffffff"/>
			<stop offset="1" stop-color="#ffffff"/>
		</linearGradient>
	</defs>
	<style>
		.s0 { fill: url(#g1) } 
	</style>
	<path id="Layer" class="s0" d="m951.9 517.5c18.3 2.9 25 18 14.9 33.4l-77 153.7c-8.1 16.6-29.9 31.1-48.2 32.2 0 0-1.4 0-32.2 0-25 0-49.6-2-74.6-4-11.6-0.9-22.9-1.8-34.6-2.9-11.6-0.9-23.2-1.2-33.9-6.1-8.1-3.8-15.4-9.6-20-17.4-13.1-20.9-5.9-49.6-4.1-72.8 1.7-24.1 3.5-48.2 4.9-72.3 1.2-17.1 7.3-39.7 25.6-46.7 16.8-6.1 36.3-7.2 54-10.4 51.9-9.6 105.3 0.6 157.3 6.1 22.7 2.3 45.3 4.6 67.9 7.2zm-186.6 652.4c-7.9 16.8-27.9 23.5-44.4 15.1l-158.8-152.6c-13.1-13-15.1-36.3-4.7-51.6 14.8-21.8 34.9-41.2 55.2-57.7 19.7-16 41.2-29.3 64.7-39.2 16-6.7 32.5-11.9 49.7-14.5 15.6-2.6 33.9-4.1 49.3 1.4 33.4 11.6 30.8 57.8 34.3 86.5 2.6 20.3 5.2 40.9 7.8 61.2 2 18.3-3.2 46.7-11.9 63.2zm-720.3-563c-0.2-4.7 0-9 1.8-13.4 4.9-12.1 18.9-11.9 29.3-9.2 41.5 9.5 85.4 13.9 127.7 20.6 11.9 2 21.8 13.6 21.8 25.8 0.3 13.9-2.3 28.4-5.5 41.7q-4.8 20.5-13.9 39.2c-7.9 16.2-20.6 33.1-33.4 45.8-9 9-21.5 16-34 13.7-9.3-1.8-16.5-8.4-23.2-15.1-25.3-25.3-49.7-50.8-60.4-85.6-5.5-18.3-8.1-37.4-10.2-56.6q0.5-3.4 0-6.9zm389.1-286.6c9-16.8 29-17.7 42.1-5.8 9 8.1 16.8 18.5 25.2 27.5 8.1 8.7 16.3 17.2 24.1 25.9 16 17.1 32.2 34.2 48.2 51.3 7.3 7.8 15.1 15.7 22.1 23.8 10.1 11.3 11 30.7 1.7 42.9-28.7 37.7-73.4 68.2-119.3 79.8-14.2 3.5-29 5.5-43.6 5.8-9.8 0.3-21.7-0.3-29.9-6.7-7.8-6.4-13.3-17.1-14.2-27l-7-93.7c-0.8-15.3 4.7-38.5 12.5-51.6zm335-202.2c0.9-0.5 1.8-1.1 2.7-1.4 15.6-7.9 31-5.2 47.3-0.6l79.2 29c17.5 6.1 14.3 17.4 5.8 32.8-8.7 13-17.4 26.4-26.1 39.4-7.5 11.3-14.8 22.7-22.3 34-7.3 11-13.7 22.3-20.9 33.3-11.4 17.7-27.9 32.2-47.1 40.6-14.8 6.7-31 9.9-47 11.6-15.4 1.5-31.1 2.9-46.2 3.8-14.2 0.9-29 2.3-43.2-0.3-11.9-2.3-23.5-8.4-30.8-18.2-7.3-9.9-9-22.7-10.2-35.1-0.8-10.2-1.7-20.3 0.9-30.2 3.5-13.4 13.1-19.4 23-27.9 7.8-6.6 15.3-13.6 23.2-20.3 19.7-17.1 39.7-33.9 59.8-50.4 9-7.3 18.3-14.3 27.6-21.2 8.1-6.1 15.1-13.6 24.3-18.9zm-412.5 995.9q1.3 6.1 0.9 12.2c-0.6 10.4-7 19.1-13.1 27.2l-45.6 53.7c-9.8 11.9-19.7 4-27.2-4.9l-70-94.3c-9.6-12.2-15.7-34.5-13.4-49.9 1.5-11 3.8-22.1 6.4-32.8 2.3-10.1 5-19.7 8.2-29.6 3.7-11 4.9-22.3 10.4-32.8 5.8-11.6 16.3-22.6 29.6-25.5 13.9-2.9 35.7 3.5 47.6 10.5 15.7 8.9 19.8 31.9 25.9 47.5 7.5 19.8 14.8 39.5 21.7 59.5 5 13.9 9.9 28.1 14.3 42.3 1.7 6.1 3.4 11.4 4.3 16.9zm-15.1-290.7c-5.5-16.5-9.9-30.2-9.9-30.4 0-0.3 7.6-12.5 16.6-27.3l75.8-92c11.3-13 34.5-20.6 51.6-16.5l69.1 27.8c16.3 6.1 27 25.3 23.6 42.1l-75.2 174.6c-7 16-26.7 31.1-44.2 33.7 0 0-7.2 1.1-38.3-4.1-10.1-1.7-10.1-1.7-10.1-1.7-9.9-3.2-23.6-19.2-30.2-35.1zm8.1-688.4c-1.8-8.1-2.6-16.2 0-23.8 1.2-3.4 3.2-6.6 5.5-9.5 9.9-11.6 24.7-14.5 37.7-20.3 5.9-2.7 12.2-4.7 18.3-6.7 17.2-6.4 34.3-12.5 51.4-18.9 38-13.9 76.4-27.8 114.4-41.7 11-4.1 22.6-9.6 34-12.5 12.2-3.2 24.9 2 25.5 15.9 0.3 9.9-8.1 18.3-13.6 25.9-5.8 8.4-11.9 16.5-17.7 24.9-7.9 10.7-15.4 21.8-23.3 32.5-10.4 15.4-33.3 32.5-50.8 38.3-14.8 5.8-29.6 11.3-44.4 17.1-24.7 9.3-50.2 22.6-76 27.6-2.9 0.5-5.6 0.8-8.5 1.1-13 1.2-27-2-36.3-11.6-7.5-7.8-10.7-18.6-13.6-29-0.9-2.9-1.7-6.1-2.6-9.3zm-237.5 215.6c5.2-10.5 14-19.5 24.7-24.4 12.8-6.1 26.4-8.7 40.1-12.8 9.5-2.9 20-5.2 29.6-8.1 9.5-2.9 20.3-4.1 29.3 0 7.2 2.9 13.1 9 17.1 15.7 5.2 8.4 8.7 17.7 13.4 26.4 4.6 8.4 9 17.1 13.6 25.8 5.5 10.1 11.3 20.3 16.3 30.7 6.1 12.8 1.7 29.6-9.9 37.4l-52.5 36c-11.7 7.8-31.4 9.3-43.9 3.2l-92.3-43.8c-10.7-9-14.5-27-8.4-39.7 6.4-14 10.7-20.3 18.3-36.6 0.6-2 3.7-8.1 4.6-9.8zm316.2 1067.4c-9-4.6-16.6-9.5-23.6-15.9-11.6-10.7-11.9-28.2-13.9-42.1-3.2-19.7-5.2-38.3-7.2-58.9-1.2-11.3-2.4-22.6 1.1-33.3 9.3-27 38.6-32.5 62.7-38 30.8-7.3 61.3-13.9 92.3-20.3 8.2-1.8 16.3-3.2 24.4-4.7 2.3-0.5 5-0.8 7.3 0 3.2 1.2 4.9 5 6.1 8.2 5.8 20.5 15.4 40.9 22.6 60.9 12.2 33 24.1 66.1 36.3 98.9 10.8 29.3 21.5 58.3 32.2 87.6 2.1 5.5 4.1 11.3 6.1 16.8 3.5 18-8.1 29-25.8 24.4-28.2-10.5-56.3-21.2-84.8-31.6-29.6-11.1-59.2-21.2-88.8-32.2zm932.5-343.2c3.7-18 16.5-44.7 28.1-58.9 0 0 70.9-87.6 90-110.8 7-8.4 11.6-14.2 14.8-18.3 1.5-1.7 1.5-1.7 1.5-1.7 1.4-1.8 4.9-5.5 7.8-8.1 2.9-2.6 10.8-4.1 5.5 13.6l-149.5 332.1c-9.8 15.7-16.5 13.4-14.8-5.2zm-184.6 169.1c-12.2 14-28.5 11.6-36-5.2-12.2-28.7-24.1-57.7-36.3-86.4-6.1-14.8-12.5-29.6-18.6-44.4-9.3-22.1-19.4-46.7-15.4-71.1 2.6-15.9 11.6-30.1 21.2-43.2 30.8-41.5 58.1-85.9 86.5-129.1 9.6-15.7 24.1-14.8 32 1.8l108.5 146.2c11.4 14.5 14.6 40.3 7.6 57.4zm18-938.4c-18.3 1.4-43-9.3-54.6-23.5l-60.1-72.5c-13-13.1-9-27.6 9-32.2l99.6-23.8c18.6-4.4 39.5-5.8 46.4-0.3 6.7 5.2 25.9 30.2 31.7 47.6l22.9 67.8c6.4 17.5-3.2 32.2-21.8 33.4zm-48.7 56c0.8-1.7 1.7-3.5 2.6-4.9 8.4-14.8 29.6-26.1 46.1-27.3l78.4-4.1c18.6-0.8 34.6 13.4 36 31.6l9.9 162.8c-1.2 18.5-15.7 26.7-32.2 18.3l-144.9-72.9c-15.1-10.4-22.6-33.3-16.2-50.7 6.6-17.7 11.9-36 20.3-52.8zm320.8 98c0.8 6.7-3.8 13.4-9.3 17.4-26.4 20.3-58.1 35.7-87.1 52.5-16 9.3-28.2 1.8-27.3-16.8l-4.7-135.7c-0.8-18.6 9.9-23.8 24.1-11.9 33.7 25.8 72.6 49.9 98.8 83.8 2.3 3.2 4.6 6.4 5.5 10.7zm-7.3 383.5c8.7 16.3 12.2 34 7.8 39.5 0 0 0 0-6.3 7.5-18.3 22.3-85.1 104.7-85.1 104.7-11.6 14.2-29.9 14-40.6-1.1l-109.8-148.8c-7.2-16.9-6.9-44.7 0.6-61.5l82.2-165.1c10.1-15.4 25.2-14.8 33.6 1.5zm66.2-73.4c-0.8 18.2-7.2 42.9-13.9 54.2-6.7 11.6-26.7 16.8-35.4 0.6l-117.3-222.5c-8.4-16.2-2.3-37.1 13.6-46.4l78.7-46.1c16-9.3 32.8-2.4 37.7 15.3 0 0 36.6 137.8 36.6 227.8 0 17.1 0 17.1 0 17.1zm-152.7-476.3c24.1 32.5 47.3 72.2 47.3 72.2 9.3 15.9 5.3 19.4-9 7.8l-57.7-46.7c-14-12.2-29.6-33.3-34.9-47-5.5-13.6-17.4-68.4-4.6-55.1 0 0 34.2 35.7 58.9 68.8zm-477.2-218.5c-15.4-13.3-10.8-34.8 7.8-37.4l54.3-9.8c18.3-3.5 47-0.6 64.1 6.3l146.4 72.6c15.9 9.5 14.8 22.9-2.4 29.5l-102.4 20.9c-18 3.5-45.6-1.7-61.3-11.6zm86.8 142.5c12.8-13.4 34-13.7 47-0.9l65.1 77.4c11.9 14.2 13.9 38.9 4.9 54.9l-21.5 62.3c-6.4 17.4-26.7 31.4-45.3 31.1l-195.1-6.7c-18.5-0.6-29.6-16-24.9-33.7zm96.6 273.9c5.3-5.5 9.6-12.8 17.5-15.4 4.6-1.5 9.8-1.2 14.5 0.3 6.9 2.3 12.7 7 19.4 9.6l147.5 74.2c16.6 8.4 21.5 27.6 11.3 43l-84.5 166.7c-8.1 16.6-27 21.5-42 10.8l-176.3-132c-14.8-11-19.7-33.7-10.7-49.9zm-147.8 187.4c9.3-16 29.1-20 43.6-8.7l175.6 131.1c15.1 10.7 18.9 31.9 8.7 47.3l-106.5 167.7c-12.2 16.8-24.1 29-42.4 27.8l-123.1-8.7c-18.6 0-34.3-15.1-35.4-33.7 0 0-1.2-24-3.8-59.7-2-27.9-4.1-58.9-4.1-58.9-1.1-18.6 5-47 13.4-63.2zm-97.8 409.9c8.4-16.3 30.7-29.9 49-29.9l128.3 9.5c18.3 1.5 39.2 16.3 46.5 33.4l59.8 142.4c7.5 16.9-0.3 35.7-17.4 42.1l-332.4 129.1c-16.3 6.1-24.7 3.2-19.8-14.8zm54 419.7q-3.5 0.9-6.9 1.8c-41.3 9-73.5-15.4-107.2-34.8-15.6-9.9-16.5-28.5-0.3-36.3l320.8-126.5c17.2-6.6 24.1 1.2 15.1 17.4l-47.9 103.6c-7.5 16.8-28.1 35.4-45.5 41.2-30.5 7.8-60.7 15.9-91.2 23.8-11.9 2.9-24.4 6.6-36.9 9.8zm219.2-74.8c-16 9.3-22.3 3.5-14.2-13.1l47-97.4c9.3-16 28.8-38.6 43-50.2l127.7-129.4c11.9-10.4 13.7-9.9 13.4 8.4l-2.6 87.3c0.5 18.6-10.2 43.5-23.8 56zm-1014.1-459.5c7.8-21.1 7.3-55.7-1.2-76.8l-8.1-20c-12.5-31.1-27.3-68.2-61-81-6-2.3-14.2-3.2-18.5 1.8-2.4 2.9-2.6 6.6-2.9 10.4-1.2 33.4 11 65.6 20.3 97.2 9.3 32.2 18.9 64.4 28.1 96.9 0.9 3.2 2.1 6.6 3 9.8 6.3 21.8 18 22.1 25.5 0.9z"/>
</svg>