<?xml version="1.0" encoding="UTF-8"?>
<svg id="Layer_2" data-name="Layer 2" xmlns="http://www.w3.org/2000/svg" viewBox="0 0 230.57 56.67">
  <defs>
    <style>
      .cls-1 {
        fill: #06a76e;
      }
    </style>
  </defs>
  <g id="Swatch_Info_Layer" data-name="Swatch Info Layer">
    <g>
      <path class="cls-1" d="M8.48,45.97c-.18-.66-.36-5.88-.48-11.64l-.18-10.38-3-3.96c-1.68-2.16-3.42-4.44-3.9-5.1-1.56-1.98-1.08-4.2,1.08-4.68,1.5-.36,2.64.6,5.46,4.38,1.44,1.92,2.7,3.54,2.76,3.54s1.56-2.04,3.24-4.62c2.46-3.66,3.3-4.68,4.08-4.98,1.08-.36,1.74-.18,2.7.66,1.56,1.38,1.02,2.52-5.22,11.58l-1.92,2.82.18,9.24c.12,5.1.3,10.32.42,11.58.18,2.28.18,2.34-.78,3.24-1.14,1.14-2.22,1.26-3.3.24-.48-.36-.96-1.2-1.14-1.92Z"/>
      <path class="cls-1" d="M39.97,18.31c1.86,3.18,2.4,7.26.42,10.56-1.02,1.68-2.4,2.04-3.72,2.4-1.38.42-2.88.6-4.5.72-2.64.24-5.58.24-8.34.24.9,4.5,3.42,6.18,5.22,6.48.96.18,1.68,0,1.92-.18.3-.24.36-.18.3-.84-.12-.72.12-1.44.54-2.04.48-.54,1.08-.96,1.8-1.02.72-.06,1.44.12,2.04.6.54.42.9,1.08.96,1.8.3,2.4-.78,4.68-2.58,5.94-1.74,1.2-3.9,1.5-6.06,1.08-4.26-.84-8.46-4.74-9.6-11.4-.84-4.74-.18-9.24,1.86-12.84,1.98-3.6,5.46-6.24,9.72-6.78.3-.06.54-.06.84-.06,4.08-.18,7.44,2.28,9.18,5.34ZM30.61,18.37c-2.46.3-4.38,1.74-5.7,4.08-.72,1.38-1.2,2.82-1.38,4.38,2.82,0,5.76,0,8.16-.18,1.44-.18,2.7-.36,3.54-.54.24-.06.42-.18.66-.3.42-1.14.3-3.18-.6-4.8-.9-1.62-2.16-2.64-3.9-2.7-.24,0-.48.06-.78.06Z"/>
      <path class="cls-1" d="M45.25,45.85c-2.7-.66-3.72-3.24-1.92-5.04.78-.78,1.08-.9,1.92-.72,2.04.48,4.14.36,4.86-.24,1.44-1.32.78-2.76-3.24-7.08-3.42-3.66-4.32-5.46-4.32-8.52.06-4.86,3.78-9.78,7.5-9.78,1.02,0,1.56.18,2.1.72,1.44,1.44.78,3.96-1.14,4.5-2.34.6-3.78,4.26-2.58,6.54.24.54,1.62,2.22,3.06,3.72,4.08,4.32,5.28,6.96,4.56,10.02-.48,1.98-2.52,4.32-4.56,5.22-1.86.78-4.5,1.02-6.24.66Z"/>
      <path class="cls-1" d="M57.13,52.03c.36-1.14.42-2.4.3-3.6-.36-3.18-.3-3.72.6-4.44,1.62-1.44,3.48-.72,4.38,1.62,1.14,3,.06,9.72-1.68,10.68-1.2.66-2.76.42-3.48-.48-.78-.96-.78-1.5-.12-3.78Z"/>
      <path class="cls-1" d="M84.19,13.27c.54.48.84,1.2.84,1.92.06,2.34-.18,9.3-.42,15.96-.24,6.72-.48,12.9-.48,12.9-.06.72-.36,1.44-.9,1.92s-1.2.78-1.92.72c-.72,0-1.44-.36-1.92-.9s-.72-1.2-.66-1.92c0,0,.24-6.24.48-12.9.24-6.72.48-14.1.42-15.66-.06-1.44,1.14-2.7,2.58-2.82.78,0,1.44.24,1.98.78Z"/>
      <path class="cls-1" d="M89.59,12.37c-.96-.96-.96-1.02-.78-3.06.12-1.14.18-3.3.18-4.74,0-2.4.12-2.82.72-3.54.48-.48,1.08-.78,1.68-.96.84-.18,1.2-.06,1.98.72,1.14,1.08.96,2.76.96,4.8-.06,4.56-.36,6.06-1.44,7.02s-2.16.9-3.3-.24Z"/>
      <path class="cls-1" d="M122.23,49.57c.06.72-.24,1.44-.72,1.98-.54.54-1.2.84-1.92.84s-1.44-.3-1.92-.78c-.54-.54-.84-1.2-.84-1.92-.06-5.34-.3-14.88-.54-23.34-.12-3.3-.18-6.06-.3-8.76-.18.3-.3.48-.42.78-2.16,3.72-4.14,7.38-5.04,8.7-.54.84-1.44,1.26-2.4,1.26-.9-.06-1.8-.54-2.22-1.38l-2.4-4.26c-.42,7.44-.9,17.58-.9,24.54.06.72-.24,1.38-.72,1.92-.54.48-1.2.78-1.92.78s-1.44-.24-1.98-.78c-.48-.48-.78-1.2-.78-1.92-.06-12.18,1.44-34.14,1.44-34.14.12-1.14.96-2.16,2.1-2.4,1.2-.3,2.4.24,3,1.32l4.56,8.16c.78-1.38,1.68-2.94,2.58-4.5,1.08-1.92,2.16-3.78,3.06-5.28.9-1.5,1.32-2.4,2.28-3.42.48-.48,1.14-.84,1.92-.84,1.32,0,2.46.9,2.7,2.22.24,1.38.3,3.24.42,6.36.18,3.18.3,7.2.42,11.46.24,8.52.48,18.06.54,23.4Z"/>
      <path class="cls-1" d="M148.39,16.63c1.86.9,4.02,3.36,4.8,5.4,1.74,4.68,1.32,11.7-.96,16.14-.84,1.8-3,3.96-4.44,4.62-1.44.66-3.54.72-5.1.18-2.46-.9-4.56-3.54-5.46-6.9-.66-2.4-.66-7.5-.06-10.2,1.38-5.82,5.22-9.78,8.94-9.78.78,0,1.56.18,2.28.54ZM144.13,23.11c-1.26,1.8-1.86,3.72-1.98,6.9-.24,3.48.36,6.12,1.62,7.32.84.9,1.32.96,2.22.3,3.42-2.4,3.9-13.98.72-15.72-.24-.12-.54-.24-.84-.18-.6,0-1.14.48-1.74,1.38Z"/>
      <path class="cls-1" d="M172.33,51.01c-.66-.96-5.46-11.28-8.16-17.52-1.32-3-2.46-5.58-2.52-5.64-.12-.12-.06,1.32,0,3.06.12,1.8.24,5.64.24,8.58l.06,4.56c0,.84-.12,1.44-.72,1.98-.78.66-1.92.9-2.94.48-1.62-.6-1.62-1.32-1.98-16.86-.48-16.32-.48-16.02,1.68-16.74,1.26-.42,2.16,0,3.48,1.5.36.42,2.7,5.4,5.1,11.1,2.46,5.64,4.74,10.86,5.1,11.64l.66,1.38.24-9.48c.12-5.22.3-11.76.42-14.58.18-5.1.18-5.16,1.02-6,1.14-1.14,2.28-1.14,3.42.06,1.14,1.08,1.08-.54.48,24.06-.18,7.74-.48,13.5-.6,16.32-.12,2.94-2.1,3.96-3.84,3.06-.48-.24-.84-.6-1.14-.96Z"/>
      <path class="cls-1" d="M199.99,13.27c.54.48.84,1.2.84,1.92.06,2.34-.18,9.3-.42,15.96-.24,6.72-.48,12.9-.48,12.9-.06.72-.36,1.44-.9,1.92s-1.2.78-1.92.72c-.72,0-1.44-.36-1.92-.9s-.72-1.2-.66-1.92c0,0,.24-6.24.48-12.9.24-6.72.48-14.1.42-15.66-.06-1.44,1.14-2.7,2.58-2.82.78,0,1.44.24,1.98.78Z"/>
      <path class="cls-1" d="M211.81,49.93c-.36-1.86-1.74-14.46-2.04-18.84-.18-2.46-.36-7.56-.36-11.28v-6.84l-1.44.24c-.84.12-2.04.3-2.64.36-.96.18-1.26.06-2.1-.78-1.44-1.44-1.08-3.36.72-4.2,1.38-.6,7.62-1.62,12.72-1.68,2.28,0,4.32-.12,5.04.66,1.02,1.14,1.08,2.76,0,3.78-.66.72-1.02.78-3.3.78-1.44,0-2.76.12-3,.24-.6.42-.84,8.88-.42,15.96.18,3.3.78,9.6,1.32,13.92.48,4.38,1.14,7.32.9,8.34-.3,1.32-1.98,2.64-3.24,2.16-1.2-.54-1.92-1.56-2.16-2.82Z"/>
      <path class="cls-1" d="M229.09,49.63c-.36,1.02-1.68,1.86-2.7,1.86-.42-.06-.9-.18-1.26-.42-1.8-.96-2.1-3.18-.72-4.56.54-.6,1.32-.9,2.1-.9,1.8.06,3.48,1.92,2.58,4.02ZM230.05,4.15c.72.9.72.54-.12,7.98-.78,6.84-1.14,13.68-1.08,20.46,0,6.06,0,6.24-.72,6.96-.96,1.08-2.7,1.02-3.72-.06-.54-.48-.72-.9-.72-2.16v-8.16c0-7.62.18-10.98.72-16.38.36-3.78.9-7.32,1.14-7.86.42-1.08,1.44-1.74,2.58-1.74.78.06,1.5.36,1.92.96Z"/>
    </g>
  </g>
</svg>